<svg width="566" height="442" viewBox="0 0 566 442" fill="none" xmlns="http://www.w3.org/2000/svg">
<path d="M500.363 272.077L491.354 166.637C487.017 117.587 447.977 78.5479 398.928 74.5439L143.003 53.8564C91.9512 49.8523 45.5711 84.554 35.8946 135.272L8.20002 277.082C-4.47944 341.48 46.9058 400.873 112.639 397.203L310.171 386.525L346.875 434.908L369.565 383.522L404.934 381.52C461.991 378.517 505.035 328.801 500.363 272.077Z" stroke="#231F20" strokeWidth="6.6734" strokeMiterlimit="10"/>
<path d="M123.443 81.8385C130.642 51.3503 111.762 20.7988 81.274 13.5996C50.7859 6.40052 20.2343 25.28 13.0352 55.7682C5.83604 86.2564 24.7155 116.808 55.2037 124.007C85.6919 131.206 116.243 112.327 123.443 81.8385Z" fill="#DDCC13"/>
<path d="M524.915 379.395C547.571 357.76 548.399 321.855 526.764 299.199C505.129 276.543 469.224 275.715 446.568 297.35C423.911 318.985 423.083 354.89 444.718 377.546C466.353 400.202 502.258 401.03 524.915 379.395Z" fill="#DDCC13"/>
<path opacity="0.2" d="M22.8814 200.671L27.5528 264.402C29.5548 289.761 48.574 310.449 73.933 314.119L394.924 360.833C428.291 365.838 457.987 339.478 456.986 305.777L454.317 193.998C453.65 164.301 429.292 140.944 399.929 140.944L76.936 142.279C45.2373 142.279 20.5457 169.306 22.8814 200.671Z" fill="#231F20"/>
<path d="M6.19799 184.322L10.8694 248.053C12.8714 273.412 31.8906 294.099 57.2495 297.77L378.24 344.484C411.607 349.489 441.304 323.129 440.303 289.428L437.633 177.649C436.966 147.952 412.608 124.595 383.245 124.595L59.9189 125.596C28.5539 125.93 3.8623 152.957 6.19799 184.322Z" fill="white"/>
<path d="M30.2223 93.5632V78.2144C30.2223 70.2063 31.2233 63.5329 33.2253 58.1942C35.2273 52.8554 38.564 48.5177 43.2354 44.8473C47.9068 41.177 53.2455 38.8413 59.2516 37.5066V49.8524C54.9139 52.1881 52.5782 55.5248 52.2445 59.5288H59.2516V93.5632H30.2223ZM68.5944 93.5632V78.2144C68.5944 70.2063 69.5954 63.5329 71.5974 58.1942C73.5994 52.8554 76.9361 48.5177 81.6075 44.8473C86.2789 41.177 91.6176 38.8413 97.6237 37.5066V49.8524C93.2859 52.1881 90.9502 55.5248 90.6166 59.5288H97.6237V93.5632H68.5944Z" fill="black"/>
<path d="M486.349 310.115V325.464C486.349 333.472 485.348 340.145 483.346 345.484C481.344 350.823 478.008 355.16 473.336 358.831C468.665 362.501 463.326 364.837 457.32 366.172V353.826C461.658 351.49 463.993 348.153 464.661 344.149H457.32V310.115H486.349ZM525.055 310.115V325.464C525.055 333.472 524.054 340.145 522.052 345.484C520.05 350.823 516.713 355.16 512.042 358.831C507.37 362.501 502.032 364.837 496.026 366.172V353.826C500.363 351.49 502.699 348.153 503.033 344.149H496.026V310.115H525.055Z" fill="black"/>
<path d="M228.422 148.285L233.761 156.293L242.77 158.962L236.764 166.303L237.098 175.646L228.422 172.643L219.413 175.646L219.747 166.303L214.074 158.962L223.084 156.293L228.422 148.285Z" fill="#231F20"/>
<path d="M267.128 148.285L272.467 156.293L281.476 158.962L275.803 166.303V175.646L267.128 172.643L258.119 175.646L258.453 166.303L252.78 158.962L261.789 156.293L267.128 148.285Z" fill="#231F20"/>
<path d="M150.677 148.285L156.016 156.293L165.025 158.962L159.353 166.303L159.686 175.646L150.677 172.643L142.002 175.646V166.303L136.329 158.962L145.338 156.293L150.677 148.285Z" fill="#231F20"/>
<path d="M189.383 148.285L194.722 156.293L203.731 158.962L198.058 166.303L198.392 175.646L189.383 172.643L180.708 175.646L181.041 166.303L175.035 158.962L184.378 156.293L189.383 148.285Z" fill="#231F20"/>
<path d="M305.834 148.285L311.173 156.293L320.182 158.962L314.509 166.303L314.843 175.646L305.834 172.643L297.158 175.646V166.303L291.486 158.962L300.495 156.293L305.834 148.285Z" fill="#231F20"/>
<path d="M226.754 145.282L232.093 153.29L241.102 155.96L235.429 163.3L235.763 172.643L226.754 169.64L218.079 172.643V163.3L212.406 155.96L221.415 153.29L226.754 145.282Z" fill="#FFD449"/>
<path d="M265.46 145.282L270.798 153.29L279.807 155.96L274.135 163.3L274.469 172.643L265.46 169.64L256.784 172.643L257.118 163.3L251.112 155.96L260.121 153.29L265.46 145.282Z" fill="#FFD449"/>
<path d="M149.342 145.282L154.681 153.29L163.69 155.96L158.018 163.3V172.643L149.342 169.64L140.333 172.643L140.667 163.3L134.995 155.96L144.004 153.29L149.342 145.282Z" fill="#FFD449"/>
<path d="M188.048 145.282L193.387 153.29L202.396 155.96L196.724 163.3L197.057 172.643L188.048 169.64L179.039 172.643L179.373 163.3L173.7 155.96L182.71 153.29L188.048 145.282Z" fill="#FFD449"/>
<path d="M304.499 145.282L309.838 153.29L318.847 155.96L312.841 163.3L313.174 172.643L304.499 169.64L295.49 172.643L295.824 163.3L290.151 155.96L299.16 153.29L304.499 145.282Z" fill="#FFD449"/>
</svg>
