<svg width="472" height="462" viewBox="0 0 472 462" fill="none" xmlns="http://www.w3.org/2000/svg">
<path d="M318.531 63.544L174.719 36.8504C115.993 25.8393 60.9375 68.2154 55.5987 127.609L42.5856 278.428C38.5816 326.81 68.9456 369.853 113.657 383.534L148.693 454.605L191.403 393.544L290.169 403.554C349.562 409.56 401.281 362.846 401.281 303.119V162.978C401.281 114.262 366.579 72.5531 318.531 63.544Z" stroke="#231F20" strokeWidth="6.6734" strokeMiterlimit="10"/>
<path d="M406.746 415.123C428.898 392.972 428.898 357.056 406.746 334.904C384.595 312.753 348.679 312.753 326.527 334.904C304.376 357.056 304.376 392.972 326.527 415.123C348.679 437.275 384.595 437.275 406.746 415.123Z" fill="#DDCC13"/>
<path opacity="0.2" d="M102.646 166.982L82.9596 276.092C77.2872 307.791 106.317 335.819 142.019 332.816L409.956 309.459C434.648 307.123 454.668 290.106 458.338 267.75L470.684 193.342C475.356 164.646 451.665 138.62 419.633 137.285L159.036 125.94C131.342 124.606 107.317 142.29 102.646 166.982Z" fill="#231F20"/>
<path d="M96.1811 127.531C125.072 115.417 138.671 82.1757 126.557 53.2852C114.442 24.3948 81.2013 10.7951 52.3108 22.9096C23.4203 35.024 9.8207 68.2651 21.9351 97.1555C34.0496 126.046 67.2906 139.646 96.1811 127.531Z" fill="#DDCC13"/>
<path d="M85.9627 150.632L66.2762 259.742C60.6038 291.441 89.6332 319.469 125.336 316.466L393.273 293.109C417.965 290.774 437.985 273.756 441.655 251.401L454.001 176.992C458.672 148.297 434.982 122.27 402.949 120.936L142.353 109.591C114.658 108.256 90.6341 125.941 85.9627 150.632Z" fill="white"/>
<path d="M40.5835 98.9135V83.5647C40.5835 75.5566 41.5846 68.8832 43.5866 63.5445C45.5886 58.2057 48.9253 53.868 53.5967 50.1977C58.2681 46.5273 63.6068 44.1916 69.6128 42.8569V55.2027C65.2751 57.5384 62.9394 60.8751 62.6057 64.8792H69.6128V98.9135H40.5835ZM79.2893 98.9135V83.5647C79.2893 75.5566 80.2902 68.8832 82.2923 63.5445C84.2943 58.2057 87.631 53.868 92.3024 50.1977C96.9738 46.5273 102.313 44.1916 108.319 42.8569V55.2027C103.981 57.5384 101.645 60.8751 101.312 64.8792H108.319V98.9135H79.2893Z" fill="black"/>
<path d="M364.589 350.93V366.279C364.589 374.287 363.588 380.961 361.586 386.299C359.584 391.638 356.248 395.976 351.576 399.646C346.905 403.317 341.566 405.652 335.56 406.987V394.641C339.898 392.305 342.233 388.969 342.901 384.965H335.56V350.93H364.589ZM403.295 350.93V366.279C403.295 374.287 402.294 380.961 400.292 386.299C398.29 391.638 394.953 395.976 390.282 399.646C385.611 403.317 380.272 405.652 374.266 406.987V394.641C378.603 392.305 380.939 388.969 381.273 384.965H374.266V350.93H403.295Z" fill="black"/>
<path d="M263.475 144.292L268.814 151.967L277.823 154.636L272.151 162.311L272.484 171.653L263.475 168.317L254.8 171.653L255.134 162.311L249.127 154.636L258.47 151.967L263.475 144.292Z" fill="#231F20"/>
<path d="M302.515 144.292L307.854 151.967L316.863 154.636L310.857 162.311L311.19 171.653L302.515 168.317L293.506 171.653L293.839 162.311L288.167 154.636L297.176 151.967L302.515 144.292Z" fill="#231F20"/>
<path d="M186.064 144.292L191.403 151.967L200.412 154.636L194.739 162.311L195.073 171.653L186.064 168.317L177.055 171.653L177.388 162.311L171.716 154.636L180.725 151.967L186.064 144.292Z" fill="#231F20"/>
<path d="M224.77 144.292L230.108 151.967L239.117 154.636L233.445 162.311L233.779 171.653L224.77 168.317L216.094 171.653V162.311L210.422 154.636L219.431 151.967L224.77 144.292Z" fill="#231F20"/>
<path d="M341.22 144.292L346.559 151.967L355.568 154.636L349.896 162.311V171.653L341.22 168.317L332.211 171.653L332.545 162.311L326.873 154.636L335.882 151.967L341.22 144.292Z" fill="#231F20"/>
<path d="M262.141 141.29L267.479 148.964L276.488 151.633L270.816 159.308L271.15 168.65L262.141 165.314L253.131 168.65L253.465 159.308L247.793 151.633L256.802 148.964L262.141 141.29Z" fill="#FFD449"/>
<path d="M300.846 141.29L306.185 148.964L315.194 151.633L309.522 159.308L309.855 168.65L300.846 165.314L292.171 168.65V159.308L286.499 151.633L295.508 148.964L300.846 141.29Z" fill="#FFD449"/>
<path d="M184.729 141.29L189.734 148.964L199.077 151.633L193.071 159.308L193.405 168.65L184.729 165.314L175.72 168.65L176.054 159.308L170.381 151.633L179.39 148.964L184.729 141.29Z" fill="#FFD449"/>
<path d="M223.435 141.29L228.774 148.964L237.783 151.633L232.11 159.308V168.65L223.435 165.314L214.426 168.65L214.76 159.308L209.087 151.633L218.096 148.964L223.435 141.29Z" fill="#FFD449"/>
<path d="M339.552 141.29L344.891 148.964L353.9 151.633L348.227 159.308L348.561 168.65L339.552 165.314L330.876 168.65L331.21 159.308L325.204 151.633L334.213 148.964L339.552 141.29Z" fill="#FFD449"/>
</svg>
