<svg width="458" height="499" viewBox="0 0 458 499" fill="none" xmlns="http://www.w3.org/2000/svg">
<path d="M431.201 264.712L426.53 212.993C420.524 145.258 366.469 91.2038 298.734 85.1977L227.996 78.858C154.589 72.1846 88.1882 123.236 75.8424 195.976L66.166 254.035C51.8182 339.454 116.884 417.533 203.304 418.868L259.361 492.275L291.727 418.868C374.477 418.2 438.876 347.129 431.201 264.712Z" stroke="#231F20" strokeWidth="6.6734" strokeMiterlimit="10"/>
<path d="M422.454 432.019C441.912 407.467 437.782 371.791 413.231 352.333C388.679 332.875 353.003 337.005 333.545 361.556C314.087 386.108 318.217 421.785 342.768 441.242C367.32 460.7 402.996 456.57 422.454 432.019Z" fill="#DDCC13"/>
<path opacity="0.2" d="M79.5128 153.6L364.801 177.29C393.83 179.626 415.852 199.313 415.852 222.336V306.087C415.852 329.778 392.829 349.464 363.132 351.466L88.1883 367.816C56.4896 369.818 29.1287 350.799 27.1266 325.44L17.1165 201.648C14.4472 173.62 44.4775 150.597 79.5128 153.6Z" fill="#231F20"/>
<path d="M187.938 80.6727C194.949 50.1406 175.882 19.7059 145.35 12.6947C114.817 5.68355 84.3827 24.751 77.3716 55.283C70.3604 85.8151 89.4279 116.25 119.96 123.261C150.492 130.272 180.927 111.205 187.938 80.6727Z" fill="#DDCC13"/>
<path d="M98.8657 90.2021V74.8533C98.8657 66.8452 99.8667 60.1718 101.869 54.833C103.871 49.4943 107.207 45.1566 111.879 41.4862C116.55 37.8159 121.889 35.4802 127.895 34.1455V46.4913C123.557 48.827 121.222 52.1637 120.888 56.1677H127.895V90.2021H98.8657ZM137.571 90.2021V74.8533C137.571 66.8452 138.572 60.1718 140.574 54.833C142.577 49.4943 145.913 45.1566 150.585 41.4862C155.256 37.8159 160.595 35.4802 166.601 34.1455V46.4913C162.263 48.827 159.927 52.1637 159.594 56.1677H166.601V90.2021H137.571Z" fill="black"/>
<path d="M62.8292 137.249L348.117 160.94C377.147 163.276 399.169 182.962 399.169 205.985V289.737C399.169 313.427 376.146 333.114 346.449 335.116L71.5047 351.466C39.806 353.468 12.4451 334.448 10.443 309.09L0.432942 185.298C-2.23642 157.27 27.7939 134.246 62.8292 137.249Z" fill="white"/>
<path d="M373.143 370.485V385.834C373.143 393.842 372.142 400.515 370.14 405.854C368.138 411.193 364.801 415.531 360.13 419.201C355.458 422.871 350.119 425.207 344.113 426.542V414.196C348.451 411.86 350.787 408.523 351.454 404.519H344.113V370.485H373.143ZM411.848 370.485V385.834C411.848 393.842 410.847 400.515 408.845 405.854C406.843 411.193 403.507 415.531 398.835 419.201C394.164 422.871 388.825 425.207 382.819 426.542V414.196C387.157 411.86 389.492 408.523 389.826 404.519H382.819V370.485H411.848Z" fill="black"/>
<path d="M196.631 175.955L201.97 183.963L210.979 186.633L205.306 193.974V203.316L196.631 200.313L187.622 203.316L187.956 193.974L182.283 186.633L191.292 183.963L196.631 175.955Z" fill="#231F20"/>
<path d="M235.337 175.955L240.676 183.963L249.685 186.633L244.012 193.974L244.346 203.316L235.337 200.313L226.328 203.316L226.661 193.974L220.989 186.633L229.998 183.963L235.337 175.955Z" fill="#231F20"/>
<path d="M118.886 175.955L124.225 183.963L133.234 186.633L127.561 193.974L127.895 203.316L118.886 200.313L110.21 203.316L110.544 193.974L104.538 186.633L113.547 183.963L118.886 175.955Z" fill="#231F20"/>
<path d="M157.925 175.955L162.93 183.963L172.273 186.633L166.267 193.974L166.601 203.316L157.925 200.313L148.916 203.316L149.25 193.974L143.577 186.633L152.586 183.963L157.925 175.955Z" fill="#231F20"/>
<path d="M274.042 175.955L279.381 183.963L288.39 186.633L282.718 193.974L283.051 203.316L274.042 200.313L265.367 203.316V193.974L259.695 186.633L268.704 183.963L274.042 175.955Z" fill="#231F20"/>
<path d="M194.963 172.953L200.301 180.961L209.31 183.63L203.638 190.971L203.972 200.314L194.963 197.311L186.287 200.314V190.971L180.615 183.63L189.624 180.961L194.963 172.953Z" fill="#FFD449"/>
<path d="M233.668 172.953L239.007 180.961L248.016 183.63L242.344 190.971L242.677 200.314L233.668 197.311L224.993 200.314L225.327 190.971L219.321 183.63L228.33 180.961L233.668 172.953Z" fill="#FFD449"/>
<path d="M117.551 172.953L122.89 180.961L131.899 183.63L126.227 190.971V200.314L117.551 197.311L108.542 200.314L108.876 190.971L103.203 183.63L112.212 180.961L117.551 172.953Z" fill="#FFD449"/>
<path d="M156.257 172.953L161.596 180.961L170.605 183.63L164.932 190.971L165.266 200.314L156.257 197.311L147.248 200.314L147.581 190.971L141.909 183.63L150.918 180.961L156.257 172.953Z" fill="#FFD449"/>
<path d="M272.708 172.953L278.046 180.961L287.056 183.63L281.049 190.971L281.383 200.314L272.708 197.311L263.699 200.314L264.032 190.971L258.36 183.63L267.369 180.961L272.708 172.953Z" fill="#FFD449"/>
</svg>
