<svg width="268" height="414" viewBox="0 0 268 414" fill="none" xmlns="http://www.w3.org/2000/svg">
<path d="M151.525 401.131C148.17 394.98 138.663 382.118 132.512 388.829C125.801 395.539 122.446 402.809 127.479 404.487C131.952 406.724 157.117 411.197 151.525 401.131Z" fill="#0A744C"/>
<path d="M130.275 406.164C130.275 406.164 149.288 410.637 152.643 405.604C153.203 404.486 153.203 402.808 152.084 400.571C148.729 394.979 143.137 387.709 138.104 386.032C135.867 385.473 133.63 386.032 131.952 387.709C126.919 392.742 124.123 398.335 124.683 401.69C124.683 402.808 125.242 403.927 127.479 405.045C127.479 405.604 129.156 405.604 130.275 406.164ZM137.545 387.709C142.018 388.828 147.61 396.098 150.966 401.69C151.525 402.808 152.084 403.927 151.525 405.045C149.288 408.4 138.104 406.723 130.834 405.045C129.715 404.486 128.597 404.486 127.479 403.927C126.36 403.367 125.801 402.808 125.801 401.69C125.242 398.894 128.038 393.861 133.071 389.387C134.189 387.709 135.867 387.15 137.545 387.709Z" fill="#0A0A0A"/>
<path d="M28.4969 207.081L110.702 204.285V201.489L28.4969 204.285V207.081Z" fill="#0A0A0A"/>
<path d="M235.967 239.517L237.085 237.28C231.493 233.925 184.519 203.727 175.571 203.727V206.523C182.841 206.523 221.986 230.57 235.967 239.517Z" fill="#0A0A0A"/>
<path d="M221.427 408.96L223.664 407.841C222.546 403.927 192.907 310.537 185.637 299.912L183.4 301.59C190.67 312.215 220.868 408.401 221.427 408.96Z" fill="#0A0A0A"/>
<path d="M137.545 398.335L139.781 396.658C128.038 379.881 139.222 307.183 139.222 306.623L136.426 306.064C135.867 308.86 124.683 380.999 137.545 398.335Z" fill="#0A0A0A"/>
<path d="M235.968 368.138C238.764 356.953 244.356 358.631 244.915 364.223C244.915 364.782 244.915 365.342 244.915 365.901C244.915 371.493 243.237 379.881 241.001 390.506C238.204 402.25 234.849 407.842 231.494 410.638C221.428 416.23 232.612 380.44 235.968 368.138Z" fill="#0A8C5B"/>
<path d="M228.697 411.757C229.257 411.757 230.375 411.757 231.494 411.198C235.408 408.402 238.763 401.132 241 390.507C243.237 379.881 244.915 371.493 244.915 365.342C244.915 364.783 244.915 364.223 244.915 363.664C244.915 360.868 243.237 358.631 241.559 358.631C240.441 358.631 237.086 358.072 234.849 367.579C234.29 369.816 233.73 372.612 232.612 375.408C229.257 388.27 224.224 405.605 227.02 410.079C227.579 411.198 228.138 411.757 228.697 411.757ZM241.559 360.309C242.678 360.868 243.796 361.987 243.796 364.223C243.796 364.783 243.796 365.342 243.796 365.901C243.796 371.493 242.119 379.881 239.882 390.507C237.645 400.573 234.29 407.283 230.934 410.079C230.375 410.638 229.816 410.638 229.257 410.638C228.697 410.638 228.697 410.079 228.697 410.079C226.461 406.165 231.494 387.711 234.849 376.526C235.408 373.73 236.527 370.934 237.086 368.697C237.645 361.987 240.441 360.309 241.559 360.309Z" fill="#0A0A0A"/>
<path d="M221.986 387.71C225.342 374.288 232.052 354.157 239.322 356.394C242.677 356.953 243.796 359.749 244.355 364.223C243.796 358.63 238.204 356.394 235.407 368.137C232.052 380.44 220.868 416.23 230.934 410.638C228.138 412.875 225.901 412.315 223.664 411.756C218.072 409.519 218.631 401.131 221.986 387.71Z" fill="#0A744C"/>
<path d="M224.783 412.875C227.02 413.434 229.257 412.875 231.494 411.197L230.934 410.079C230.375 410.638 229.816 410.638 229.257 410.638C228.697 410.638 228.697 410.079 228.697 410.079C226.461 406.164 231.494 387.71 234.849 376.526C235.967 373.73 236.526 370.934 237.086 368.697C238.763 362.545 241 360.308 242.678 360.868C243.796 361.427 244.915 362.545 244.915 364.782H246.033C246.033 359.749 243.796 356.953 240.441 356.394C232.053 354.157 224.783 378.203 222.546 388.269C219.191 401.691 218.072 410.079 224.783 412.875ZM228.138 411.756C227.02 411.756 226.461 411.756 225.342 411.756C224.783 411.756 224.783 411.756 224.224 411.197C219.191 408.96 219.191 402.809 223.105 388.269C227.02 372.052 233.73 355.835 239.882 357.512C241.559 358.072 242.678 358.631 243.237 359.749C243.237 359.749 242.678 359.749 242.678 359.19C241.559 359.19 238.204 358.631 235.967 368.137C235.408 370.374 234.849 373.17 233.73 375.966C230.375 388.828 225.342 406.164 228.138 410.638C227.579 411.197 227.579 411.197 228.138 411.756Z" fill="#0A0A0A"/>
<path d="M232.611 243.432C232.611 246.228 232.052 261.886 234.848 263.004C237.644 264.123 237.644 250.142 237.644 250.142C237.644 250.142 252.184 266.36 253.862 264.682C255.539 263.564 245.473 247.906 245.473 247.906C245.473 247.906 264.487 258.531 265.046 256.294C265.605 253.498 251.066 244.55 251.066 244.55C251.066 244.55 267.283 243.991 267.283 241.195C266.724 238.399 250.506 237.84 250.506 237.84C250.506 237.84 265.046 232.247 261.691 230.011C258.895 227.774 247.151 232.247 242.677 232.807C235.408 233.366 232.611 237.84 232.611 243.432Z" fill="#A85802"/>
<path d="M234.848 264.123C235.408 264.123 235.967 264.123 235.967 263.563C237.645 261.886 238.204 255.175 238.204 251.82C241.559 255.175 250.507 264.682 252.743 265.8C253.303 265.8 253.303 265.8 253.862 265.8C254.98 264.682 252.743 259.649 247.151 250.142C251.066 252.379 258.895 256.294 262.25 257.412C262.809 257.412 264.487 257.971 265.046 256.853C265.605 254.616 258.336 249.024 252.743 245.109C257.217 245.109 265.605 243.991 266.724 242.313C267.842 241.195 267.842 241.195 267.842 240.635C267.842 239.517 266.724 238.958 263.928 238.399C261.132 237.839 256.658 237.28 253.303 236.721C257.217 235.043 262.809 232.806 262.809 230.57C262.809 230.01 262.809 229.451 262.25 228.892C260.013 227.214 254.421 228.892 249.388 230.01C246.592 230.57 244.355 231.129 242.677 231.129C233.171 231.688 231.493 237.839 231.493 242.872V243.991C232.052 257.412 232.612 263.004 234.848 264.123ZM237.085 248.464V250.142C237.085 254.616 236.526 261.327 235.408 262.445C234.848 261.886 233.171 259.649 233.171 244.55V243.432C233.171 237.28 236.526 233.925 243.237 233.366C244.914 233.366 247.151 232.806 249.947 231.688C253.862 230.57 258.895 229.451 261.132 230.01C261.691 230.01 261.691 230.01 261.691 230.57C261.691 231.688 256.099 234.484 249.947 236.721V238.399C249.947 238.399 258.895 238.958 263.369 240.076C266.165 240.635 266.165 241.195 266.165 241.195C265.605 242.313 258.895 243.432 251.066 243.432H248.829L250.507 244.55C256.658 248.464 263.928 254.057 263.928 255.734C263.928 255.734 263.369 255.734 262.809 255.734C258.336 254.616 245.474 247.346 245.474 247.346L244.914 248.464C248.829 254.616 253.303 262.445 253.303 264.123C251.066 263.004 243.237 255.175 238.204 249.583L237.085 248.464Z" fill="#0A0A0A"/>
<path d="M185.637 258.531C185.637 258.531 191.788 264.682 192.347 268.597C192.907 272.511 201.295 298.235 204.091 303.827C204.091 303.827 180.045 318.367 167.742 313.893C167.742 313.893 160.472 296.558 160.472 294.321L158.794 316.689C158.794 316.689 134.189 320.604 120.768 308.301L126.36 266.36L185.637 258.531Z" fill="#C04396"/>
<path d="M134.189 316.689C145.933 319.486 158.235 317.808 158.235 317.808H158.795L160.472 298.794C162.15 303.827 166.064 312.775 167.183 315.012C179.486 319.486 202.973 305.505 204.091 304.946L204.65 304.387V303.827C202.414 298.235 194.025 272.511 192.907 268.597C192.348 264.682 186.196 258.531 186.196 258.531L125.241 265.801L119.649 308.86H120.208C123.564 312.216 128.597 315.012 134.189 316.689ZM157.676 316.13C155.439 316.689 144.814 317.808 134.189 315.012C128.597 313.334 124.123 311.097 120.768 308.301L125.801 267.478L185.078 259.649C186.196 260.768 190.67 265.801 191.229 269.156C191.788 272.511 199.617 297.117 202.414 303.827C199.058 306.064 178.367 317.808 167.742 313.893C164.946 307.183 160.472 296.558 160.472 294.88H159.354L157.676 316.13Z" fill="#0A0A0A"/>
<path d="M135.308 197.016L139.222 200.371C139.222 200.371 106.228 197.016 106.228 199.253C106.228 201.49 106.787 217.707 109.024 218.266C111.82 218.825 128.597 212.674 132.512 210.437C135.867 208.2 180.604 219.944 182.841 221.062C185.078 222.181 191.789 205.404 189.552 204.845C187.315 204.286 166.624 200.93 161.032 197.575C154.88 193.661 135.308 197.016 135.308 197.016Z" fill="#ABA82B"/>
<path d="M109.584 218.825C112.38 219.384 130.275 212.674 133.071 210.996C134.749 209.878 148.729 212.674 167.183 217.147C175.572 219.384 181.723 221.062 182.282 221.621H182.841C185.637 222.18 188.993 212.114 190.111 208.759C190.67 207.081 191.23 204.285 189.552 204.285C188.993 204.285 186.756 203.726 183.401 203.167C179.486 202.608 173.894 201.489 169.42 200.371C165.506 199.252 162.15 198.134 161.032 197.575C160.473 197.016 159.913 197.016 158.795 197.016C151.525 195.338 135.867 197.575 135.308 197.575H133.63L136.986 200.93C126.92 199.812 107.347 198.134 105.669 199.812V200.371C105.669 200.93 105.669 201.489 105.669 202.608C106.788 213.792 107.347 218.266 109.584 218.825ZM167.742 215.47C160.473 213.792 135.308 207.641 132.512 209.318C128.597 211.555 111.821 217.707 109.584 217.147C109.025 217.147 107.906 214.911 107.347 200.93C107.347 200.371 107.347 199.812 107.347 199.252C109.584 198.134 125.242 199.252 139.222 200.93H141.459L136.986 197.016C140.9 196.456 152.644 195.338 158.795 196.456C159.354 196.456 160.473 197.016 160.473 197.016C162.15 198.134 164.946 198.693 169.42 199.812C173.894 200.93 179.486 202.049 183.401 202.608C186.197 203.167 188.434 203.726 188.993 203.726C189.552 204.285 187.874 209.318 185.637 214.351C183.96 217.707 182.841 218.825 182.841 218.825C182.282 219.384 174.453 217.147 167.742 215.47Z" fill="#0A0A0A"/>
<path d="M166.624 193.661C166.624 193.661 179.486 222.181 184.519 233.365C189.551 244.55 194.025 259.089 195.703 268.596C195.703 268.596 180.604 270.833 163.827 279.78C147.051 288.728 122.445 274.188 121.886 271.951L128.597 195.339L166.624 193.661Z" fill="#12A1EC"/>
<path d="M140.9 281.458C149.847 283.695 157.676 283.136 163.827 279.781C180.045 270.833 195.144 268.596 195.144 268.596H195.703V268.037C194.025 258.53 189.551 243.991 184.519 232.806L166.624 192.543L127.478 194.22L120.768 271.952C121.327 273.629 130.834 279.222 140.9 281.458ZM194.584 267.478C191.229 268.037 177.808 270.833 163.268 278.662C155.998 282.577 147.051 281.458 140.9 280.34C130.834 277.544 123.005 272.511 121.886 271.392L128.597 195.339L166.064 194.22L183.4 233.366C188.433 243.991 192.907 257.971 194.584 267.478Z" fill="#0A0A0A"/>
<path d="M160.473 190.306C160.473 190.306 162.709 196.457 162.15 199.813C161.591 203.168 159.913 213.234 150.966 212.675C142.018 212.115 141.459 197.576 145.374 193.102C148.729 188.628 160.473 190.306 160.473 190.306Z" fill="#A85802"/>
<path d="M149.288 212.675C149.847 212.675 150.407 212.675 150.966 212.675C159.913 213.234 161.591 203.728 162.709 200.372V199.813C163.269 196.458 161.032 190.306 161.032 189.747V189.188H160.472C159.913 189.188 148.729 187.51 144.255 191.984C142.018 194.78 141.459 200.372 142.577 204.846C144.255 209.32 146.492 212.116 149.288 212.675ZM159.913 190.866C160.472 192.543 161.591 197.017 161.032 199.254V199.813C159.913 203.728 158.236 211.557 150.407 210.998C145.933 210.998 144.255 206.524 143.696 204.287C142.577 199.813 143.137 194.78 145.374 192.543C148.729 189.747 158.236 190.866 159.913 190.866Z" fill="#0A0A0A"/>
<path d="M79.9447 112.576C82.1815 111.457 90.5698 110.339 101.754 109.22C96.7212 117.049 91.129 128.234 87.2145 143.892C87.2145 143.892 83.3 133.826 76.5893 133.267C69.3195 132.707 63.1681 141.096 67.6419 152.28C67.0826 151.162 66.5234 149.484 65.9642 147.806C62.6089 130.47 68.7603 116.49 79.9447 112.576Z" fill="#7C6F63"/>
<path d="M66.5234 152.279L67.6418 151.72C65.405 146.687 65.9642 141.654 68.201 137.739C69.8787 134.943 72.6748 133.266 76.0301 133.825C82.7407 134.384 86.096 143.891 86.096 144.45L87.2145 146.128L87.7737 143.891C90.5698 131.029 95.6027 119.285 102.313 109.779L102.873 108.66H101.195C94.4843 109.219 82.1815 110.897 79.3854 112.015C67.6418 116.489 62.0497 130.47 64.8457 147.805C65.405 149.483 65.9642 150.601 66.5234 152.279ZM77.7078 132.707C77.1485 132.707 76.5893 132.707 76.5893 132.707C73.234 132.147 69.8787 134.384 67.6418 137.18C67.0826 138.299 66.5234 139.417 65.9642 140.536C65.405 127.114 70.9971 117.048 79.9446 113.134C82.1815 112.575 89.4513 111.456 100.076 110.338C93.9251 119.285 89.4513 129.91 86.6552 141.654C85.5368 138.858 82.1815 133.825 77.7078 132.707Z" fill="#0A0A0A"/>
<path d="M233.73 111.456C233.73 111.456 231.493 124.877 224.223 128.233C224.223 128.233 224.223 115.93 220.309 105.864C229.256 106.982 234.289 108.66 233.73 111.456Z" fill="#7C6F63"/>
<path d="M223.664 129.351L224.782 128.792C232.052 124.878 234.289 112.016 234.289 111.456C234.848 108.101 229.256 106.423 227.578 105.864C225.901 105.305 223.664 104.746 220.868 104.746H219.749L220.309 105.864C224.223 115.93 224.223 128.233 224.223 128.233V129.351H223.664ZM227.578 107.542C231.493 108.66 233.73 109.779 233.171 111.456C233.171 111.456 230.934 123.2 225.342 127.115C225.342 123.759 224.782 114.812 221.986 106.423C223.664 106.983 225.901 107.542 227.578 107.542Z" fill="#0A0A0A"/>
<path d="M76.0303 132.707C83.3001 133.266 86.6554 143.332 86.6554 143.332C90.57 127.674 96.1622 116.49 101.195 108.661C134.189 105.305 194.025 101.95 220.309 105.305C224.223 115.371 224.223 127.674 224.223 127.674C224.223 127.674 227.019 188.629 163.268 198.695C99.5174 209.32 83.8593 154.517 83.8593 154.517C83.8593 154.517 71.5565 161.786 67.0828 151.161C62.6091 141.095 68.7605 132.148 76.0303 132.707Z" fill="#A85802"/>
<path d="M129.716 199.253C139.782 202.049 151.525 202.049 163.828 200.372C227.579 189.747 225.342 129.351 225.342 128.233C225.342 127.673 225.342 115.371 221.427 105.305V104.746H220.868C194.585 101.39 135.308 104.746 101.755 108.101H101.196C95.0442 117.608 90.0112 128.792 87.2151 141.095C85.5375 137.739 82.1822 132.147 76.59 131.588C73.2347 131.029 69.8794 133.266 67.6425 136.062C64.8464 139.976 64.8464 145.568 67.0833 151.161C68.7609 154.516 70.9978 156.194 73.7939 157.312C78.2677 158.43 82.7414 156.194 84.4191 155.634C85.5375 161.786 96.7218 190.865 129.716 199.253ZM220.309 106.423C223.664 115.93 223.664 128.233 223.664 128.233C223.664 128.792 225.901 188.628 163.269 198.694C150.966 200.931 139.782 200.372 129.716 197.576C94.485 188.628 84.9783 155.075 84.4191 154.516V153.957L83.8598 154.516C83.8598 154.516 78.2677 157.871 73.2347 156.753C70.9978 156.194 68.761 154.516 67.6425 151.72C65.4056 146.687 65.9649 141.654 68.2017 137.739C69.8794 134.943 72.6755 133.266 76.0308 133.825C82.7414 134.384 86.0967 143.891 86.0967 144.45L87.2151 146.128L87.7744 143.891C90.5704 131.029 95.6034 119.285 102.314 109.778C135.308 106.423 194.026 103.068 220.309 106.423Z" fill="#0A0A0A"/>
<path d="M227.019 126.555C227.019 126.555 238.203 127.114 238.203 141.095C238.203 155.075 220.868 155.075 221.427 151.161C221.986 147.246 224.782 136.062 224.223 128.233L227.019 126.555Z" fill="#A85802"/>
<path d="M223.105 153.957C225.901 154.516 230.934 153.957 234.289 151.161C237.085 148.924 238.763 145.568 238.763 141.095C238.763 129.91 232.052 126.555 228.697 125.996C227.578 125.996 227.019 125.437 227.019 125.437L223.664 127.673V128.233C224.223 134.943 221.986 143.891 220.868 148.924C220.868 150.042 220.309 150.601 220.309 151.161C220.868 151.72 220.868 153.397 223.105 153.957ZM228.697 127.114C232.052 128.233 237.644 131.029 237.644 141.095C237.644 145.009 236.526 147.805 233.73 150.042C230.374 152.838 225.901 153.397 223.664 152.838C222.545 152.838 221.986 152.279 221.986 151.72C221.986 151.161 221.986 150.601 222.545 149.483C223.664 144.45 225.341 135.502 225.341 128.792L227.578 127.114C227.578 127.114 228.138 127.114 228.697 127.114Z" fill="#0A0A0A"/>
<path d="M185.078 136.061C185.078 139.975 186.197 143.331 188.433 143.89C190.67 143.89 192.348 141.094 192.907 136.62C192.907 132.706 191.789 129.35 189.552 128.791C187.315 128.791 185.078 132.146 185.078 136.061Z" fill="black"/>
<path d="M131.952 132.706C131.952 136.621 133.071 139.976 135.308 140.535C137.544 140.535 139.222 137.739 139.781 133.266C139.781 129.351 138.663 125.996 136.426 125.437C133.63 125.437 131.952 128.792 131.952 132.706Z" fill="black"/>
<path d="M102.873 10.7974C102.873 10.7974 117.412 2.40909 135.867 1.84987C159.354 1.29065 171.656 10.2381 171.656 10.2381V21.9817C171.656 21.9817 171.656 61.127 169.42 95.7985C158.235 96.3577 147.61 100.831 138.663 101.95C128.597 103.068 118.531 102.509 107.906 103.628C103.432 79.5811 103.991 36.5214 102.873 15.8303V10.7974Z" fill="#D1D2D4"/>
<path d="M107.906 104.186H108.465C114.058 103.627 119.65 103.627 124.683 103.068C129.716 103.068 134.749 102.508 139.222 102.508C143.137 101.949 147.611 100.831 152.084 99.7123C157.677 98.0346 163.828 96.357 170.539 96.357H171.098V95.7978C172.776 61.6855 173.335 22.5402 173.335 21.981V9.6782H172.775C172.775 9.6782 167.743 5.76367 157.677 3.5268C150.407 1.28993 143.696 0.730713 135.867 0.730713C117.972 1.28993 102.873 9.6782 102.873 10.2374H102.314V15.2704C102.873 21.981 102.873 30.9285 103.432 39.876C103.992 60.567 104.551 86.2911 107.906 103.627V104.186ZM169.42 94.6793C163.269 94.6793 157.117 96.357 151.525 98.0346C147.051 99.1531 143.137 100.271 139.222 100.831C134.749 101.39 129.716 101.39 124.683 101.39C119.65 101.39 114.058 101.949 109.025 102.508C105.669 85.7318 105.11 60.567 104.551 39.876C104.551 30.3693 103.992 21.981 103.432 15.2704V10.7966C105.669 9.6782 119.091 2.40837 135.867 1.84915C143.137 1.84915 150.407 2.40837 156.558 4.08602C165.506 6.32289 169.979 9.6782 171.098 10.2374V21.4218C171.657 21.981 171.098 61.1262 169.42 94.6793Z" fill="#0A0A0A"/>
<path d="M211.921 43.7914C223.106 57.2126 234.29 78.4629 237.086 96.3579C233.731 95.2394 201.296 94.6802 170.539 95.2394C172.217 61.1272 172.776 18.0674 172.776 18.0674C172.776 18.0674 195.145 23.6596 211.921 43.7914Z" fill="#EC5039"/>
<path d="M169.42 96.3568H169.979C200.177 95.2384 232.052 96.3568 236.526 97.4752H237.645V96.3568C234.848 77.3434 223.105 56.0931 212.48 43.2311C195.703 23.6585 172.775 17.5071 172.775 17.5071H172.216V18.6255C172.216 19.1847 171.657 62.2445 169.979 95.7976L169.42 96.3568ZM235.967 95.2384C229.256 94.1199 199.058 93.5607 170.538 94.1199C172.216 63.3629 172.775 24.7769 172.775 18.6255C176.69 19.744 196.822 26.4546 211.361 43.7903C221.427 56.6523 233.171 76.7842 235.967 95.2384Z" fill="#0A0A0A"/>
<path d="M69.3204 51.0609C85.5377 20.8632 102.873 15.271 102.873 15.271L116.295 100.831C97.8405 103.068 72.1165 114.253 63.169 110.338C63.169 106.983 62.6097 103.627 62.6097 100.272C62.0505 90.2062 59.8137 68.3967 69.3204 51.0609Z" fill="#EC5039"/>
<path d="M64.2869 112.015C69.8791 113.692 80.5042 110.896 91.6886 107.541C100.077 105.304 109.024 103.067 116.853 101.949H117.413V101.39L103.991 14.7109H103.432C102.873 14.7109 85.5372 20.8623 69.3199 50.5009C59.8132 67.8366 61.4908 89.6461 62.6093 100.271V100.83C62.6093 104.186 63.1685 107.541 63.1685 110.896V111.456H63.7277C63.1685 111.456 63.7277 111.456 64.2869 112.015ZM115.735 100.271C107.906 101.39 99.5176 103.627 91.1294 105.863C79.945 108.66 69.8791 111.456 64.2869 110.337H63.7277C63.7277 106.982 63.1685 103.627 63.1685 100.83V100.271C62.05 90.2053 60.3724 68.3959 69.8791 51.6193C83.8595 25.3361 98.9584 18.0662 102.873 16.3886L115.735 100.271Z" fill="#0A0A0A"/>
<path d="M196.821 38.1985L206.887 49.3829C206.887 49.3829 211.92 44.9091 210.802 30.9287C209.683 17.5074 205.21 12.4745 205.21 16.389C204.65 20.8627 196.821 38.1985 196.821 38.1985Z" fill="#D1D2D4"/>
<path d="M206.887 50.5009C207.446 49.9417 212.479 44.9087 211.361 31.4875C210.242 21.9808 208.006 15.2702 206.328 14.7109C205.769 14.7109 205.769 14.7109 205.209 14.7109C204.65 15.2702 204.65 15.8294 204.65 16.3886C204.65 19.1847 198.499 32.6059 196.262 37.6389V38.1981L206.887 50.5009ZM205.769 15.8294C206.328 15.8294 208.565 20.3031 209.683 30.9283C210.802 41.5534 207.446 46.5864 206.328 48.264L196.821 38.1981C197.94 35.402 205.209 20.3031 205.209 16.3886C205.769 16.3886 205.769 15.8294 205.769 15.8294Z" fill="#0A0A0A"/>
<path d="M75.4709 47.1461C75.4709 47.1461 69.3196 63.3634 67.0827 63.9226C64.8458 64.4818 56.4575 37.0802 55.3391 34.2841C53.6615 31.488 72.1156 38.7578 75.4709 47.1461Z" fill="#D1D2D4"/>
<path d="M66.5236 64.4822C69.3197 63.923 73.7934 52.7386 76.0303 47.7057V47.1464C73.2342 39.8766 61.4906 34.2844 57.0169 33.166C55.3392 32.6068 54.78 32.6068 54.2208 33.166C54.2208 33.166 53.6615 33.7252 54.2208 34.2844C54.78 34.8436 55.8984 38.7582 57.0169 42.6727C62.609 57.7716 64.8459 64.4822 66.5236 64.4822ZM74.9118 47.1464C72.1157 54.4163 68.2012 62.2453 67.0828 62.8045C65.4051 61.6861 61.4906 48.8241 58.6945 42.1135C57.5761 38.199 56.4576 35.4029 55.8984 34.2844C55.8984 34.2844 56.4576 34.2844 57.0169 34.2844C61.4906 35.9621 72.1157 41.5543 74.9118 47.1464Z" fill="#0A0A0A"/>
<path d="M144.814 96.9171C178.926 93.5618 232.052 95.2394 236.525 96.3578C238.762 112.016 233.729 110.898 233.729 110.898C233.729 110.898 119.649 117.608 93.9248 122.641C79.3851 125.437 65.9639 127.674 64.8454 125.996C63.727 124.878 63.727 118.167 63.1678 110.898C63.1678 110.898 117.971 99.1539 144.814 96.9171Z" fill="#634366"/>
<path d="M65.4052 126.555C68.2013 127.115 77.708 125.996 93.9254 123.2C119.649 118.167 232.611 111.457 233.73 111.457C234.289 111.457 235.407 111.457 235.967 110.338C237.644 108.101 238.204 103.627 237.085 95.7984V95.2392H236.526C230.934 93.5615 178.926 91.8839 144.255 95.2392C117.412 98.0353 63.1684 109.22 62.6091 109.22H62.0499V110.338C62.6092 118.726 62.6091 123.759 63.7276 124.878C64.846 126.555 64.846 126.555 65.4052 126.555ZM236.526 96.9168C237.644 105.864 236.526 108.66 235.407 109.779C234.848 110.338 234.289 110.338 234.289 110.338C233.171 110.338 120.209 117.049 94.4846 122.082C78.2673 125.437 69.3198 126.555 66.5237 125.437C65.9645 125.437 65.9645 125.437 65.9645 125.437C65.4052 124.319 64.846 117.608 64.2868 111.457C69.879 110.338 120.209 99.7129 145.373 97.4761C178.367 94.1208 229.815 95.7984 236.526 96.9168Z" fill="#0A0A0A"/>
<path d="M36.8846 199.812C35.7661 209.319 27.3779 218.825 13.3974 213.233C-0.583031 207.641 -1.14224 189.187 1.65385 182.476C4.44994 176.325 13.3974 171.292 24.0226 176.325C34.6477 181.917 38.003 191.424 36.8846 199.812Z" fill="#A85802"/>
<path d="M16.1935 214.911C21.7856 216.029 26.8186 215.47 30.7331 212.674C34.6476 209.878 36.8845 205.404 38.003 199.812C39.1214 191.983 36.3253 181.358 25.1409 175.766C23.4633 175.206 22.3448 174.647 20.6672 174.088C11.7197 171.851 4.44989 176.325 1.6538 181.917C-0.0238533 186.391 -0.58308 194.22 2.21301 201.49C4.44988 207.082 8.3644 211.556 13.9566 213.233C13.9566 214.352 15.075 214.352 16.1935 214.911ZM19.5488 175.766C21.2264 176.325 22.3449 176.884 24.0225 177.443C37.4437 184.154 36.8845 196.457 36.3253 199.812C35.7661 204.845 33.5292 208.76 29.6147 211.556C26.2594 214.352 21.2264 214.911 16.1935 213.792C15.075 213.792 14.5158 213.233 13.3974 212.674C8.3644 210.996 5.00909 207.082 2.77222 201.49C-0.0238724 194.22 0.535355 186.391 2.21301 183.035C4.44988 177.443 11.1605 173.529 19.5488 175.766Z" fill="#0A0A0A"/>
<path d="M1.65451 175.205L41.9182 182.475L43.0366 172.968L3.33216 165.698L1.65451 175.205Z" fill="#ABB7B5"/>
<path d="M1.09526 175.765L42.4774 183.035L44.155 171.85L2.7729 164.58L1.09526 175.765ZM41.3589 181.916L2.2137 175.205L3.33213 166.817L42.4774 173.528L41.3589 181.916Z" fill="#0A0A0A"/>
<path d="M49.7473 69.5149L30.7339 170.733L24.5825 169.615L36.3261 88.5283L49.7473 69.5149Z" fill="#C2BFB0"/>
<path d="M24.0235 170.174L31.2933 171.292L50.866 69.5143L49.7475 68.9551L35.7671 87.9685L24.0235 170.174ZM30.1749 169.614L25.7012 169.055L36.8855 89.0869L48.6291 72.3104L30.1749 169.614Z" fill="#0A0A0A"/>
<path d="M49.7473 69.5135L36.3261 88.5269L25.1417 67.8359L39.6814 46.0264L49.7473 69.5135Z" fill="#EEEADE"/>
<path d="M36.3263 90.2048L50.866 70.073L40.2408 44.9082L24.5827 68.3954L36.3263 90.2048ZM49.1883 69.5138L36.3263 87.4088L25.7012 67.8361L39.6816 47.1451L49.1883 69.5138Z" fill="#0A0A0A"/>
<path d="M24.5826 169.615L17.3128 167.937L25.1418 67.8369L36.3262 88.528L24.5826 169.615Z" fill="#DCD7C8"/>
<path d="M16.7536 169.055L25.1419 170.732V170.173L36.8855 89.0866L24.5827 66.1587L16.7536 169.055ZM24.0235 168.496L17.8721 167.377L25.1419 70.0732L35.7671 89.0866L24.0235 168.496Z" fill="#0A0A0A"/>
<path d="M10.6021 212.115L21.7865 213.233L28.4971 180.24L15.6351 178.003L10.6021 212.115Z" fill="#7E848E"/>
<path d="M10.0429 212.673L22.3456 213.792L29.6155 179.679L15.635 177.442L10.0429 212.673ZM21.2272 212.114L11.7205 210.995L16.7535 178.002L27.9378 180.238L21.2272 212.114Z" fill="#0A0A0A"/>
<path d="M30.7336 203.727L31.852 203.167C31.852 203.167 26.2599 193.101 27.3783 188.068C27.3783 186.95 27.9375 186.95 28.4967 186.95C30.1744 186.391 34.0889 189.746 35.7666 191.983L36.885 190.865C36.3258 190.305 31.2928 184.713 28.4967 185.272C27.9375 185.272 26.8191 185.832 26.8191 187.509C24.5822 193.101 30.7336 203.167 30.7336 203.727Z" fill="#0A0A0A"/>
<g opacity="0.72">
<path d="M144.814 282.577C144.814 282.577 115.735 297.117 138.104 316.13C138.104 316.13 126.919 314.452 120.768 308.301L125.242 275.307C125.242 275.307 134.189 280.899 144.814 282.577Z" fill="#C04396"/>
</g>
<g opacity="0.5">
<path d="M116.294 118.726C116.294 118.726 70.4384 200.372 171.098 198.135C171.098 198.135 137.545 205.405 115.176 192.543C92.8072 179.122 84.9781 154.516 84.9781 154.516C84.9781 154.516 68.7608 164.023 67.0831 147.246C65.4055 130.47 78.8267 132.147 81.6228 135.503C84.4189 138.858 87.215 146.128 87.215 146.128C87.215 146.128 92.2479 127.114 95.6032 121.522L116.294 118.726Z" fill="#D76B2A"/>
</g>
</svg>
