<svg width="268" height="382" viewBox="0 0 268 382" fill="none" xmlns="http://www.w3.org/2000/svg">
<path d="M97.8122 322.318C97.8122 322.318 97.8122 317.936 97.8122 315.989C98.2991 315.989 99.2728 315.989 99.7597 316.475C105.602 317.449 118.748 320.371 132.868 314.528C150.396 307.225 157.212 284.828 158.673 280.446L156.725 279.472C155.752 283.854 148.935 305.277 131.894 312.093C118.261 317.936 105.602 315.015 100.247 314.041C97.8122 313.554 96.8385 313.554 96.3516 314.041L95.8647 314.528V315.015C95.8647 316.475 95.8647 322.318 95.8647 322.318H97.8122Z" fill="#0A0A0A"/>
<path d="M155.265 376.362H157.212C157.212 376.362 155.752 357.373 151.857 323.291C147.962 288.722 134.816 278.985 134.329 278.498L133.355 279.958C133.355 279.958 146.014 289.696 150.396 323.291C153.804 357.373 155.265 376.362 155.265 376.362Z" fill="#0A0A0A"/>
<path d="M96.838 314.527C91.9691 314.04 91.4823 338.872 96.838 341.793C102.194 345.201 103.167 315.501 96.838 314.527Z" fill="#FBB914"/>
<path d="M97.8114 342.766C101.22 342.766 101.706 334.003 102.193 331.568C102.68 324.752 101.706 314.527 97.3245 314.527C95.8638 314.527 94.4032 315.988 93.9163 318.909C91.9688 326.212 92.9425 340.332 97.3245 342.766C96.8376 342.766 97.3245 342.766 97.8114 342.766ZM96.8377 315.014C99.759 315.501 101.22 323.778 100.733 331.081C100.246 337.898 98.7851 341.306 97.3245 341.306H96.8377C93.4295 339.358 92.4557 326.212 93.9163 318.909C94.8901 316.475 95.8639 315.014 96.8377 315.014Z" fill="#0A0A0A"/>
<path d="M160.621 380.745C161.108 380.745 162.082 380.258 162.568 380.258C161.595 380.258 161.108 380.745 160.621 380.745Z" fill="#894BA0"/>
<path d="M162.568 380.258V379.283V379.771V379.283V380.258L162.081 379.283L162.568 379.771L162.081 379.283L162.568 380.258Z" fill="#0A0A0A"/>
<path d="M172.307 358.835C178.636 351.045 184.966 347.15 185.453 349.584C185.453 354.94 172.793 375.389 163.056 379.771C162.569 380.258 161.595 380.258 161.108 380.258C155.753 381.232 166.464 366.138 172.307 358.835Z" fill="#F4CF73"/>
<path d="M160.134 381.231C160.621 381.231 160.621 381.231 160.134 381.231C161.108 381.231 161.595 380.745 162.569 380.745C172.793 376.363 185.452 355.913 185.452 350.071C185.452 349.097 184.966 348.61 183.992 348.61C181.557 348.61 176.688 352.505 171.333 358.835C165.977 365.651 157.213 377.823 158.674 380.258C159.161 380.745 159.648 381.231 160.134 381.231ZM183.992 349.584C184.479 349.584 184.479 349.584 183.992 349.584C184.479 355.427 171.82 375.389 162.082 379.284C161.595 379.771 160.621 379.771 160.134 379.771C159.648 379.771 159.648 379.771 159.648 379.771C158.674 378.31 164.03 370.033 172.307 359.322C177.662 352.992 182.531 349.584 183.992 349.584Z" fill="#0A0A0A"/>
<path d="M165.003 359.809C170.846 354.453 183.505 344.715 184.965 349.097C184.965 349.097 184.965 349.584 184.965 350.071C184.965 347.15 178.149 351.532 171.82 359.322C165.977 366.625 155.266 381.232 160.134 380.745C159.161 380.745 158.674 380.745 157.7 380.745C147.962 379.284 159.648 364.677 165.003 359.809Z" fill="#FBB914"/>
<path d="M159.16 381.231C159.647 381.231 160.134 381.231 160.621 381.231V380.257C160.134 380.257 160.134 380.257 160.134 380.257C159.16 378.797 164.516 370.52 172.793 359.808C177.662 353.479 183.018 350.071 184.478 350.071C184.965 350.071 184.965 350.071 184.965 350.557H185.939C185.939 350.071 185.939 349.584 185.939 349.584C185.452 349.097 184.965 348.123 183.505 348.123C179.123 348.123 168.898 356.4 165.003 360.295C161.595 363.216 152.831 373.441 154.291 378.797C154.778 380.257 156.239 381.718 158.673 381.718C158.673 381.231 158.673 381.231 159.16 381.231ZM183.505 348.61C181.07 349.097 176.201 352.992 171.819 358.835C166.464 365.651 157.7 377.336 159.16 380.257H158.673C156.726 379.771 155.265 379.284 155.265 377.823C153.805 373.928 160.621 365.164 165.49 360.295C170.359 355.426 179.123 348.61 183.505 348.61Z" fill="#0A0A0A"/>
<path d="M89.5359 238.087C94.4047 250.746 105.603 263.892 126.052 271.195C153.805 280.933 178.636 269.248 184.479 261.945C183.992 271.195 182.531 274.604 182.531 274.604C182.531 274.604 154.292 298.461 116.801 281.42C79.3112 264.379 87.1015 243.443 87.1015 243.443C88.0752 241.495 88.5621 240.035 89.5359 238.087Z" fill="#EE8A21"/>
<path d="M144.554 288.236C167.437 288.236 183.018 275.577 183.504 275.09C183.504 275.09 184.965 271.195 185.452 261.945V260.484L184.478 261.458C180.096 266.813 165.977 274.117 147.962 274.117C140.659 274.117 133.355 272.656 126.539 270.222C109.011 263.892 95.865 252.207 90.0224 237.6L89.5356 236.626L89.0487 237.6C88.0749 239.548 87.1011 241.495 86.6143 242.956C86.6143 242.956 84.6667 248.312 87.1012 255.615C89.5356 262.431 96.8389 272.656 116.314 281.42C125.565 285.802 134.816 288.236 144.554 288.236ZM182.531 274.604C181.07 275.577 165.977 287.263 144.554 287.263C135.303 287.263 126.052 285.315 117.288 281.42C80.7716 264.866 87.5879 244.417 87.5879 243.93C88.0748 242.469 88.5618 241.008 89.5356 239.548C95.3782 254.154 108.524 265.84 126.052 271.682C132.868 274.117 140.659 275.577 147.962 275.577C165.003 275.577 179.122 268.761 184.478 263.405C183.504 270.708 182.531 273.63 182.531 274.604Z" fill="#0A0A0A"/>
<path d="M128 257.076C108.524 250.259 98.2996 240.522 93.9176 229.81C94.8914 227.863 95.8652 226.402 96.3521 224.455C99.2734 217.638 101.708 210.822 104.142 204.005C108.037 193.294 111.932 183.069 113.88 171.871C114.854 166.515 115.34 160.673 114.367 154.83C111.445 141.684 161.595 159.699 161.595 159.699C161.595 159.699 175.228 175.766 182.044 218.125C183.991 231.758 184.965 242.469 184.965 250.746C179.122 258.537 155.752 267.3 128 257.076Z" fill="#EE8A21"/>
<path d="M153.317 262.432C168.898 262.432 181.07 257.076 185.452 251.72C185.452 242.469 183.991 231.271 182.044 219.099C175.714 177.227 161.595 160.186 161.595 160.186C161.108 160.186 134.329 150.448 121.183 150.448C117.775 150.448 115.34 150.935 114.367 152.396C113.88 153.369 113.393 154.343 113.88 155.804C114.854 160.673 114.854 166.028 113.393 172.358C111.445 181.609 108.524 190.373 105.116 199.137C104.629 201.084 103.655 202.545 103.168 204.492C100.734 211.796 98.2994 218.612 95.3781 224.941C94.4044 226.889 93.4306 228.837 92.9437 230.297C98.2994 242.469 109.498 251.233 127.513 258.05C136.277 260.971 144.554 262.432 153.317 262.432ZM184.478 251.233C180.096 256.102 168.411 261.458 153.317 261.458C145.04 261.458 136.277 259.997 127.999 257.076C110.472 250.746 99.2733 241.982 93.9175 230.297C94.4044 228.837 95.3782 227.376 96.352 225.428C99.2733 219.099 101.708 212.282 104.142 204.979C104.629 203.032 105.603 201.571 106.09 199.623C109.011 190.86 112.419 182.096 114.367 172.845C115.827 166.515 115.827 160.673 114.367 155.804C114.367 154.83 114.367 153.856 114.854 153.369C115.827 152.396 117.775 151.909 120.696 151.909C133.355 151.909 158.673 160.673 160.621 161.646C161.594 163.107 174.254 180.148 180.583 220.073C183.017 231.271 184.478 241.982 184.478 251.233Z" fill="#0A0A0A"/>
<path d="M126.052 271.196C105.603 263.892 94.4048 250.747 89.5359 238.087C90.9966 235.166 92.4572 232.732 93.4309 230.297C97.8129 241.009 108.037 250.747 127.513 257.563C155.265 267.301 178.636 259.024 184.479 251.72C184.479 255.615 184.479 259.024 184.479 261.945C178.636 269.248 153.805 280.933 126.052 271.196Z" fill="#53380F"/>
<path d="M147.962 275.577C165.977 275.577 180.583 267.787 185.452 262.431V261.945C185.452 259.023 185.452 255.128 185.452 251.72V250.259L184.478 251.233C180.583 256.102 168.411 261.458 153.317 261.458C145.04 261.458 136.277 259.997 127.999 257.076C110.472 250.746 99.2733 241.982 93.9175 229.81L93.4306 228.836L92.9437 229.81C92.4568 230.784 91.97 231.758 91.4831 232.245C90.5093 234.192 89.5355 235.653 88.5618 237.6C94.4044 252.694 107.55 264.379 125.565 271.195C132.868 274.117 140.659 275.577 147.962 275.577ZM184.478 261.945C180.096 267.3 165.49 274.604 147.962 274.604C140.659 274.604 133.355 273.143 126.539 270.709C109.011 264.379 95.865 252.694 90.0224 238.087C90.9961 236.14 91.9699 234.679 92.4568 232.732C92.9437 232.245 92.9437 231.758 93.4306 230.784C98.7863 242.469 109.985 251.233 127.513 257.563C135.79 260.484 144.554 261.945 152.831 261.945C167.437 261.945 179.122 257.076 183.991 252.207C184.478 256.102 184.478 259.023 184.478 261.945Z" fill="#0A0A0A"/>
<path d="M236.575 178.2C244.365 178.2 249.234 177.713 249.234 177.713L248.747 175.765C248.26 175.765 209.309 181.608 165.976 159.698H165.49L125.078 156.777H124.591C124.104 156.777 98.2994 172.357 19.9109 164.08V166.028C95.865 173.818 122.644 160.185 125.565 158.724L165.49 161.646C194.216 175.765 220.995 178.2 236.575 178.2Z" fill="#0A0A0A"/>
<path d="M2.86937 167.488C5.3038 167.488 12.1202 166.515 12.1202 166.515C12.1202 166.515 8.22511 165.541 5.3038 164.08C2.38249 162.62 1.89569 160.672 4.33012 160.672C6.76454 160.672 13.5809 163.106 13.5809 163.106L10.6596 160.185C6.76448 155.316 7.73822 153.369 10.1727 155.803C12.6071 157.751 16.5022 161.159 16.5022 161.159C16.5022 161.159 12.6072 154.829 14.0678 152.882C15.5285 150.934 16.9891 155.316 18.9367 157.751C19.9104 158.724 20.3973 159.211 21.3711 159.698C22.3449 160.672 24.2924 162.133 22.8317 165.541C22.8317 165.541 22.8317 165.541 22.8317 166.028C22.3448 167.001 21.3711 167.975 20.8842 169.436C18.4498 174.305 15.0416 178.687 14.0678 177.226C13.0941 175.279 15.0416 172.357 14.0678 170.897C13.5809 169.436 8.71197 170.897 4.81688 170.897C0.921801 170.41 0.434946 167.488 2.86937 167.488Z" fill="#F9D8B7"/>
<path d="M14.5548 177.713C16.9893 177.713 20.3975 170.897 20.8844 169.436C21.3713 168.462 22.3451 167.002 22.8319 166.028V165.541C24.2926 161.646 22.3451 159.698 21.3713 158.725C20.3976 158.238 19.9107 157.751 18.9369 156.777C18.45 155.803 17.4761 154.83 16.9893 153.856C16.0155 152.395 15.0418 150.935 14.0681 150.935C13.5812 150.935 13.0942 150.935 13.0942 151.421C12.1205 152.882 13.0943 155.803 14.0681 157.751C12.6074 156.777 10.6598 155.316 9.68598 153.856C8.22532 152.882 7.25167 152.882 6.76479 153.369C6.2779 154.343 7.25167 156.29 9.19921 159.212L10.6598 160.672C8.22538 159.699 4.81719 158.725 3.35653 158.725C1.89588 158.725 1.40902 159.699 1.40902 159.699C1.40902 160.672 2.38282 162.133 4.33036 163.107C5.79102 163.594 7.73856 164.567 9.19921 165.054C7.25167 165.054 4.33024 165.541 2.3827 165.541C0.922045 165.541 0.43519 166.515 0.43519 167.489C0.43519 168.949 1.89593 169.923 4.33036 169.923C5.79102 169.923 7.25164 169.923 8.7123 169.436C10.6598 168.949 12.6074 168.949 13.0942 169.436C13.0942 169.923 13.0942 170.897 13.0942 171.871C12.6074 173.331 12.6074 174.792 13.0942 175.766C13.5811 177.713 14.0679 177.713 14.5548 177.713ZM14.5548 152.882C15.0417 152.882 16.0156 154.343 16.5025 155.317C16.9894 156.29 17.4762 157.264 18.45 158.238C19.4238 159.212 19.9107 159.698 20.8844 160.185C21.8582 161.159 23.3188 162.62 22.345 165.541C22.345 165.541 22.345 165.541 22.345 166.028C21.8581 167.002 20.8844 167.976 20.3975 169.436C17.9631 174.305 15.5286 177.226 14.5548 177.226C14.0679 176.253 14.5548 175.279 14.5548 173.818C15.0417 172.844 15.0417 171.871 14.5548 170.897C14.0679 169.923 13.0942 169.923 12.6073 169.923C11.6336 169.923 10.6598 169.923 9.68598 170.41C8.22532 170.41 6.7647 170.897 5.30404 170.897C3.3565 170.897 2.3827 169.923 2.3827 169.436C2.3827 168.949 2.86965 168.949 3.35653 168.949C5.79096 168.949 12.1204 167.976 12.6073 167.976V167.002C12.6073 167.002 8.71227 166.028 5.79096 164.567C4.3303 163.594 3.35653 162.62 3.35653 162.62C3.35653 162.62 3.84348 162.133 4.33036 162.133C6.76479 162.133 13.0943 164.567 13.5812 164.567L14.0681 163.594L11.1467 160.672C8.7123 157.751 8.7123 156.29 8.7123 156.29C9.19918 156.29 9.19909 156.29 9.68598 156.777C12.1204 158.725 16.0156 162.133 16.5025 162.133L17.4762 161.646C15.0417 157.751 13.0942 153.856 14.5548 152.882Z" fill="#0A0A0A"/>
<path d="M244.852 174.305C245.826 173.818 246.799 172.845 247.286 171.384C248.26 168.463 248.26 163.594 250.208 165.054C252.155 166.515 250.694 173.331 250.694 173.331C250.694 173.331 253.616 168.949 255.077 166.028C256.537 163.594 258.485 164.568 256.05 170.41L254.59 174.305C254.59 174.305 260.432 169.923 262.38 168.95C264.327 167.976 264.814 170.41 262.38 172.358C259.945 174.792 256.537 176.74 256.537 176.74C256.537 176.74 262.867 175.279 265.301 174.792C267.735 174.305 268.222 177.227 264.327 178.687C260.919 179.661 256.05 180.148 255.563 181.609C255.563 183.069 257.998 185.504 257.998 187.451C257.511 189.399 253.129 186.477 249.234 182.582C247.773 181.122 246.8 180.148 245.339 179.661V179.174C242.904 177.227 244.365 175.279 244.852 174.305Z" fill="#F9D8B7"/>
<path d="M257.024 188.912C257.511 188.912 257.997 188.425 258.484 187.938C258.971 186.477 257.997 185.503 257.024 184.043C256.537 183.069 256.05 182.582 256.05 182.095C256.05 181.608 258.484 181.121 259.945 180.634C261.406 180.148 262.866 180.148 264.327 179.661C266.761 178.687 267.735 177.226 267.248 176.253C267.248 175.279 266.275 174.792 264.814 174.792C263.353 175.279 260.432 175.766 258.484 176.253C259.458 175.279 260.919 174.305 262.379 172.844C263.84 171.384 264.327 169.923 264.327 168.949C263.84 167.976 263.353 167.975 261.893 168.462C260.432 168.949 257.51 171.384 255.563 172.357L256.537 170.41C257.511 167.489 257.997 165.541 257.511 164.567C257.024 163.594 255.563 164.08 254.589 165.541C253.615 167.002 252.642 168.949 251.668 170.41C252.155 167.976 252.155 165.054 250.694 164.08C250.207 164.08 250.207 163.594 249.72 163.594C248.26 163.594 248.26 165.054 247.773 167.489C247.773 168.462 247.286 169.923 246.799 170.897C246.312 171.871 245.825 172.844 244.852 173.818C244.365 174.305 242.904 176.739 245.338 179.661C246.799 180.635 247.773 181.608 248.747 182.582C251.668 185.99 255.076 188.912 257.024 188.912ZM265.788 175.766C266.274 175.766 266.274 175.766 266.274 176.253C266.274 176.739 265.788 178.2 263.84 178.687C262.379 179.174 260.919 179.174 259.945 179.661C257.511 180.148 255.076 180.635 255.076 182.095C255.076 183.069 255.563 184.043 256.05 185.017C256.537 185.99 257.511 186.964 257.024 187.938C257.024 187.938 257.024 188.425 256.537 188.425C255.076 188.425 252.155 185.99 248.747 183.069C247.773 182.095 246.312 181.121 244.852 180.148C244.852 180.148 244.851 179.661 244.365 179.661C242.417 177.713 243.391 176.253 243.878 175.279C244.851 174.305 245.825 173.331 246.312 171.871C246.799 170.897 246.799 169.436 247.286 168.462C247.286 167.002 247.773 165.541 248.26 165.541C248.26 165.541 248.26 165.541 248.747 165.541C249.72 166.028 249.72 170.41 248.747 173.331L249.72 173.818C249.72 173.818 252.642 169.436 254.102 166.515C254.589 165.541 255.076 165.541 255.076 165.541C255.076 165.541 255.563 167.002 254.102 170.897L252.642 174.792L253.615 175.279C253.615 175.279 258.971 170.897 261.406 169.923C261.892 169.436 262.379 169.923 262.379 169.923C262.379 170.41 262.379 171.384 260.919 172.357C258.484 174.792 255.076 176.739 255.076 176.739L255.563 177.713C256.537 177.713 262.866 176.253 265.788 175.766Z" fill="#0A0A0A"/>
<g opacity="0.71">
<path d="M166.464 167.976C166.464 167.976 150.883 180.148 137.25 173.818C123.618 167.489 144.554 214.717 120.696 227.863C96.8389 241.008 100.247 281.907 135.303 287.263C135.303 287.263 88.075 278.985 86.1274 247.338C86.1274 247.338 87.5881 239.548 96.352 223.481C105.116 207.413 115.341 172.844 113.88 157.264L162.568 162.133C163.542 162.133 165.977 167.002 166.464 167.976Z" fill="#EE8A21"/>
</g>
<path d="M169.384 148.013C169.384 148.013 176.687 162.62 161.594 167.976C146.501 173.331 116.314 167.489 113.879 158.238C111.445 148.987 113.879 136.815 121.669 138.276C129.46 139.736 169.384 148.013 169.384 148.013Z" fill="#FBB914"/>
<path d="M147.961 170.41C153.317 170.41 158.186 169.923 162.081 168.462C166.463 167.002 169.871 164.08 170.845 160.672C173.279 154.343 169.871 148.013 169.871 147.526C169.384 147.526 129.46 139.736 122.156 137.789C119.722 137.302 117.774 138.276 115.827 140.223C112.905 144.118 111.932 151.908 113.879 158.238C115.827 165.541 133.355 170.41 147.961 170.41ZM169.384 148.5C169.871 149.474 172.305 155.316 170.358 160.672C168.897 164.08 166.463 166.515 162.081 167.975C158.186 169.436 153.804 169.923 147.961 169.923C133.842 169.923 116.8 165.054 114.853 158.725C112.905 152.395 113.879 145.092 116.8 141.197C118.261 139.249 119.722 138.762 122.156 139.249C128.973 140.223 165.976 147.526 169.384 148.5Z" fill="#0A0A0A"/>
<path d="M136.763 148.013C136.763 148.013 141.632 158.238 144.553 178.687C147.961 199.136 146.014 217.151 146.014 217.151C146.014 217.151 130.92 218.125 129.947 217.151C128.973 216.177 126.052 157.751 118.748 146.066C119.235 146.066 130.92 139.249 136.763 148.013Z" fill="#FBB914"/>
<path d="M134.816 218.125C139.685 218.125 146.014 217.638 146.014 217.638H146.501V217.151C146.501 217.151 147.962 199.136 144.553 178.687C141.632 158.238 136.763 148.013 136.763 148.013C134.816 145.092 131.894 143.144 127.999 143.144C123.131 143.144 118.749 145.579 118.749 146.066L118.262 146.552L118.749 147.039C124.104 155.316 127.026 188.425 128.486 206.439C129.46 216.664 129.46 217.638 129.947 218.125C130.434 217.638 130.921 218.125 134.816 218.125ZM145.527 216.664C144.067 216.664 138.711 217.151 134.816 217.151C131.408 217.151 130.921 216.664 130.434 216.664C130.434 216.177 129.947 211.308 129.46 205.466C127.999 187.938 125.078 155.316 119.722 146.066C120.696 145.579 124.591 143.631 128.486 143.631C131.895 143.631 134.816 145.092 136.276 148.013C136.276 148.013 140.658 158.238 144.067 178.687C146.988 197.189 146.014 213.743 145.527 216.664Z" fill="#0A0A0A"/>
<path d="M114.853 144.604C114.853 144.118 114.853 143.631 114.853 143.631L112.906 143.144C112.906 143.631 112.906 143.631 112.906 144.118L114.853 144.604Z" fill="#4FBDAC"/>
<path d="M198.111 62.3209L198.598 60.3733C196.163 59.3995 194.216 58.9127 191.781 58.4258L191.294 60.3733C192.755 60.8602 194.702 61.3471 198.111 62.3209Z" fill="#4FBDAC"/>
<path d="M209.795 103.219C210.282 94.4546 209.308 87.6383 207.847 81.7957C208.821 86.1776 218.072 114.904 234.626 112.469C234.626 112.469 230.731 129.997 210.769 139.735C198.11 145.578 186.424 146.551 176.687 145.091C195.188 136.814 209.308 120.746 209.795 103.219Z" fill="#825529"/>
<path d="M185.451 146.551C194.215 146.551 202.979 144.604 211.256 140.709C231.218 130.971 235.113 113.443 235.113 112.956V112.469H234.626C218.072 114.904 209.308 85.2039 208.334 81.7957L207.361 82.2825C209.308 88.612 209.795 95.4284 209.308 103.219C208.821 119.286 195.675 135.84 176.687 145.091L175.226 145.578L176.687 146.064C179.608 146.551 182.529 146.551 185.451 146.551ZM233.652 113.443C232.679 116.851 227.81 131.458 210.282 139.735C202.005 143.63 193.728 145.578 184.964 145.578C182.529 145.578 180.095 145.578 177.66 145.091C196.649 135.84 208.821 119.286 209.795 103.219C209.795 98.3497 209.795 93.9677 209.308 89.5858C213.69 99.3235 221.48 114.417 233.652 113.443Z" fill="#0A0A0A"/>
<path d="M99.272 76.44C129.459 52.0957 182.529 58.4252 191.78 59.8859C191.78 59.8859 202.492 64.7547 207.36 81.7957V82.2826C208.821 88.1252 209.795 94.9416 209.308 103.706C208.334 121.233 194.701 136.814 176.2 145.578C157.211 154.342 133.841 155.802 113.879 143.63C115.339 139.248 119.721 135.353 119.721 135.353C97.3243 125.615 99.272 76.44 99.272 76.44Z" fill="#F9D8B7"/>
<path d="M146.5 152.881C156.725 152.881 167.436 150.446 177.174 146.064C196.649 136.814 209.795 120.26 210.769 103.705C211.256 95.9153 210.282 88.612 208.821 82.2825V81.7957C203.952 64.7547 193.241 59.8858 192.754 59.3989H192.267C188.372 58.912 179.121 57.9382 166.949 57.9382C146.5 57.9382 118.747 61.3464 99.7589 76.4399C99.7589 78.3874 98.2983 125.128 119.721 135.353C118.747 136.814 115.826 139.735 114.365 143.63V144.117H114.852C123.616 149.96 134.815 152.881 146.5 152.881ZM207.361 81.7957C209.308 88.1252 209.795 95.4284 209.795 103.219C209.308 119.286 196.162 135.84 177.174 145.091C167.436 149.473 157.211 151.907 146.987 151.907C135.788 151.907 125.077 148.986 115.339 143.143C116.8 139.248 120.695 135.353 120.695 135.353L121.182 134.866L120.695 134.379C99.759 125.615 100.246 79.8481 100.733 76.4399C119.234 61.3464 146.987 58.4251 166.949 58.4251C178.634 58.4251 187.885 59.3989 191.78 59.8858H192.267C191.78 59.8858 202.492 65.2416 207.361 81.7957Z" fill="#0A0A0A"/>
<path d="M71.5206 115.391C70.5468 90.5603 66.6517 37.9767 98.7862 37.4898C130.921 37.003 165.003 35.0554 165.003 35.0554C165.003 35.0554 190.321 37.4898 204.927 62.8079C204.927 62.8079 201.519 61.8341 198.111 60.8604C196.163 59.8866 193.729 59.3997 191.781 58.9128C182.53 57.939 129.46 51.6095 99.2731 75.4669C99.2731 75.4669 97.3255 124.642 119.722 134.38C119.722 134.38 115.827 138.275 113.88 142.657V143.144C112.906 146.065 109.498 155.803 95.8648 156.777C79.7976 158.237 65.6779 153.369 61.296 142.17C61.7828 143.631 72.4944 140.223 71.5206 115.391Z" fill="#825529"/>
<path d="M90.996 158.724C92.4567 158.724 94.4042 158.724 95.8649 158.724C109.498 157.75 113.393 147.526 114.366 144.604C114.366 144.117 114.366 144.117 114.366 144.117C115.827 139.735 119.722 135.84 119.722 135.84L120.209 135.353L119.722 134.867C98.7861 126.103 99.273 80.3354 99.7599 76.9272C118.262 61.8338 146.014 58.9124 165.976 58.9124C177.662 58.9124 186.912 59.8862 190.808 60.3731H191.294C193.242 60.3731 195.189 61.3469 197.624 62.3207C201.032 63.2945 204.44 64.2682 204.44 64.2682L205.414 64.7551L204.927 63.7813C190.321 38.4632 165.003 35.542 164.516 35.542C164.029 35.542 129.46 37.4895 98.2993 37.9764C91.4829 37.9764 86.1272 40.4108 81.7452 44.7928C68.1124 59.3993 69.573 92.5075 70.5468 112.47V115.878C71.5205 140.222 61.296 143.631 61.296 143.631H60.8091V144.117C64.7041 153.368 75.9026 158.724 90.996 158.724ZM119.235 135.353C118.262 136.814 115.34 139.735 113.88 143.631C113.88 144.117 113.88 144.117 113.88 144.604C112.906 147.526 109.498 156.776 96.3518 158.237C94.8911 158.237 92.9436 158.237 91.4829 158.237C76.8764 158.237 66.1649 153.368 62.7567 144.117C64.7043 143.144 73.4682 137.788 72.4944 115.878V112.47C71.5207 92.5075 70.06 59.3994 83.6927 45.2797C87.5878 40.8977 92.9436 38.4633 99.2731 38.4633C130.921 37.9764 165.489 36.0288 165.489 36.0288C165.489 36.0288 189.834 38.9501 204.44 62.8075C202.98 62.3206 201.032 61.8337 198.598 61.3469C196.163 60.3731 194.216 59.8862 192.268 59.3993H191.781C187.886 58.9125 178.635 57.9387 166.463 57.9387C146.014 57.9387 118.262 61.3469 99.2731 76.4403C98.7862 78.3879 97.3255 125.129 119.235 135.353Z" fill="#0A0A0A"/>
<path d="M185.939 58.9129C185.939 53.0702 176.201 44.7932 175.714 44.7932L175.228 45.767C175.228 45.767 184.965 53.5571 184.965 59.3998L185.939 58.9129Z" fill="#0A0A0A"/>
<path d="M155.265 58.426C155.752 51.6096 146.988 44.7932 146.988 44.7932L146.501 45.767C146.501 45.767 155.265 52.5833 154.778 58.9129L155.265 58.426Z" fill="#0A0A0A"/>
<path d="M115.827 66.7028L116.801 66.2158C113.393 61.8339 112.419 50.6356 112.419 50.1487H111.445C111.445 50.6356 112.419 61.8339 115.827 66.7028Z" fill="#0A0A0A"/>
<path d="M111.446 64.2686L111.933 63.7817C109.011 60.8604 109.498 55.0178 109.498 55.0178H108.525C108.525 55.0178 108.038 61.3473 111.446 64.2686Z" fill="#0A0A0A"/>
<path d="M99.7601 76.4406C99.7601 73.0324 99.7601 70.1111 99.7601 70.1111H98.7865C98.7865 70.1111 98.7865 73.0324 98.7865 76.4406H99.7601Z" fill="#0A0A0A"/>
<path d="M113.88 144.605L114.367 143.631C102.682 136.814 98.2997 118.313 98.2997 118.313H97.3258C97.3258 119.287 101.708 137.301 113.88 144.605Z" fill="#0A0A0A"/>
<path d="M111.446 149.474L111.933 148.5C104.629 146.066 99.7605 136.815 99.7605 136.815L98.7868 137.302C99.2737 137.788 104.143 147.039 111.446 149.474Z" fill="#0A0A0A"/>
<path d="M97.3257 158.238L98.2996 157.751C98.2996 157.751 82.7193 133.893 84.1799 105.167H83.2061C83.2061 105.654 80.7717 137.302 91.4832 158.238L92.4569 157.751C86.6143 146.553 85.1537 132.433 84.1799 121.721C87.1012 143.144 97.3257 158.238 97.3257 158.238Z" fill="#0A0A0A"/>
<path d="M80.7722 157.75L81.2592 157.264C78.3378 154.342 78.3378 146.552 78.3378 146.552H77.3641C77.851 146.552 77.8509 154.342 80.7722 157.75Z" fill="#0A0A0A"/>
<path d="M226.35 128.05C226.837 128.05 226.837 128.05 226.35 128.05V127.076C220.021 127.563 216.613 113.444 216.613 112.957H215.639C216.126 113.931 219.534 128.05 226.35 128.05Z" fill="#0A0A0A"/>
<path d="M220.508 128.051L220.995 127.077C216.126 123.669 214.665 116.853 214.665 116.853H213.691C214.178 117.339 215.639 124.156 220.508 128.051Z" fill="#0A0A0A"/>
<path d="M216.126 137.301L216.613 136.327C211.744 134.867 208.823 123.668 208.823 123.668H207.849C207.849 124.155 210.77 135.84 216.126 137.301Z" fill="#0A0A0A"/>
<path d="M151.37 76.9281C151.857 78.8756 151.37 81.31 149.909 81.31C148.448 81.7969 146.988 80.3362 146.014 78.3887C145.527 76.4411 146.014 74.0067 147.475 74.0067C149.422 73.5198 150.883 74.4936 151.37 76.9281Z" fill="black"/>
<path d="M189.347 75.9539C189.834 77.9014 189.347 80.3359 187.886 80.3359C186.425 80.8228 184.965 79.3621 183.991 77.4145C183.504 75.467 183.991 73.0326 185.452 73.0326C186.912 72.5457 188.86 74.0063 189.347 75.9539Z" fill="black"/>
<path d="M172.306 130.485C173.767 135.353 169.872 140.709 168.411 137.301C166.95 133.406 169.872 121.721 172.306 130.485Z" fill="#D92231"/>
<path d="M169.872 138.762C170.359 138.762 171.332 138.275 171.819 137.788C172.793 136.328 173.767 133.406 172.793 130.485C172.306 128.051 171.332 127.077 170.358 127.077C169.872 127.077 169.385 127.564 168.898 128.051C167.437 129.998 166.95 134.867 167.924 137.302C168.411 138.275 169.385 138.762 169.872 138.762ZM170.358 127.564C170.358 127.564 171.332 127.564 171.819 130.485C172.306 132.92 171.819 135.354 170.845 136.815C170.359 137.301 169.872 137.788 169.872 137.788C169.385 137.788 168.898 137.301 168.898 136.815C167.924 134.867 168.898 129.998 169.872 128.538C169.872 128.051 170.358 127.564 170.358 127.564Z" fill="#0A0A0A"/>
<path d="M168.41 145.579C168.897 145.579 168.897 145.579 169.384 145.579C173.279 145.092 173.766 138.762 173.766 138.275H172.792C172.792 138.275 171.819 144.118 168.897 144.605C167.924 144.605 167.437 144.605 166.95 144.118C165.976 143.631 165.976 142.17 165.976 141.684H165.002C165.002 141.684 165.002 144.118 166.463 145.092C166.95 145.579 167.924 145.579 168.41 145.579Z" fill="#0A0A0A"/>
<path d="M61.7821 22.3967C69.0854 22.3967 68.1116 6.32959 68.1116 6.32959C68.1116 6.32959 78.3362 21.423 82.7182 27.7525C87.1001 34.082 85.6395 45.2804 80.2837 39.9246C75.9018 35.5427 61.7821 22.3967 61.7821 22.3967Z" fill="#DEE0E1"/>
<path d="M82.7185 41.3851C83.2054 41.3851 84.1793 40.8982 84.6662 39.9245C86.1268 37.49 85.6398 31.1605 82.7185 27.2654C78.3366 20.9359 68.112 6.32939 68.112 5.84251L67.1383 4.38184V6.32942C67.1383 6.32942 67.6251 17.0409 64.2169 20.936C63.2432 21.9097 62.2694 22.3966 61.2956 22.3966H59.835L60.8087 23.3704C60.8087 23.3704 75.4153 36.5163 79.3104 40.4114C80.7711 40.8983 81.7448 41.3851 82.7185 41.3851ZM68.5989 7.79002C71.0333 11.6851 78.8236 22.3966 82.2318 27.7523C84.6662 31.6474 85.6399 37.0031 84.1793 39.4376C83.2055 40.8982 82.2317 40.8982 80.771 39.4376C77.3628 35.5425 66.1645 25.8048 62.7563 22.8835C63.7301 22.8835 64.7039 22.3966 65.1908 21.4228C68.1121 18.0146 68.5989 11.1982 68.5989 7.79002Z" fill="#0A0A0A"/>
<path d="M82.7182 27.2653C78.3362 20.9358 68.1116 5.84234 68.1116 5.84234C76.8755 2.92103 177.174 0.486572 177.174 0.486572C177.174 0.486572 196.163 18.0144 201.518 24.8308C201.518 24.8308 91.9691 27.2653 83.692 28.7259C83.2051 28.239 82.7182 27.7521 82.7182 27.2653Z" fill="#DDCC13"/>
<path d="M83.2054 29.2131C91.9693 27.7525 200.058 25.318 201.032 25.318H202.005L201.519 24.3443C196.65 18.0148 178.148 0.973771 177.174 0C173.279 0 76.8759 2.43441 68.1119 5.84261H67.6252L68.1119 6.32952C68.1119 6.32952 78.3365 21.4229 82.7185 27.7524C82.2316 28.2393 82.7185 28.7262 83.2054 29.2131ZM200.058 24.3443C188.373 24.8312 93.43 26.7787 83.6923 28.2394C83.6923 27.7525 83.2054 27.7524 83.2054 27.2655C79.3103 21.9098 71.0333 9.25084 69.0858 6.32952C80.771 3.40821 171.819 0.973756 177.174 0.973756C178.148 2.43441 194.702 17.5279 200.058 24.3443Z" fill="#0A0A0A"/>
<path d="M201.031 24.8313C206.387 31.1608 205.413 37.9773 198.11 37.9773C190.806 37.9773 127.511 42.3592 112.418 43.333C97.3244 43.8198 83.2047 43.8198 80.7703 40.8985C80.7703 40.8985 80.2835 40.4117 79.7966 39.9248C84.6654 44.7936 86.126 35.5428 82.7178 28.7264C91.4817 27.2657 201.031 24.8313 201.031 24.8313Z" fill="#8E6F01"/>
<path d="M100.733 43.8197C104.141 43.8197 108.036 43.8196 112.418 43.3327C118.748 42.8458 134.328 41.8721 150.882 40.8983C172.305 39.4377 194.215 37.977 198.11 37.977C202.005 37.977 203.466 36.5164 204.44 35.0557C205.9 32.1344 204.927 28.2393 201.518 24.3442H201.031C196.65 24.3442 91.4822 26.7787 83.2052 28.2393H82.7183L83.2052 28.7262C85.1527 32.6213 85.6397 37.4901 84.179 39.4376C83.2052 40.8983 82.2314 40.4115 80.7708 38.9508L80.2838 39.4376C80.7707 39.9245 80.7708 39.9246 81.2577 40.4115C82.2314 42.8459 89.0478 43.8197 100.733 43.8197ZM201.031 25.318C203.953 28.7262 204.927 32.6213 203.466 35.0557C202.492 36.5164 201.031 37.4901 198.11 37.4901C193.728 37.4901 171.818 38.9508 150.882 40.4115C134.815 41.3852 119.235 42.359 112.905 42.8459C108.523 42.8459 104.628 43.3327 101.22 43.3327C90.9954 43.3327 86.1265 42.3589 83.6921 41.8721C84.179 41.8721 84.6658 41.3852 85.1527 40.8983C86.6134 38.4639 86.1266 33.595 84.179 29.6999C95.8643 27.7524 195.189 25.318 201.031 25.318Z" fill="#0A0A0A"/>
<path d="M81.2574 30.1869L82.2312 29.6999L70.0591 14.1196L69.0852 15.0934L81.2574 30.1869Z" fill="#0A0A0A"/>
<path d="M81.258 35.5421L82.2318 35.0552L68.112 19.4749L67.6253 20.4486L81.258 35.5421Z" fill="#0A0A0A"/>
<path d="M81.258 38.9507L82.2318 38.4638L66.1645 23.3704L65.6776 23.8572L81.258 38.9507Z" fill="#0A0A0A"/>
<g opacity="0.74">
<path d="M120.696 64.7559C120.696 64.7559 88.5617 144.605 156.239 151.421C156.239 151.421 132.868 155.316 113.88 143.144C113.88 143.144 116.801 137.302 119.722 134.867C119.722 134.867 107.063 130.972 102.194 107.115C102.194 107.115 98.7864 90.5608 99.2733 79.3624C99.2733 79.3624 98.7863 76.441 99.76 75.9542C100.734 74.9804 113.393 66.7034 120.696 64.7559Z" fill="#EAB392"/>
</g>
<path d="M144.553 225.428C145.527 221.533 145.04 217.638 145.04 217.151H144.066C144.066 217.151 144.553 221.046 143.58 224.941L144.553 225.428Z" fill="#0A0A0A"/>
<path d="M129.947 225.428C131.894 222.506 130.434 217.151 130.434 217.151H129.46C129.46 217.151 130.434 222.02 128.973 224.941L129.947 225.428Z" fill="#0A0A0A"/>
<path d="M133.842 226.401C135.789 222.506 133.842 217.637 133.842 217.637L132.868 218.124C132.868 218.124 134.815 222.506 132.868 226.401H133.842Z" fill="#0A0A0A"/>
<path d="M138.224 226.888C139.684 223.967 138.224 217.637 138.224 217.637H137.25C137.25 217.637 138.711 223.967 137.25 226.401L138.224 226.888Z" fill="#0A0A0A"/>
<path d="M141.632 226.401C142.605 223.967 142.605 217.637 142.605 217.637H141.632C141.632 217.637 141.631 223.967 141.145 226.401H141.632Z" fill="#0A0A0A"/>
<path d="M146.501 225.428C147.962 221.533 146.501 217.151 146.501 217.151L145.527 217.638C145.527 217.638 146.988 221.533 145.527 225.428H146.501Z" fill="#0A0A0A"/>
</svg>
