<svg width="341" height="533" viewBox="0 0 341 533" fill="none" xmlns="http://www.w3.org/2000/svg">
<path d="M239.013 295.58H239.81C248.573 293.19 260.524 258.135 262.914 250.964L259.727 250.168C254.15 266.899 243.793 291.597 239.013 293.19C239.013 293.19 239.013 293.19 238.216 293.19C231.842 287.613 202.364 266.899 192.804 268.492L193.6 271.679C200.771 270.882 227.859 288.41 235.826 295.58C237.419 294.783 238.216 295.58 239.013 295.58Z" fill="#0A0A0A"/>
<path d="M74.8903 331.432C76.4837 331.432 78.0772 331.432 79.6706 330.635C90.8246 324.262 98.7917 294.783 99.5884 293.987L96.4016 293.19C96.4016 293.19 88.4344 322.668 78.8738 327.449C77.2804 328.245 75.6871 328.245 74.0936 328.245C60.5495 323.465 34.2581 306.734 34.2581 306.734L32.6647 309.921C33.4614 310.718 58.9561 326.652 73.2969 332.229C73.2969 331.432 74.0936 331.432 74.8903 331.432Z" fill="#0A0A0A"/>
<path d="M32.665 282.035C26.2914 277.255 11.9505 270.881 4.78014 290.003C-0.796837 304.343 10.357 318.684 23.1044 317.091C35.8518 314.701 52.5828 297.173 32.665 282.035Z" fill="#D5AA7C"/>
<path d="M20.7145 317.888C21.5113 317.888 22.3079 317.888 23.1046 317.888C30.275 317.091 39.8356 310.717 42.2257 301.953C43.8191 297.173 43.0224 289.206 33.4619 281.239C31.0717 279.646 26.2915 275.662 19.9178 275.662C15.1375 275.662 8.76382 278.052 3.98355 289.206C1.59342 296.376 2.39015 303.547 6.37371 309.921C9.56055 314.701 15.1376 317.888 20.7145 317.888ZM19.9178 277.255C25.4948 277.255 31.0718 281.239 32.6652 282.036C41.429 289.206 42.2258 295.58 40.6323 300.36C38.2422 308.327 29.4783 314.701 23.1046 315.498C17.5276 316.294 11.154 313.107 7.96711 308.327C3.98355 302.75 3.18682 295.58 5.57695 289.206C8.76379 282.036 13.5441 277.255 19.9178 277.255Z" fill="#0A0A0A"/>
<path d="M26.2903 300.36C29.4772 300.36 32.6641 300.36 32.6641 299.564V297.97C32.6641 297.97 20.7134 299.564 16.7298 296.377C15.9331 295.58 15.1364 294.783 15.9331 293.19C15.9331 291.596 16.7298 290.8 17.5265 290.003C22.3067 286.816 32.6641 289.206 32.6641 289.206L33.4607 287.613C32.664 287.613 22.3068 285.223 16.7298 288.41C15.1364 289.206 14.3397 290.8 14.3397 292.393C14.3397 293.987 14.3396 295.58 15.9331 297.173C18.3232 299.564 23.1035 300.36 26.2903 300.36Z" fill="#0A0A0A"/>
<path d="M274.07 219.096C266.9 215.909 250.965 215.112 244.592 236.623C238.218 258.931 270.883 270.085 281.24 248.574C291.598 227.063 274.07 219.096 274.07 219.096Z" fill="#D5AA7C"/>
<path d="M262.915 261.321C270.882 261.321 278.053 257.338 282.036 249.371C286.02 242.2 286.817 235.827 284.427 229.453C282.036 221.486 274.866 218.299 274.069 218.299C272.476 217.502 269.289 216.706 265.306 216.706C258.932 216.706 248.575 219.096 242.998 236.623C241.404 242.2 242.201 248.574 245.388 252.558C249.371 258.135 256.542 261.321 262.915 261.321ZM266.102 218.299C270.086 218.299 272.476 219.096 274.069 219.892C274.069 219.892 280.443 223.079 282.833 230.25C284.427 235.827 283.63 241.404 280.443 248.574C277.256 255.744 270.882 259.728 262.915 259.728C256.542 259.728 250.965 256.541 246.981 252.558C244.591 249.371 242.998 244.59 244.591 238.217C250.168 220.689 260.525 218.299 266.102 218.299Z" fill="#0A0A0A"/>
<path d="M254.947 242.2C257.337 242.2 265.304 242.2 269.287 238.217C270.881 236.623 271.678 234.233 272.474 231.843C272.474 228.656 270.881 225.469 267.694 224.673C262.117 223.079 253.353 226.266 251.76 230.25L253.353 231.046C254.947 227.859 262.914 225.469 267.694 226.266C270.084 227.063 271.678 228.656 271.678 231.843C271.678 234.233 270.881 235.827 269.287 237.42C264.507 241.404 255.743 241.404 255.743 241.404L254.947 242.2Z" fill="#0A0A0A"/>
<path d="M166.514 254.151C168.107 254.948 194.399 265.305 202.366 266.102C210.333 267.695 205.553 274.069 202.366 286.816C199.179 299.564 164.921 310.718 152.173 312.311C139.426 313.904 112.338 317.091 103.574 312.311C94.81 307.531 82.8594 304.344 84.4528 300.36C87.6396 297.173 118.711 240.607 166.514 254.151Z" fill="#D76B2A"/>
<path d="M120.304 315.498C129.865 315.498 140.222 314.701 148.189 313.904L152.173 313.108C165.717 311.514 199.975 300.36 203.162 286.816C203.959 283.629 204.756 281.239 205.552 278.849C207.146 273.272 208.739 270.085 207.146 267.695C206.349 266.102 204.756 265.305 202.365 265.305C195.992 264.508 179.261 258.135 171.294 254.948C168.903 254.151 167.31 253.354 166.513 253.354C161.733 251.761 156.156 250.964 151.376 250.964C113.93 250.964 88.4356 291.596 83.6554 300.36C82.8587 301.157 82.8587 301.954 83.6554 302.75C84.4521 305.14 89.2323 307.531 94.8093 309.921C97.9961 311.514 100.386 312.311 102.776 313.904C106.76 314.701 112.337 315.498 120.304 315.498ZM152.173 252.558C156.953 252.558 161.733 253.354 166.513 254.948C166.513 254.948 168.903 255.744 171.294 256.541C179.261 259.728 196.788 266.102 203.162 266.898C204.756 266.898 205.552 267.695 206.349 268.492C207.146 270.085 206.349 274.069 204.755 278.849C203.959 281.239 203.162 283.629 202.365 286.816C199.179 299.564 165.717 310.717 152.173 311.514L148.189 312.311C140.222 313.108 129.068 313.904 120.304 313.904C113.134 313.904 107.557 313.108 105.167 311.514C102.776 309.921 99.5896 309.124 96.4028 307.531C91.6225 305.141 86.8422 303.547 86.0455 301.954V301.157C90.8258 293.19 115.524 252.558 152.173 252.558Z" fill="#0A0A0A"/>
<path d="M313.107 524.236L314.7 521.846C312.31 520.253 306.733 505.115 301.953 491.571C295.579 474.84 288.409 455.719 282.832 447.752C272.475 433.411 235.826 401.543 219.892 398.356L219.095 401.543C232.639 404.73 269.288 434.208 279.645 450.142C285.222 458.109 292.392 476.434 298.766 493.165C305.936 511.489 309.92 522.643 313.107 524.236Z" fill="#0A0A0A"/>
<path d="M126.676 493.164C127.473 493.164 128.27 493.164 129.067 492.368C137.034 485.994 139.424 437.395 139.424 431.818H136.237C135.44 451.735 132.253 485.994 126.676 489.978C126.676 489.978 126.676 489.978 125.88 489.978C121.896 489.181 100.385 480.417 82.0606 472.45C45.4119 457.312 38.2415 454.126 35.8513 455.719C31.8678 457.312 30.2743 469.263 29.4776 474.043L32.6645 474.84C33.4613 467.67 35.8514 460.499 36.6481 459.703C40.6317 459.703 62.1428 469.263 79.6705 476.433C102.775 484.401 121.896 492.368 126.676 493.164Z" fill="#0A0A0A"/>
<path d="M41.4296 468.466C41.4296 480.417 44.6165 515.472 26.2921 514.676C7.96777 513.879 25.4954 473.247 28.6823 465.28C31.0724 457.312 42.2263 438.988 41.4296 468.466Z" fill="#5E284F"/>
<path d="M27.0878 515.473C30.2747 515.473 33.4616 514.676 35.8517 512.286C43.8188 504.319 43.0221 486.791 43.0221 474.84C43.0221 472.45 43.0221 470.857 43.0221 469.263C43.0221 460.499 42.2254 454.922 40.632 452.532C39.8353 451.736 39.0385 451.736 39.0385 451.736C34.2582 451.736 30.2748 462.093 28.6813 465.28C28.6813 466.076 27.8846 466.873 27.8846 468.467C23.901 478.824 14.3405 503.522 20.7142 512.286C20.7142 514.676 23.1043 515.473 27.0878 515.473ZM38.2419 453.329C39.8353 454.922 41.4287 458.109 41.4287 468.467C41.4287 470.06 41.4287 471.653 41.4287 474.044C41.4287 485.197 42.2253 503.522 35.0549 510.692C32.6648 513.082 30.2747 513.879 27.8846 513.879H27.0878C24.6977 513.879 22.3076 513.082 21.5109 510.692C15.9339 501.928 25.4945 477.23 28.6813 468.467C29.4781 466.873 29.478 466.076 29.478 465.28C31.0714 460.499 35.8517 453.329 38.2419 453.329Z" fill="#0A0A0A"/>
<path d="M339.399 476.433C339.399 479.62 338.603 483.604 337.009 489.181C329.042 523.439 323.465 529.016 317.091 531.407C317.091 531.407 317.091 531.407 316.295 531.407C316.295 521.846 320.278 505.912 323.465 497.945C329.839 483.604 339.399 466.076 339.399 476.433Z" fill="#5E284F"/>
<path d="M316.294 533H317.091H317.888C325.855 530.61 331.432 522.643 338.602 489.978C340.196 484.401 340.196 479.62 340.992 476.434C340.992 475.637 340.992 472.45 338.602 472.45C333.822 472.45 325.855 491.571 323.465 497.945C321.075 505.115 316.294 521.049 316.294 531.407V533ZM338.602 474.043C338.602 474.043 339.399 474.043 339.399 476.434C339.399 479.62 338.602 483.604 337.009 489.181C329.042 522.643 323.465 528.22 317.888 530.61C318.684 520.253 321.871 505.912 325.058 498.741C329.838 485.197 336.212 474.043 338.602 474.043Z" fill="#0A0A0A"/>
<path d="M311.514 505.115C325.855 480.417 339.399 462.889 339.399 476.433C338.602 466.076 329.042 483.604 323.465 497.945C320.278 505.912 316.295 521.846 316.295 531.407C310.718 533 304.344 517.066 311.514 505.115Z" fill="#5E284F"/>
<path d="M316.294 533H317.091H317.888V532.203C317.888 521.846 321.871 506.708 325.058 498.741C329.838 485.197 336.212 474.043 338.602 474.043C338.602 474.043 339.399 474.043 339.399 476.433H340.992C340.992 474.043 340.992 472.45 339.399 471.653C338.602 470.856 338.602 470.856 337.805 470.856C332.228 470.856 318.684 492.368 311.514 505.115C306.734 513.082 307.53 523.439 310.717 529.016C311.514 531.407 313.904 533 316.294 533ZM316.294 531.407C314.701 531.407 313.107 529.813 311.514 528.22C308.327 523.439 307.53 513.879 312.311 505.912C326.651 481.214 334.619 472.45 337.009 472.45C332.228 474.043 325.058 491.571 322.668 497.945C320.278 505.115 316.294 521.049 316.294 531.407Z" fill="#0A0A0A"/>
<path d="M219.095 373.658C219.095 373.658 233.436 391.185 237.419 396.762C241.403 402.339 241.403 403.136 233.436 410.306C225.468 416.68 205.551 433.411 200.77 435.801C196.787 438.191 195.193 439.785 189.616 434.208C184.039 428.631 180.853 423.054 179.259 425.444C177.666 427.834 175.276 442.971 171.292 442.971C167.309 442.971 111.539 442.971 108.352 438.988C105.165 435.004 106.758 411.9 111.539 407.916C117.116 403.933 219.095 373.658 219.095 373.658Z" fill="#0476D9"/>
<path d="M172.089 443.768C175.276 443.768 176.869 438.988 179.259 431.021C180.056 428.631 180.853 426.241 180.853 425.444C181.649 425.444 184.039 427.834 185.633 430.224C186.43 431.818 188.023 432.614 189.616 434.208C194.397 439.785 196.787 438.988 200.77 436.598L201.567 435.801C206.347 432.614 231.045 411.9 234.232 409.51C242.199 403.136 242.996 400.746 238.216 395.169C234.232 389.592 219.891 372.861 219.891 372.064V371.268H219.095C215.111 372.861 116.319 402.339 112.335 406.323C107.555 411.103 105.962 434.208 109.149 438.191C111.539 443.768 153.764 443.768 172.089 443.768ZM180.853 423.851C180.056 423.851 180.056 423.851 179.259 424.647C178.462 425.444 177.666 427.834 176.869 430.224C176.072 434.208 173.682 441.378 171.292 441.378C136.237 441.378 110.742 439.785 109.149 438.191C106.758 435.004 108.352 411.9 112.335 408.713C116.319 405.526 189.616 383.218 218.298 374.454C220.688 376.845 232.639 391.982 236.622 396.762C239.809 401.543 240.606 402.339 232.639 408.713C222.282 417.477 203.957 432.614 199.974 434.208L199.177 435.004C197.584 435.801 196.787 436.598 195.99 436.598C194.397 436.598 192.803 435.801 190.413 432.614C188.82 431.021 188.023 429.428 186.43 428.631C184.039 426.241 182.446 423.851 180.853 423.851Z" fill="#0A0A0A"/>
<path d="M152.171 246.981C153.765 246.184 189.616 258.134 211.924 314.701C234.232 371.268 223.875 380.031 223.875 380.031C223.875 380.031 199.974 412.697 163.325 419.07C125.88 424.647 107.555 413.493 105.165 406.323C103.572 398.356 89.2309 263.711 152.171 246.981Z" fill="#FBB914"/>
<path d="M144.204 421.461C150.577 421.461 156.951 420.664 164.121 419.867C201.567 414.29 225.468 380.828 225.468 380.828C225.468 380.828 235.825 371.268 213.518 314.701C192.006 259.728 156.951 246.184 152.967 246.184C139.423 250.168 129.066 258.931 120.302 273.272C94.8076 318.685 103.571 400.746 105.165 406.323C105.961 411.9 118.709 421.461 144.204 421.461ZM152.967 247.778C156.951 247.778 190.413 262.118 211.924 315.498C234.232 370.471 223.875 380.032 223.875 380.032C223.875 380.828 199.973 412.697 163.325 418.274C156.154 419.07 149.781 419.867 144.204 419.867C121.099 419.867 108.352 411.9 105.961 405.526C104.368 399.949 95.6042 318.685 121.099 273.272C129.066 259.728 139.423 250.964 152.967 247.778Z" fill="#0A0A0A"/>
<path d="M235.827 68.5168C235.827 68.5168 232.64 84.4511 243.794 99.5886C254.948 114.726 288.41 195.194 206.349 246.98C123.491 298.766 60.5504 247.777 52.5833 218.299C44.6162 188.82 35.8523 149.781 64.534 118.71C93.2156 87.6379 233.437 48.5991 235.827 68.5168Z" fill="#D5AA7C"/>
<path d="M136.238 270.085C159.342 270.085 183.244 262.915 207.145 247.777C236.623 229.453 254.151 205.551 259.728 176.073C266.102 141.815 252.558 108.353 245.387 98.7922C234.233 84.4514 237.42 68.5171 237.42 68.5171C236.623 63.7369 231.843 62.1434 222.283 62.1434C186.431 62.1434 88.435 92.4185 65.3303 117.913C35.0553 151.375 47.006 194.398 53.3796 218.299C57.3632 239.81 90.0284 270.085 136.238 270.085ZM221.486 63.7369C227.86 63.7369 235.03 64.5336 235.03 68.5171C235.03 69.3138 231.843 85.2481 242.997 100.386C250.167 109.946 263.712 141.815 257.338 176.073C251.761 204.755 235.03 227.859 205.552 246.184C182.447 260.525 158.546 268.492 136.238 268.492C90.8252 268.492 58.9566 239.013 53.3796 218.299C47.006 195.194 35.0553 152.172 65.3303 119.507C88.435 94.0119 185.634 63.7369 221.486 63.7369Z" fill="#0A0A0A"/>
<path d="M229.453 130.661C229.453 136.238 231.046 140.221 233.436 140.221C235.826 140.221 237.42 136.238 237.42 130.661C237.42 125.084 235.826 121.1 233.436 121.1C231.046 121.1 229.453 125.88 229.453 130.661Z" fill="black"/>
<path d="M147.391 164.123C151.375 156.156 156.952 151.375 163.326 149.782C172.089 147.392 179.26 152.172 179.26 152.969L181.65 154.562L180.057 152.172C176.87 145.002 172.089 140.221 166.512 137.831C157.748 134.644 148.188 140.221 144.204 141.815C143.408 141.815 142.611 142.611 142.611 142.611V144.205C142.611 144.205 143.408 144.205 145.001 143.408C148.985 141.018 157.749 136.238 165.716 139.425C170.496 141.018 174.479 144.205 177.666 150.579C174.479 148.985 168.902 147.392 162.529 148.985C156.155 150.579 149.781 155.359 145.798 164.123H147.391Z" fill="#0A0A0A"/>
<path d="M213.519 223.876C231.844 223.876 234.234 188.821 234.234 187.227H232.64C232.64 187.227 230.25 222.282 213.519 222.282C195.992 222.282 192.008 198.381 192.008 197.584H190.415C190.415 198.381 195.195 223.876 213.519 223.876Z" fill="#0A0A0A"/>
<path d="M187.227 199.178C189.617 199.178 191.21 198.381 192.804 197.584C196.787 195.194 197.584 191.211 197.584 190.414L195.991 189.617C195.991 189.617 195.194 193.601 191.21 195.194C188.82 196.788 185.633 196.788 182.447 195.991L181.65 197.584C184.837 199.178 185.633 199.178 187.227 199.178Z" fill="#0A0A0A"/>
<path d="M9.56137 162.529C3.98441 160.139 0.797638 154.562 0.797638 148.188C0.797638 141.018 6.37454 134.644 13.545 132.254C10.3581 129.067 8.76474 125.084 8.76474 121.1C8.76474 113.133 15.1383 105.963 23.1055 104.369C20.7153 101.182 18.3253 97.1988 18.3253 93.2152C18.3253 84.4514 25.4956 76.4843 35.0561 76.4843C31.0726 72.5007 28.6825 66.9238 28.6825 60.5501C28.6825 48.5994 38.243 39.0389 50.1937 39.0389C57.3641 39.0389 63.7378 42.2257 67.7213 47.8027C70.9082 43.8191 76.4852 40.6323 82.0622 40.6323C86.0457 40.6323 89.2325 41.429 91.6227 43.8191C91.6227 43.8191 91.6227 43.8191 91.6227 43.0224C91.6227 31.0717 101.183 21.5112 113.134 21.5112C116.321 21.5112 120.304 22.3079 122.694 23.9013C122.694 23.1046 122.694 22.3079 122.694 21.5112C122.694 9.56054 132.255 0 144.206 0C154.563 0 162.53 7.1704 165.717 15.9342C168.904 13.5441 172.887 11.9507 176.871 11.9507C185.635 11.9507 192.805 17.5277 194.398 25.4948C196.789 23.1046 199.975 21.5112 203.959 21.5112C210.333 21.5112 215.91 25.4948 217.503 31.8685C220.69 29.4783 223.877 27.8849 227.86 27.8849C236.624 27.8849 243.795 35.0553 243.795 43.8191C243.795 47.8027 242.201 51.7862 239.811 54.1764C242.998 54.9731 246.185 57.3632 246.981 60.5501C249.372 59.7534 252.558 58.9566 254.949 58.9566C266.899 58.9566 276.46 68.5172 276.46 80.4679C276.46 92.4185 266.899 101.979 254.949 101.979C242.998 101.979 233.437 92.4185 233.437 80.4679C233.437 78.8744 233.437 78.0777 233.437 76.4843C231.047 78.0777 228.657 78.0777 226.267 78.0777C220.69 78.0777 215.91 74.8909 212.723 70.9073C210.333 75.6876 204.756 78.0777 199.179 78.0777C195.992 78.0777 193.602 77.281 191.212 75.6876C188.821 84.4514 180.058 90.8251 170.497 90.8251C164.92 90.8251 160.14 88.435 156.156 85.2481C156.156 86.0448 156.156 86.0448 156.156 86.8415C156.156 94.8087 149.783 101.979 141.019 101.979C138.629 101.979 135.442 101.182 133.848 99.5889C134.645 101.182 134.645 102.776 134.645 104.369C134.645 113.93 126.678 121.897 117.117 121.897C114.727 121.897 112.337 121.1 109.947 120.303C113.134 124.287 115.524 129.864 115.524 135.441C115.524 148.188 105.167 158.546 91.6227 158.546C87.6391 158.546 83.6556 157.749 79.672 155.359C77.2819 160.936 70.9082 165.716 63.7378 165.716C62.1444 165.716 60.5509 165.716 59.7542 164.919C60.5509 167.309 61.3476 169.7 61.3476 172.09C61.3476 177.667 58.9575 181.65 54.9739 184.837C59.7542 188.024 62.941 193.601 62.941 199.975C62.941 207.942 57.3641 215.112 49.397 217.502V218.299C49.397 224.673 43.82 230.25 37.4463 230.25C31.0726 230.25 25.4956 224.673 25.4956 218.299C25.4956 216.706 25.4957 215.112 26.2924 213.519C18.3253 212.722 11.9515 206.348 11.9515 198.381C11.9515 194.398 13.545 190.414 15.9351 188.024C7.96799 188.024 1.59427 180.853 1.59427 172.886C2.39099 169.7 5.57782 165.716 9.56137 162.529Z" fill="#42280E"/>
<path d="M38.2422 232.64C45.4126 232.64 50.9895 227.063 50.9895 219.892C58.9567 217.502 63.737 209.535 63.737 201.568C63.737 195.991 61.3469 190.414 56.5666 186.43C60.5502 183.243 62.1436 178.463 62.1436 173.683C62.1436 171.293 62.1435 169.699 61.3468 167.309C62.1435 167.309 62.9403 167.309 64.5337 167.309C71.7041 167.309 77.2811 163.326 80.468 157.749C83.6548 159.342 87.6383 160.936 91.6219 160.936C105.166 160.936 116.32 149.782 116.32 137.034C116.32 132.254 114.727 127.474 112.336 124.287C113.93 125.084 115.523 125.083 117.117 125.083C127.474 125.083 135.441 117.116 135.441 106.759C135.441 105.962 135.441 105.166 135.441 103.572C137.831 104.369 139.425 105.166 141.815 105.166C150.579 105.166 157.749 97.9953 157.749 90.0282C161.732 93.215 166.513 94.0117 171.293 94.0117C180.854 94.0117 189.617 88.4348 192.804 79.6709C195.194 81.2644 197.584 82.0611 200.771 82.0611C206.348 82.0611 211.129 79.6709 214.315 74.8907C219.096 81.2644 227.063 83.6545 234.233 80.4677C234.233 81.2644 234.233 82.0611 234.233 82.8578C234.233 95.6052 244.59 105.166 257.338 105.166C270.085 105.166 279.646 94.8085 279.646 82.8578C279.646 70.1104 269.289 60.5499 257.338 60.5499C254.948 60.5499 252.558 61.3466 249.371 62.1433C248.574 58.9564 246.184 57.363 242.997 56.5663C245.387 53.3795 246.184 50.1926 246.184 46.2091C246.184 37.4452 239.014 29.4781 229.453 29.4781C225.469 29.4781 222.283 31.0715 219.096 32.665C216.706 27.088 211.925 23.1044 205.552 23.1044C202.365 23.1044 199.178 23.9011 195.991 26.2913C193.601 18.3242 186.43 13.5439 178.463 13.5439C174.48 13.5439 170.496 14.3406 167.309 16.7307C164.123 7.1702 155.359 0.796509 145.798 0.796509C133.051 0.796509 122.694 11.1538 122.694 23.1044V23.9011C119.507 23.1044 117.117 22.3077 113.93 22.3077C101.979 22.3077 91.6219 31.8683 91.6219 43.8189C88.435 42.2255 86.0448 41.4288 82.858 41.4288C77.281 41.4288 71.7041 43.8189 68.5173 47.8025C64.5337 43.0222 58.1599 39.8354 50.9895 39.8354C38.2422 39.8354 27.885 50.1926 27.885 62.1433C27.885 67.7203 29.4784 72.5005 33.4619 77.2808C24.6981 78.0775 17.5277 85.2479 17.5277 94.8085C17.5277 98.792 19.1211 102.776 21.5113 105.166C13.5441 106.759 7.96716 113.93 7.96716 121.897C7.96716 125.88 9.56061 129.864 11.9507 133.051C4.78033 135.441 6.10352e-05 141.814 6.10352e-05 148.985C6.10352e-05 155.359 3.18692 160.139 7.96716 163.326C3.98361 166.512 1.59348 170.496 1.59348 175.276C1.59348 183.243 7.17041 189.617 15.1375 190.414C12.7474 192.804 11.9507 196.788 11.9507 199.974C11.9507 207.941 17.5277 214.315 25.4948 215.112C24.6981 216.705 24.6982 217.502 24.6982 219.095C24.6982 227.063 31.0718 232.64 38.2422 232.64ZM58.16 164.919L58.9567 166.512C59.7534 168.903 60.5502 171.293 60.5502 173.683C60.5502 178.463 58.16 183.243 54.1765 185.634L53.3797 186.43L54.1765 187.227C58.9567 190.414 62.1436 195.991 62.1436 201.568C62.1436 209.535 57.3633 215.909 49.3961 218.299H48.5995V219.095C48.5995 225.469 43.8192 230.249 37.4455 230.249C31.0718 230.249 26.2916 225.469 26.2916 219.095C26.2916 217.502 26.2915 215.909 27.0882 214.315C19.9178 213.518 13.5441 207.941 13.5441 200.771C13.5441 196.788 15.1375 193.601 17.5277 191.211L19.1211 189.617H17.5277C9.56058 189.617 3.98361 183.243 3.98361 175.276C3.98361 170.496 6.37378 166.512 10.3573 163.326L11.9507 162.529L10.3573 161.732C4.78036 159.342 1.59348 153.765 1.59348 148.188C1.59348 141.018 6.37372 135.441 13.5441 133.847H15.1375L14.3409 133.051C11.1541 129.864 9.56058 125.88 9.56058 121.897C9.56058 113.93 15.1375 107.556 23.1046 105.962H24.6982L23.9014 105.166C21.5113 101.979 19.9178 98.792 19.9178 94.8085C19.9178 86.0446 27.0883 78.8742 35.8521 78.8742L34.2587 77.2808C30.2751 73.2973 27.885 67.7203 27.885 62.1433C27.885 50.9893 37.4455 41.4288 48.5995 41.4288C54.9732 41.4288 61.3468 44.6156 65.3304 49.3959L66.1271 50.1926L67.7205 49.3959C70.9074 45.4124 75.6876 42.2255 81.2646 42.2255C84.4514 42.2255 87.6383 43.0222 90.8251 45.4124L92.4186 46.2091V44.6156C92.4186 33.4617 101.979 23.9011 113.133 23.9011C116.32 23.9011 119.507 24.6979 122.694 26.2913H123.49V24.6979C123.49 23.9011 123.49 23.1044 123.49 22.3077C123.49 11.1538 133.051 1.59322 144.205 1.59322C153.765 1.59322 161.733 7.96691 164.123 16.7307V18.3242L164.919 17.5275C168.106 15.1373 172.09 13.5439 176.073 13.5439C184.04 13.5439 191.211 19.1209 192.804 26.2913V27.8847L195.194 27.088C197.584 24.6979 200.771 23.1044 204.755 23.1044C210.332 23.1044 215.909 27.088 217.502 32.665V34.2584L218.299 33.4617C220.689 31.0715 224.673 29.4781 228.656 29.4781C236.623 29.4781 243.794 35.8518 243.794 44.6156C243.794 48.5992 242.2 51.786 239.81 54.1762L239.013 55.7696H240.607C243.794 56.5663 246.184 58.1597 246.981 61.3466V62.1433H247.777C250.167 61.3466 252.558 60.5499 255.744 60.5499C267.695 60.5499 276.459 70.1104 276.459 81.2644C276.459 92.4183 266.898 101.979 255.744 101.979C243.794 101.979 235.03 92.4183 235.03 81.2644C235.03 80.4677 235.03 78.8742 235.03 78.0775V76.4841L233.437 77.2808C226.266 81.2644 217.502 78.8742 213.519 71.7038L212.722 70.9071L211.925 71.7038C209.535 76.4841 204.755 78.8742 199.178 78.8742C196.788 78.8742 193.601 78.0775 191.211 76.4841L190.414 75.6874V76.4841C188.024 85.2479 180.057 90.8249 170.496 90.8249C165.716 90.8249 160.936 89.2315 156.952 85.2479L155.359 83.6545V86.0446V86.8413C155.359 94.8085 148.985 101.182 141.018 101.182C138.628 101.182 136.238 100.385 133.848 99.5887L132.254 98.792L133.051 100.385C133.848 101.979 133.848 103.572 133.848 104.369C133.848 113.133 126.677 121.1 117.117 121.1C114.726 121.1 112.336 120.303 110.743 119.507L109.946 121.1C113.133 125.083 114.726 129.864 114.726 135.441C114.726 148.188 104.369 157.749 92.4186 157.749C88.4351 157.749 84.4514 156.952 81.2646 154.562L80.468 153.765V154.562C78.0778 160.139 71.7041 164.122 65.3304 164.122C63.737 164.122 62.9402 164.122 61.3468 163.326L58.16 164.919Z" fill="#0A0A0A"/>
<path d="M153.765 356.13L171.292 337.806L193.6 342.586L185.633 319.481L199.177 297.173L176.073 301.157L161.732 282.833L155.358 308.327L133.847 319.481L152.968 330.635L153.765 356.13Z" fill="#D76B2A"/>
<g opacity="0.5">
<path d="M93.215 160.139C93.215 160.139 56.5663 253.354 133.847 268.492C133.847 268.492 75.6874 267.695 52.5827 217.502C52.5827 217.502 74.094 203.958 56.5663 185.634C56.5663 185.634 66.9235 175.276 59.7531 165.716C59.7531 165.716 76.484 168.106 78.8741 156.155C78.8741 156.155 82.8577 160.139 93.215 160.139Z" fill="#D76B2A"/>
</g>
<path d="M127.474 269.288C127.474 269.288 80.4676 366.487 153.765 419.07C153.765 419.07 118.71 422.257 107.556 407.916C107.556 407.916 105.962 407.916 104.369 392.779C103.572 375.251 101.182 336.212 108.352 307.53C114.726 280.442 121.897 270.882 123.49 269.288H127.474Z" fill="#FFE428"/>
</svg>
