<svg width="305" height="387" viewBox="0 0 305 387" fill="none" xmlns="http://www.w3.org/2000/svg">
<path d="M176.046 359.184C175.506 348.375 169.561 291.086 169.561 290.545H172.263C172.263 292.707 178.749 348.375 178.749 359.184H176.046Z" fill="#0A0A0A"/>
<path d="M117.136 369.994L114.975 368.913C121.46 352.699 117.136 295.41 117.136 294.869H119.839C119.298 297.572 123.622 353.239 117.136 369.994Z" fill="#0A0A0A"/>
<path d="M109.03 375.939C101.464 375.399 101.464 371.615 105.247 367.292C99.8422 370.535 93.8971 375.399 97.1399 381.344C102.004 389.991 114.975 382.965 120.38 375.939C121.461 374.318 122.001 372.156 122.001 369.994C118.759 373.777 113.354 375.939 109.03 375.939Z" fill="#0AC3C8"/>
<path d="M104.165 386.208C100.922 386.208 98.7605 384.586 97.1391 381.884C96.0581 379.722 95.5178 378.101 96.0582 375.939C97.1392 371.615 101.463 368.913 105.246 366.751L105.787 367.832C104.165 369.994 103.084 371.615 103.625 373.237C104.165 374.318 106.327 375.399 109.029 375.399C112.813 375.399 117.677 373.237 121.46 369.454L122.541 368.373V369.994C122.541 372.156 122.001 374.318 120.379 376.48C117.677 381.344 110.11 386.208 104.165 386.208ZM103.084 369.454C99.8414 371.615 97.6795 373.777 97.1391 376.48C96.5986 378.101 97.1391 379.722 98.2201 381.344C99.8415 383.506 101.463 384.587 104.165 385.127C109.57 385.667 116.596 380.803 119.839 375.939C120.92 374.858 121.46 373.237 121.46 371.615C117.677 374.858 112.813 377.02 109.029 376.48C105.246 376.48 103.084 375.399 102.003 373.237C102.003 372.156 102.003 371.075 103.084 369.454Z" fill="#0A0A0A"/>
<path d="M110.65 364.59C109.029 365.13 107.407 366.211 105.246 367.833C101.462 372.156 101.462 375.939 109.029 376.48C113.353 377.02 118.217 374.318 122 370.535C122 364.59 118.217 359.185 118.217 359.185C118.217 359.185 116.055 361.347 110.65 364.59Z" fill="#F9D8B7"/>
<path d="M109.57 376.48C105.786 376.48 103.625 375.399 102.544 373.237C102.003 371.616 102.544 369.454 104.705 366.752C106.327 365.671 107.408 365.13 108.489 364.59C109.029 364.05 109.57 364.05 110.11 363.509C115.515 360.807 117.677 358.104 117.677 358.104L118.217 357.564L118.757 358.104C118.757 358.104 122.541 364.05 122.541 369.995C118.758 374.318 113.353 376.48 109.57 376.48ZM118.757 359.726C117.677 360.807 115.515 362.969 111.191 365.131C110.651 365.671 110.11 365.671 109.57 366.211C108.489 366.752 107.408 367.292 105.786 368.373C104.165 370.535 103.625 372.157 103.625 373.237C104.165 374.318 106.327 375.399 109.029 375.399C112.812 375.399 117.677 373.237 121.46 369.995C121.46 365.13 119.298 361.347 118.757 359.726Z" fill="#0A0A0A"/>
<path d="M171.184 372.157C174.967 370.535 177.669 367.292 179.29 364.05C179.29 359.185 178.75 354.321 176.588 349.998C176.588 349.998 177.129 354.862 169.562 358.645C166.86 359.726 164.698 361.347 163.077 363.509C159.834 367.833 163.617 375.399 171.184 372.157Z" fill="#F9D8B7"/>
<path d="M167.4 373.778C165.238 373.778 163.076 372.156 161.995 369.994C160.914 367.833 161.455 365.13 163.076 362.968C165.238 360.807 167.4 359.185 169.562 358.104C176.588 354.321 176.047 350.538 176.047 349.997L177.128 349.457C179.29 353.781 179.831 358.645 179.831 363.509C177.669 367.292 174.426 370.535 171.183 371.616C170.102 373.237 168.481 373.778 167.4 373.778ZM177.128 352.159C176.588 353.781 174.966 356.483 170.102 359.185C167.94 360.266 165.779 361.887 163.617 363.509C162.536 365.13 161.995 367.292 163.076 368.914C163.617 370.535 165.238 371.616 167.4 371.616C168.481 371.616 169.562 371.616 171.183 371.075C174.426 369.994 177.128 367.292 179.29 363.509C179.29 359.726 178.75 355.942 177.128 352.159Z" fill="#0A0A0A"/>
<path d="M171.184 372.155C163.617 375.398 159.834 367.831 163.617 363.508C154.429 372.155 153.889 384.045 160.915 385.667C170.103 387.828 178.75 377.019 179.291 364.048C177.669 367.291 174.967 370.534 171.184 372.155Z" fill="#0AC3C8"/>
<path d="M163.076 386.208C162.536 386.208 161.455 386.208 160.914 385.667C158.212 385.127 156.59 382.965 156.05 380.263C154.429 374.858 157.672 367.292 163.617 362.427L164.697 363.508C163.617 365.13 163.076 367.292 164.157 369.454C165.238 372.156 168.481 373.237 171.724 371.615C174.966 370.534 177.669 367.292 179.831 364.049L180.911 364.589C179.29 376.48 171.724 386.748 163.076 386.208ZM161.455 366.211C157.671 371.075 156.05 376.48 157.131 380.263C157.671 382.425 159.293 384.046 161.455 384.586C169.562 386.748 177.128 378.101 178.75 366.211C176.588 368.913 174.426 371.075 171.724 372.156C167.4 373.777 163.617 372.696 161.995 369.454C161.455 368.913 161.455 367.292 161.455 366.211Z" fill="#0A0A0A"/>
<path d="M52.2812 237.04L51.7407 234.878C83.6281 226.231 102.004 198.667 102.004 198.127L104.166 199.748C103.625 199.748 84.7091 228.393 52.2812 237.04Z" fill="#0A0A0A"/>
<path d="M36.6072 226.229C40.3905 225.689 47.9568 230.012 50.6591 231.634C53.3615 233.255 54.4425 250.009 42.0119 252.171C29.5812 254.333 28.5002 243.524 28.5002 238.66C28.5002 233.795 31.2026 227.31 36.6072 226.229Z" fill="#F9D8B7"/>
<path d="M38.2292 253.253C31.2032 252.713 27.9604 247.848 27.4199 238.661C27.4199 233.256 30.6628 226.77 36.6079 225.689C37.1483 225.689 37.6887 225.689 37.6887 225.689C42.0124 225.689 48.498 230.013 50.6598 231.635C52.2812 232.716 52.8218 237.58 52.2813 242.444C51.7408 246.227 49.0385 252.172 41.472 253.253C40.9316 253.253 39.3101 253.253 38.2292 253.253ZM38.2292 227.311C37.6887 227.311 37.6887 227.311 37.1482 227.311C31.7436 228.392 29.0412 233.796 29.0412 239.201C29.0412 248.929 33.3651 253.794 42.0125 252.172C48.4981 251.091 50.6599 245.687 51.7408 242.444C52.8217 237.58 51.7407 233.796 50.6598 233.256C48.498 231.094 42.0125 227.311 38.2292 227.311Z" fill="#0A0A0A"/>
<path d="M41.4724 240.822C40.932 240.822 40.3914 240.822 39.851 240.822C39.3105 240.822 38.7701 240.282 38.2296 239.741C37.1487 238.12 38.77 235.958 42.5533 233.796C45.7961 232.175 50.6603 230.553 52.2817 232.175L51.2007 232.715C50.6603 231.634 46.877 232.175 43.0938 234.337C40.3914 235.958 38.7702 237.579 39.3106 238.66C39.8511 239.741 45.7962 239.201 46.8771 238.66L47.4176 239.741C46.8771 240.282 43.6343 240.822 41.4724 240.822Z" fill="#0A0A0A"/>
<path d="M41.4709 234.877C41.4709 234.877 31.202 208.395 23.6355 199.207L24.7165 198.666C32.8235 207.854 42.5517 233.256 42.5517 234.337L41.4709 234.877Z" fill="#0A0A0A"/>
<path d="M49.0382 290.005H47.9572C51.1999 271.089 43.093 240.823 43.093 240.283L44.174 239.742C44.7145 240.283 52.2809 271.089 49.0382 290.005Z" fill="#0A0A0A"/>
<path d="M23.0959 197.044C19.8531 198.125 9.04374 183.532 21.4744 180.29C33.3646 177.047 32.2837 193.261 27.4196 196.504L23.0959 197.044Z" fill="#F12962"/>
<path d="M22.5553 198.126C19.853 198.126 15.5293 192.721 14.9888 187.857C14.4484 184.074 16.6101 181.371 20.9338 179.75C25.798 178.129 29.5814 180.29 30.6623 184.614C31.7432 188.938 30.6622 195.423 27.4195 197.585H26.879L22.5553 198.126C23.0958 198.126 23.0958 198.126 22.5553 198.126ZM24.7171 180.29C23.6362 180.29 22.5553 180.29 21.4743 180.831C17.6911 181.912 16.0697 184.074 16.6102 187.317C17.1506 191.64 21.4744 196.504 23.0958 196.504L27.4195 195.964C30.1218 193.802 31.2027 188.397 30.1218 184.614C29.0409 182.993 27.9599 180.831 24.7171 180.29Z" fill="#0A0A0A"/>
<path d="M23.6365 199.206C23.6365 199.206 19.8534 190.559 12.2869 189.478C5.26088 188.397 -1.76526 195.423 2.55845 203.53C7.42263 211.097 19.3128 206.773 23.6365 199.206Z" fill="#F12962"/>
<path d="M9.58406 207.854C6.34128 207.854 3.63882 206.233 2.01743 203.53C-0.144427 200.288 -0.144295 196.504 1.4771 193.262C3.63895 190.019 7.96264 187.857 11.7459 188.397C19.3124 189.478 23.0957 198.126 23.0957 198.666V199.207V199.747C21.4743 204.611 14.9887 208.395 9.58406 207.854ZM11.2054 190.019C7.9626 190.019 4.71982 191.64 3.09842 194.343C1.47703 197.045 1.47706 200.288 3.63892 202.99C5.26031 205.152 7.42207 206.773 10.1244 206.773C14.9886 206.773 20.3933 203.53 23.0957 199.207C22.5552 197.585 18.7718 191.1 12.8267 190.019C11.7458 190.019 11.7459 190.019 11.2054 190.019Z" fill="#0A0A0A"/>
<path d="M26.3371 198.125C26.3371 198.125 26.8777 192.18 32.8228 188.397C38.7679 184.614 46.3344 190.559 40.3892 197.044C34.4441 204.611 24.7157 202.449 26.3371 198.125Z" fill="#ED454F"/>
<path d="M30.6615 202.449C28.4996 202.449 26.8783 201.369 25.7973 200.288C25.2569 199.747 25.2568 198.666 25.2568 197.585C25.2568 197.585 25.7972 191.64 32.2828 187.857C33.9042 186.776 35.5256 186.236 37.147 186.776C39.8493 186.776 42.0111 188.397 42.5516 190.559C43.0921 191.64 43.6326 194.883 40.9303 198.126C37.6875 201.909 33.3638 202.99 30.6615 202.449ZM37.147 187.857C35.5256 187.857 34.4447 188.397 32.8233 188.938C26.8782 192.721 26.3377 198.126 26.3377 198.126C26.3377 198.666 26.3377 199.207 26.3377 199.747C26.8781 200.828 28.4996 201.369 30.121 201.369C32.8233 201.369 36.6065 200.288 39.8493 197.045C41.4707 194.883 42.0112 192.721 41.4708 190.559C40.9303 188.938 39.3088 187.857 37.147 187.857Z" fill="#0A0A0A"/>
<path d="M27.4198 200.288C27.4198 200.288 39.31 200.828 41.4719 205.692C43.6338 210.557 37.1481 217.042 29.0411 208.935C20.3937 201.369 24.7175 198.666 27.4198 200.288Z" fill="#F12962"/>
<path d="M35.5265 213.259C33.3647 213.259 30.6624 211.637 27.9601 209.476C22.5554 204.611 22.5555 201.909 23.0959 200.828C23.6364 199.207 25.7982 198.666 27.4196 199.747C29.041 199.747 39.8503 200.828 41.4717 205.692C42.0121 207.314 42.0121 209.476 40.9312 211.097C39.8503 212.718 37.6884 213.259 35.5265 213.259ZM26.3386 200.288C25.7981 200.288 25.2577 200.828 24.7173 201.369C24.7173 201.909 24.1767 204.071 29.0409 208.935C31.2028 211.097 33.9052 212.178 35.5265 212.178C37.1479 212.178 38.7693 211.637 39.8502 210.016C40.9311 208.935 40.9312 207.314 40.3907 205.692C38.7693 201.909 30.1219 200.828 26.8791 200.288H26.3386Z" fill="#0A0A0A"/>
<path d="M22.5552 197.584C22.5552 197.584 6.34119 213.258 18.2314 217.041C29.0407 220.824 28.5003 202.449 24.1765 198.665C18.7719 194.882 24.1766 195.423 22.5552 197.584Z" fill="#ED454F"/>
<path d="M20.3931 218.123C19.8526 218.123 18.7717 218.123 17.6907 217.582C14.9884 216.502 13.3669 215.421 13.3669 213.259C12.286 207.854 19.8525 199.747 21.4739 197.585C20.9334 197.045 20.3929 196.504 20.9334 195.964C21.4739 195.423 22.5549 195.423 23.0954 196.504C23.0954 196.504 23.0954 197.045 23.0954 197.585C23.0954 197.585 23.6358 198.126 24.1762 198.126C27.419 200.288 28.4999 208.395 26.8785 213.259C25.7976 216.502 23.6359 218.123 20.3931 218.123ZM22.5549 198.666C20.393 200.828 13.367 208.395 14.4479 213.259C14.9884 214.88 16.0692 215.961 18.2311 216.502C18.7715 216.502 19.8526 217.042 20.3931 217.042C22.5549 217.042 24.7167 215.961 25.2572 213.259C26.8786 208.395 25.7977 201.369 23.0954 199.207C23.0954 199.207 23.0954 198.666 22.5549 198.666Z" fill="#0A0A0A"/>
<path d="M23.0953 193.803C26.338 192.722 29.5808 194.343 30.1212 198.126C30.6617 201.91 23.0952 205.152 19.8524 202.45C16.0692 199.207 19.8525 194.884 23.0953 193.803Z" fill="#FFC622"/>
<path d="M22.5545 204.071C20.9332 204.071 19.8522 203.53 18.7712 202.449C17.1498 200.828 17.1499 199.207 17.1499 198.126C17.6904 195.423 20.3927 193.262 22.5545 192.721C23.095 192.181 24.1759 192.181 24.7164 192.181C27.4187 192.181 29.5805 194.343 30.121 197.585C30.121 198.666 30.1209 199.747 29.04 200.828C27.4186 203.53 25.2569 204.611 22.5545 204.071ZM25.2569 193.802C24.7164 193.802 24.1758 193.802 23.6354 194.342C21.4735 194.883 19.3117 197.045 19.3117 198.666C19.3117 199.747 19.3118 200.828 20.3927 201.909C22.5546 203.53 26.8782 202.99 29.04 200.828C29.5805 200.288 30.121 199.207 30.121 198.666C29.0401 195.964 27.4187 194.342 25.2569 193.802Z" fill="#0A0A0A"/>
<path d="M118.757 173.805C118.757 173.805 108.488 189.479 98.7599 196.505C89.0316 203.531 99.8408 202.99 106.326 208.395C112.812 213.259 119.838 188.938 118.757 173.805Z" fill="#C2A1D0"/>
<path d="M107.948 209.476C107.408 209.476 106.327 208.936 105.787 208.395C103.625 206.774 101.463 205.693 99.3009 205.152C96.5986 204.072 93.8962 202.991 93.8962 200.829C93.8962 199.207 94.9772 197.586 97.6796 195.424C106.867 188.398 117.677 173.265 117.677 172.725L118.758 171.103V172.725C119.839 185.155 116.055 201.91 110.651 207.314C110.11 208.936 109.029 209.476 107.948 209.476ZM118.217 175.427C115.515 179.751 106.867 191.1 99.3009 196.505C96.5986 198.126 95.5177 199.748 95.5177 200.829C95.5177 201.91 97.6796 202.991 100.382 204.072C102.544 205.153 105.246 206.233 106.868 207.855C107.408 208.395 107.948 208.395 107.948 208.395C108.489 208.395 109.57 207.855 110.11 207.314C114.974 202.45 118.758 187.317 118.217 175.427Z" fill="#0A0A0A"/>
<path d="M124.703 171.103C124.703 171.103 143.079 177.588 161.995 213.259C180.911 249.47 190.639 281.898 189.018 285.681C187.397 289.464 163.616 302.436 133.35 301.895C102.544 301.355 97.139 292.167 97.139 290.005C97.139 287.302 96.5986 226.23 111.191 194.883C125.243 164.617 118.217 167.319 124.703 171.103Z" fill="#F4829C"/>
<path d="M129.026 302.977C102.003 301.896 96.5984 293.248 96.5984 290.546C96.5984 290.546 96.5984 290.006 96.5984 288.925C96.5984 264.604 98.7603 220.286 110.65 195.424C117.136 181.913 118.758 174.887 119.838 171.644C120.379 169.482 120.919 168.401 121.46 168.401C122 168.401 122 168.942 122.541 168.942C123.081 169.482 123.622 170.023 124.703 170.563C125.243 170.563 143.619 177.589 162.535 213.26C180.911 248.39 191.18 281.899 189.558 286.222C187.937 290.006 164.697 303.517 133.35 302.977C131.729 302.977 130.107 302.977 129.026 302.977ZM121.46 169.482C121.46 170.022 120.919 170.563 120.919 171.644C119.838 174.887 117.677 181.913 111.731 195.965C100.382 220.826 98.2199 265.144 98.2199 288.925C98.2199 290.006 98.2199 290.546 98.2199 290.546C98.2199 292.708 104.165 301.355 133.891 301.896C164.157 302.436 187.937 289.465 189.018 285.682C190.639 282.439 180.911 250.011 161.995 213.8C143.078 178.67 125.243 171.644 125.243 171.644C123.081 171.103 122.541 170.563 121.46 169.482C122 170.022 121.46 170.022 121.46 169.482Z" fill="#0A0A0A"/>
<path d="M97.6802 285.681V286.221C133.891 301.895 166.319 290.005 187.397 277.033C186.857 274.872 186.316 272.71 185.235 270.007C166.86 283.519 134.972 298.652 97.6802 285.681Z" fill="#FFBACD"/>
<path d="M180.371 255.956C179.83 255.415 179.83 254.334 179.29 253.794C133.35 272.17 110.11 263.522 99.301 252.713C98.7606 256.496 98.7607 260.279 98.2202 264.063C114.975 273.791 142.538 279.196 180.371 255.956Z" fill="#FFBACD"/>
<g opacity="0.5">
<path d="M161.995 213.799C143.079 177.588 124.703 171.643 124.703 171.643C119.299 168.4 122.541 166.239 117.677 180.291C126.865 181.372 144.16 194.883 156.05 225.149C164.698 247.849 175.507 277.034 171.724 296.49C181.992 292.707 188.478 288.383 189.018 286.762C190.64 282.438 180.911 250.011 161.995 213.799Z" fill="#F4829C"/>
</g>
<path d="M196.044 249.47C165.238 233.797 143.079 190.559 141.998 188.938L144.16 187.857C144.16 188.398 166.859 231.635 197.125 247.308L196.044 249.47Z" fill="#0A0A0A"/>
<path d="M134.432 178.13C138.756 178.67 145.241 182.453 152.267 189.479C159.293 195.965 160.374 197.046 154.429 200.289C148.484 203.532 142.539 210.558 139.837 206.234C138.215 201.37 126.866 177.589 134.432 178.13Z" fill="#C2A1D0"/>
<path d="M142.539 207.855C141.458 207.855 140.377 207.314 139.836 206.233C139.836 206.233 128.487 184.074 131.729 178.67C132.27 178.129 132.81 177.589 134.432 177.589C138.755 178.129 145.241 181.913 152.808 188.939L153.348 189.479C157.672 193.262 159.293 194.884 159.293 197.046C159.293 198.667 157.672 199.748 155.51 200.829C153.889 201.91 152.267 202.991 150.646 204.072C147.403 206.233 144.701 207.855 142.539 207.855ZM134.432 178.67C133.351 178.67 132.81 179.21 132.81 179.21C130.649 182.994 137.134 198.667 140.917 205.693C141.458 206.774 141.998 206.774 142.539 206.774C144.16 206.774 146.863 205.153 149.565 202.991C151.186 201.91 152.808 200.829 154.429 199.748C156.591 198.667 157.672 197.586 157.672 196.505C157.672 195.424 155.51 193.262 152.267 190.02L151.727 189.479C144.701 182.994 138.755 179.21 134.432 178.67Z" fill="#0A0A0A"/>
<path d="M211.717 266.224C209.555 263.522 204.151 257.036 204.151 257.036C204.151 257.036 209.015 259.739 212.798 261.36C216.581 262.981 219.284 261.36 217.122 259.198C214.96 257.036 206.312 253.253 206.312 253.253H211.717C219.824 252.712 220.365 250.01 216.581 249.47C212.798 249.47 205.772 248.389 205.772 248.389C205.772 248.389 214.96 246.227 215.5 242.984C216.041 239.741 210.636 242.444 206.312 242.984C204.151 242.984 201.989 243.525 199.827 244.065C196.584 244.605 193.341 244.606 192.26 247.848C190.639 252.172 192.26 257.036 191.72 261.36C191.72 261.9 191.18 265.684 193.341 265.143C196.044 264.603 197.125 260.279 199.286 259.198C201.448 258.658 204.151 264.062 207.393 267.845C210.096 271.088 213.879 268.926 211.717 266.224Z" fill="#F9D8B7"/>
<path d="M210.096 270.008C209.015 270.008 207.394 269.467 206.313 267.846C205.232 266.765 203.61 265.144 202.529 263.522C201.449 261.901 199.827 259.739 198.746 259.739C197.665 260.28 197.125 260.82 196.584 261.901C195.503 263.522 194.423 265.144 192.801 265.684C192.261 265.684 191.72 265.684 191.18 265.144C190.099 264.063 190.639 261.901 190.639 260.82C190.639 259.199 190.639 257.037 190.639 255.415C190.639 252.713 190.099 250.011 191.18 247.308C192.261 243.525 196.044 243.525 199.287 242.985H199.827C200.908 242.985 201.989 242.444 203.07 242.444C204.151 242.444 205.232 241.904 206.313 241.904C207.934 241.904 209.015 241.363 210.636 240.823C213.339 240.282 214.96 239.742 216.041 240.823C216.582 241.363 216.582 241.904 216.582 242.444C216.582 244.606 212.258 246.227 209.556 247.308C211.717 247.849 214.96 247.849 217.663 248.389C219.284 248.389 220.365 248.93 220.365 250.011C220.365 251.632 217.662 252.713 212.798 253.253H210.096C212.798 254.875 217.122 257.037 218.743 258.118C219.824 259.199 219.824 260.28 219.824 260.82C219.284 262.441 216.582 262.441 213.879 261.36C211.717 260.28 209.555 259.199 207.934 258.658C209.555 260.82 212.258 264.063 213.339 265.684C213.879 266.765 214.42 267.846 213.879 268.386C212.258 269.467 211.177 270.008 210.096 270.008ZM198.746 258.118C200.368 258.118 201.449 260.28 203.61 262.441C204.691 264.063 205.772 265.684 206.853 266.765C208.475 268.386 209.555 268.386 210.096 268.386C210.636 268.386 211.177 268.386 211.177 267.846C211.177 267.306 211.177 266.765 210.636 266.225C208.475 263.522 203.07 257.037 203.07 257.037L203.61 255.956C203.61 255.956 208.475 258.658 212.258 260.279C214.42 260.82 216.041 260.82 216.582 260.279C216.582 260.279 216.582 259.739 216.041 259.199C213.879 257.037 205.772 253.253 205.772 253.253V252.173H211.177C216.582 251.632 217.663 250.551 217.663 250.011C217.663 250.011 217.122 249.47 216.041 249.47C212.258 249.47 205.232 248.389 205.232 248.389V247.308C208.475 246.768 214.42 244.606 214.42 242.444V241.904C213.879 241.363 212.258 241.904 210.096 242.444C208.475 242.985 207.394 242.985 205.772 243.525C204.691 243.525 203.61 243.525 202.529 244.066C201.449 244.066 200.368 244.606 199.287 244.606H198.746C196.044 244.606 192.801 245.147 191.72 247.849C190.639 250.011 191.18 252.713 191.18 255.415C191.18 257.037 191.18 259.199 191.18 260.82C191.18 262.441 191.18 263.522 191.72 264.063L192.261 264.603V264.063C193.342 263.522 194.423 262.441 195.503 260.82C196.044 259.739 197.125 258.658 198.206 258.118H198.746Z" fill="#0A0A0A"/>
<path d="M303.058 110.572C303.598 95.4387 292.248 82.4676 277.115 81.3867C278.196 79.2248 279.277 77.0629 279.277 74.3606C279.818 65.7132 273.332 58.6871 264.685 58.1467C261.982 58.1467 259.28 58.6872 257.118 59.7681C256.037 52.742 250.092 46.7969 242.526 46.2565C236.58 45.716 231.176 48.9588 228.474 53.8229C225.771 50.5802 221.988 47.8778 217.124 47.8778C208.476 47.3374 201.45 53.823 200.91 62.4704C200.91 65.7132 201.45 68.4155 203.072 71.1178L196.046 77.6034L193.884 119.76L204.693 145.702C201.45 147.864 199.829 151.107 199.288 154.89C198.748 161.375 204.153 167.32 211.179 167.861C213.341 167.861 215.502 167.32 217.664 166.24C219.826 169.482 223.609 171.644 227.933 171.644C232.797 171.644 237.121 169.482 239.823 165.699C242.526 167.861 245.768 169.482 249.552 169.482C255.497 170.023 260.901 166.78 263.604 161.916C265.766 162.997 267.387 163.537 269.549 163.537C279.277 164.078 287.384 156.511 287.925 147.323C287.925 142.459 286.303 138.676 283.601 135.433C294.951 132.19 302.517 122.462 303.058 110.572Z" fill="#FFC54D"/>
<path d="M229.015 172.184C224.691 172.184 220.908 170.022 218.746 166.78C216.584 167.861 214.422 168.401 212.26 168.401C205.234 167.861 199.83 161.916 199.83 154.889C199.83 151.106 201.992 147.863 205.234 145.161L194.425 119.759L196.587 77.0626L203.613 71.1175C201.992 68.4152 201.451 65.7129 201.451 62.4701C201.992 53.8227 209.558 46.7966 218.205 47.3371C222.529 47.3371 226.853 49.4989 229.555 52.7417C232.798 47.8775 238.203 45.1752 243.607 45.7157C251.174 46.2561 257.119 51.6608 258.74 58.6868C260.902 57.6059 263.064 57.6059 265.766 57.6059C274.414 58.1464 281.44 65.7129 280.899 74.3603C280.899 76.5221 280.359 79.2244 279.278 80.8458C294.411 82.4672 305.22 95.4384 304.68 110.571C304.139 121.921 297.113 131.65 286.304 135.433C289.006 138.676 290.087 142.999 290.087 147.323C289.547 157.051 280.899 164.618 271.171 164.077C269.009 164.077 267.388 163.537 265.226 162.996C261.983 167.861 256.578 170.563 251.174 170.022C247.391 170.022 244.148 168.401 241.445 166.239C238.203 170.563 233.338 172.725 229.015 172.184ZM218.746 165.699C221.448 169.482 225.231 171.103 229.015 171.103C233.338 171.103 237.662 169.482 240.365 165.699L240.905 165.158L241.445 165.699C244.148 167.861 247.391 169.482 250.633 169.482C256.038 169.482 261.443 166.78 264.145 162.456L264.685 161.915H265.226C267.388 162.996 269.009 162.996 271.171 163.537C280.359 164.077 288.466 157.051 288.466 147.863C288.466 143.54 287.385 139.216 284.142 135.973L283.602 135.433L284.683 134.892C295.492 131.109 302.518 121.921 303.058 110.571C303.599 95.9788 292.79 83.5482 277.657 82.4672H276.576L277.116 81.3863C278.197 79.2245 279.278 77.0626 279.278 74.3603C279.818 66.2533 273.333 59.2273 265.226 59.2273C262.524 59.2273 260.362 59.7677 258.2 60.8487H257.119V59.7678C256.038 52.7417 250.633 47.3371 243.067 46.7966C237.662 46.7966 232.258 49.4989 229.555 53.8226L229.015 54.3631L228.474 53.8226C225.772 50.5798 221.989 48.418 217.665 47.8775C209.558 47.3371 202.532 53.8226 201.992 61.9296C201.992 64.6319 202.532 67.8747 204.154 70.0365L204.694 70.577L197.127 77.0626L194.966 118.678L205.775 144.621L205.234 145.161C201.992 147.323 200.37 150.566 200.37 153.809C199.83 160.294 205.234 165.699 211.179 165.699C214.422 167.32 216.584 166.78 218.746 165.699Z" fill="#0A0A0A"/>
<path d="M138.216 19.2327C138.756 12.2067 133.351 6.26156 126.325 6.26156C123.083 6.26156 119.84 7.34249 117.678 8.96388C116.597 6.80202 113.895 5.18061 111.192 5.18061C107.95 5.18061 105.247 6.80202 103.626 9.50434C101.464 5.18062 97.1404 1.39737 91.7357 1.39737C84.7097 0.85691 78.7645 6.26154 77.6836 13.2876C74.9813 10.0448 70.6577 7.34247 65.7935 7.34247C56.6056 6.80201 49.039 13.8281 48.4986 23.0159C48.4986 25.1778 48.4986 27.3396 49.5796 29.5015C40.9321 30.5824 33.9061 37.6085 33.3656 46.7964C32.8252 55.4438 38.7703 63.0103 46.8772 65.1722C45.7963 66.7936 44.7154 68.9554 44.7154 71.6577C44.175 78.6838 49.5795 84.6289 56.6055 84.6289C62.0102 84.6289 66.8745 81.3861 69.0363 77.0624L126.866 31.6634C133.351 30.042 138.216 25.1778 138.216 19.2327Z" fill="#FFC54D"/>
<path d="M57.6867 85.169C50.6607 84.6286 44.7155 78.6835 45.2559 71.117C45.2559 68.9551 45.7965 67.3337 46.8774 65.1719C38.7704 62.4695 33.3658 54.903 33.9063 46.2556C34.4468 37.0677 40.9323 30.0417 50.1202 28.4203C49.5798 26.7989 49.0393 24.637 49.5797 22.4752C50.1202 13.2873 58.2271 5.7208 67.415 6.26126C71.7387 6.26126 76.0625 8.42312 78.7648 11.6659C79.8457 5.18033 86.3313 0.316162 93.3574 0.316162C98.2215 0.316162 102.545 3.55891 105.247 7.88263C106.869 5.72077 109.571 4.0994 112.814 4.0994C115.516 4.0994 117.678 5.72078 119.3 7.34217C122.002 5.72078 124.704 4.63985 127.947 4.63985C134.973 5.18032 140.918 11.1254 140.378 18.6919C139.837 24.637 135.513 30.0417 129.568 31.1226L71.7388 76.5216C67.9555 81.9262 63.0913 85.169 57.6867 85.169ZM66.8745 8.42313C58.2271 7.88266 50.6607 14.9087 50.1202 23.0156C50.1202 25.1775 50.1201 27.3393 51.2011 28.9607V29.5012H50.6606C42.0131 30.5821 35.5276 37.6082 34.9871 46.2556C34.4467 54.3626 39.8513 61.9291 47.9582 64.0909H49.0392L48.4987 64.6314C47.4178 66.2528 46.8774 68.4146 46.3369 70.5765C45.7964 77.0621 51.2011 82.4667 57.6867 83.0072C62.5509 83.0072 67.4151 80.3048 69.0365 75.4407V74.9002L126.866 29.5012C132.271 28.4203 136.594 24.0966 137.135 18.1515C137.675 11.6659 132.271 6.26127 125.785 5.7208C122.542 5.7208 119.84 6.80173 117.678 8.42313L117.138 8.96358L116.597 8.42313C115.516 6.26127 113.354 5.18031 110.652 5.18031C107.95 5.18031 105.248 6.80172 103.626 9.50404L103.086 10.5849L102.545 9.50404C100.383 5.18032 96.6 1.93753 91.1954 1.93753C84.7098 1.39707 78.7647 6.8017 77.6838 13.2873V14.9087L76.6029 13.8278C74.9816 10.585 71.1982 8.42313 66.8745 8.42313Z" fill="#0A0A0A"/>
<path d="M212.801 93.2752L229.555 87.3301L221.989 104.084L231.717 119.217L215.503 120.298L212.801 93.2752Z" fill="#0AC3C8"/>
<path d="M214.963 120.839L212.26 92.7351L230.636 86.2495L222.529 104.085L232.798 119.218L214.963 120.839ZM213.882 93.816L216.044 119.758L230.636 118.677L220.908 104.625L227.934 88.4114L213.882 93.816Z" fill="#0A0A0A"/>
<path d="M105.248 38.1495L96.6001 24.0974L91.7359 39.2304L74.4412 38.69L84.1695 51.6611L105.248 38.1495Z" fill="#0AC3C8"/>
<path d="M84.1694 52.7418L73.3601 38.1493L91.1954 38.6898L96.6 22.4758L105.788 38.1493L84.1694 52.7418ZM76.0624 39.2302L84.1694 50.58L104.167 37.6088L97.1405 25.1782L92.2764 39.7707L76.0624 39.2302Z" fill="#0A0A0A"/>
<path d="M69.0371 121.38C69.0371 121.38 59.8491 110.571 59.8491 89.4929C60.3896 68.4148 86.8724 9.50416 165.78 35.4464C243.607 61.3887 239.824 184.074 150.107 166.779C60.9301 149.484 69.0371 121.38 69.0371 121.38Z" fill="#EBA42D"/>
<path d="M163.077 169.482C158.754 169.482 154.43 168.942 150.106 167.861C96.0598 157.592 77.1435 143 71.1984 132.731C67.9556 127.326 68.4961 123.002 68.4961 121.922C66.8747 120.3 59.3081 109.491 59.3081 90.0341C59.3081 80.8462 65.2532 61.3895 80.9267 46.797C94.4383 34.3663 112.814 27.8807 133.352 28.9616C143.621 29.5021 154.43 31.664 166.32 35.4472C208.476 49.4993 226.852 92.1959 220.907 125.705C216.583 147.864 199.288 171.104 163.077 169.482ZM133.352 30.0426C112.814 28.9617 95.5193 34.9067 82.0077 47.3374C66.8747 61.3895 60.9296 80.3057 60.9296 89.4936C60.3891 110.031 69.5769 120.841 69.5769 120.841V121.381C69.5769 121.381 68.496 125.705 72.2792 131.65C78.2243 141.378 97.1406 155.971 150.647 166.24C154.97 167.32 159.294 167.861 163.077 167.861C192.803 169.482 213.881 153.268 219.286 125.164C225.771 92.7364 207.395 50.5802 165.78 36.5281C154.43 32.7449 143.621 30.583 133.352 30.0426Z" fill="#0A0A0A"/>
<path d="M124.165 53.8214C124.165 53.8214 72.8207 51.1191 55.5258 101.923C34.9882 161.914 119.841 219.744 176.049 135.972C176.049 135.972 118.22 115.975 124.165 53.8214Z" fill="#F9D8B7"/>
<path d="M107.41 178.129C89.0337 177.048 72.2794 167.86 61.4701 152.187C51.2012 137.054 48.499 118.678 54.4441 101.383C71.739 50.5795 123.083 52.7413 123.623 52.7413H124.164V53.2818C118.219 114.354 174.968 134.351 175.508 134.892L176.049 135.432L175.508 135.973C157.132 164.617 132.811 179.75 107.41 178.129ZM123.083 54.3627C117.138 54.3627 71.7389 55.4436 56.0654 101.924C50.1203 118.678 52.8227 137.054 62.5511 151.646C72.8199 166.779 89.5742 175.967 107.41 177.048C132.271 178.129 156.051 163.536 174.968 135.973C167.942 133.271 118.219 111.652 123.083 54.3627Z" fill="#0A0A0A"/>
<path d="M117.679 115.975C117.679 119.218 116.057 121.38 113.895 121.38C112.274 121.38 110.653 118.677 110.653 115.975C110.653 112.732 112.274 110.57 114.436 110.57C116.598 110.57 117.679 112.732 117.679 115.975Z" fill="black"/>
<path d="M72.8199 103.005C72.2794 106.248 70.6581 108.41 69.0367 107.869C67.4154 107.869 66.8748 105.167 66.8748 101.924C67.4152 98.6812 69.0367 96.5194 70.6581 97.0598C72.8199 97.0598 73.3604 99.7622 72.8199 103.005Z" fill="black"/>
<path d="M117.679 95.9781C117.679 95.4376 107.41 68.4144 121.462 54.9028C114.436 57.0647 97.6813 65.1716 94.4385 86.2497H93.3577C97.6814 58.6861 123.624 52.741 124.164 52.741L124.705 53.8219C108.491 65.7121 118.759 94.8972 118.759 95.4377L117.679 95.9781Z" fill="#0A0A0A"/>
<path d="M99.3026 144.08C76.0626 142.999 64.7129 132.189 64.7129 132.189L65.7939 131.108C65.7939 131.108 84.1697 148.944 123.083 140.837V141.918C113.895 144.08 105.788 144.62 99.3026 144.08Z" fill="#0A0A0A"/>
<path d="M123.084 141.377C96.0611 146.241 79.8472 140.837 71.7402 136.513C72.8212 142.458 74.983 150.025 79.3067 156.51C90.6565 173.805 119.301 181.912 123.084 156.51C124.165 150.025 123.625 145.16 123.084 141.377Z" fill="#D92231"/>
<path d="M105.248 172.724C95.5193 172.184 84.7101 165.698 78.765 156.51C74.9817 151.106 72.2794 144.08 71.1985 136.513V135.432L72.2793 135.973C77.684 138.675 86.3314 142.458 99.3025 142.999C106.869 143.539 114.976 142.999 123.083 141.377H123.623V141.918C124.704 146.242 124.704 151.106 124.164 156.51C122.002 167.32 115.516 173.265 105.248 172.724ZM72.2793 137.594C73.9007 144.62 76.0627 150.565 79.8459 155.97C85.7911 164.617 96.0598 171.103 105.248 171.643C110.652 172.184 120.381 170.022 122.543 155.97C123.083 151.106 123.083 146.242 122.543 141.918C114.436 143.539 106.329 144.08 98.7622 143.539C86.3315 143.539 77.684 140.297 72.2793 137.594Z" fill="#0A0A0A"/>
<path d="M105.789 162.995C100.924 163.536 98.2221 166.238 95.5198 169.481C104.167 173.264 113.355 172.724 118.76 166.238C114.976 164.076 110.653 162.455 105.789 162.995Z" fill="#FD837C"/>
<path d="M99.8432 153.808C104.707 153.808 114.976 154.889 123.083 152.187C123.083 148.403 123.083 144.62 122.543 141.918C108.491 144.62 96.6006 144.08 87.9531 142.458C91.1959 147.863 96.06 153.808 99.8432 153.808Z" fill="white"/>
<path d="M197.668 114.354C197.127 114.354 197.127 114.354 197.668 114.354C169.564 112.733 142 78.1432 142 78.1432L143.081 77.6028C143.081 78.1432 170.645 111.652 197.668 113.273C206.856 113.814 214.963 110.571 221.989 104.086L223.07 105.166C214.963 111.652 206.856 114.895 197.668 114.354Z" fill="#0A0A0A"/>
<path d="M181.453 133.811V132.73C181.993 132.73 207.395 133.811 220.906 104.626L221.987 105.167C208.476 134.892 182.534 133.811 181.453 133.811Z" fill="#0A0A0A"/>
<path d="M220.366 103.005C178.21 81.386 173.346 59.7675 173.346 58.6865H174.427C174.427 58.6865 179.291 80.8456 220.907 101.924L220.366 103.005Z" fill="#0A0A0A"/>
<g opacity="0.5">
<path d="M131.731 97.0588C131.731 97.0588 151.728 131.108 137.676 157.05C126.867 177.588 98.7627 180.29 79.8464 168.4C79.8464 168.4 127.407 205.152 176.049 135.972C176.049 135.972 146.323 125.163 131.731 97.0588Z" fill="#D76B2A"/>
</g>
</svg>
