<svg width="405" height="201" viewBox="0 0 405 201" fill="none" xmlns="http://www.w3.org/2000/svg">
<path d="M344.014 145.838C341.93 142.712 341.582 138.37 344.882 136.113C349.397 132.987 363.637 128.125 369.889 129.514C375.793 130.903 374.925 135.418 371.451 138.37C366.763 142.538 349.223 153.478 344.014 145.838Z" fill="#D81F2C"/>
<path d="M349.745 148.963C346.966 148.963 344.882 147.921 343.493 146.185C343.493 146.185 343.493 146.185 343.493 146.011C342.277 144.275 341.756 142.364 341.93 140.628C342.104 138.544 342.972 136.981 344.709 135.765C348.703 132.987 360.164 128.819 367.284 128.819C368.326 128.819 369.368 128.993 370.062 129.166C373.362 129.861 374.404 131.598 374.577 132.64C375.098 134.55 374.057 136.981 371.799 138.891C367.805 142.364 357.038 148.963 349.745 148.963ZM367.11 129.861C360.164 129.861 349.05 134.029 345.056 136.634C343.319 137.849 342.798 139.586 342.798 140.628C342.625 142.191 343.146 143.927 344.188 145.317L344.361 145.49C345.403 147.053 347.313 147.921 349.745 147.921C357.038 147.921 367.805 140.975 371.104 138.023C373.015 136.286 374.057 134.376 373.536 132.813C373.188 131.424 371.799 130.556 369.715 130.035C369.02 130.035 368.152 129.861 367.11 129.861Z" fill="#1D1C1A"/>
<path d="M369.889 129.687C367.284 128.993 363.29 129.514 359.122 130.556C357.385 132.987 356.864 136.286 357.733 139.586C358.254 141.322 359.122 143.754 360.511 145.49C365.2 143.233 369.541 140.281 371.451 138.544C374.925 135.592 375.793 131.077 369.889 129.687Z" fill="#E5E2CD"/>
<path d="M360.511 146.011C360.337 146.011 360.164 146.011 360.164 145.838C358.601 143.58 357.733 140.801 357.385 139.76C356.517 136.46 357.038 133.161 358.948 130.382C358.948 130.208 359.122 130.208 359.296 130.208C363.984 128.993 367.805 128.646 370.236 129.34C373.535 130.035 374.577 131.771 374.751 132.813C375.272 134.723 374.23 137.155 371.972 139.065C369.889 140.801 365.547 143.754 360.858 146.011C360.685 146.011 360.511 146.011 360.511 146.011ZM359.469 130.903C357.906 133.334 357.385 136.286 358.254 139.239C358.601 140.28 359.296 142.712 360.685 144.622C365.2 142.364 369.194 139.76 371.104 138.023C373.014 136.286 374.056 134.376 373.535 132.813C373.188 131.424 371.799 130.556 369.715 130.035C367.631 129.514 363.811 129.861 359.469 130.903Z" fill="#1D1C1A"/>
<path d="M360.858 142.017C364.852 140.107 371.625 136.807 373.883 132.119C374.925 134.029 373.709 136.634 371.451 138.544C366.936 142.538 349.397 153.305 344.014 145.838C349.571 146.879 355.996 144.275 360.858 142.017Z" fill="#E5E2CD"/>
<path d="M349.744 148.963C346.966 148.963 344.882 148.095 343.666 146.185C343.493 146.011 343.493 145.838 343.666 145.664C343.84 145.49 344.014 145.49 344.187 145.49C344.882 145.664 345.75 145.664 346.445 145.664C351.481 145.664 357.038 143.406 360.685 141.67C364.332 139.933 371.278 136.634 373.535 131.945C373.535 131.771 373.709 131.598 374.056 131.598C374.23 131.598 374.404 131.771 374.577 131.945C375.619 134.029 374.577 136.807 372.146 139.065C367.805 142.364 357.038 148.963 349.744 148.963ZM345.229 146.532C346.271 147.4 347.834 147.921 349.744 147.921C357.038 147.921 367.805 140.975 371.104 138.197C372.841 136.634 373.709 134.897 373.709 133.334C370.93 137.676 364.679 140.801 361.032 142.364C357.385 144.101 351.828 146.532 346.445 146.532C346.098 146.532 345.577 146.532 345.229 146.532Z" fill="#1D1C1A"/>
<path d="M356.691 138.718C356.517 138.891 356.17 138.718 355.996 138.544C353.912 135.244 349.918 135.244 349.918 135.244C349.571 135.244 349.397 135.071 349.397 134.723C349.397 134.376 349.571 134.203 349.918 134.203C350.092 134.203 354.607 134.203 356.864 138.023C357.038 138.197 356.864 138.544 356.691 138.718Z" fill="#1D1C1A"/>
<path d="M350.092 140.802C349.918 140.802 349.918 140.802 349.745 140.802C349.397 140.802 349.224 140.454 349.397 140.107C349.397 139.933 350.613 134.897 356.864 131.598C357.038 131.424 357.385 131.598 357.559 131.771C357.733 131.945 357.559 132.292 357.385 132.466C357.212 132.466 357.212 132.64 357.038 132.64C351.655 135.592 350.613 140.281 350.439 140.281C350.439 140.628 350.266 140.628 350.092 140.802Z" fill="#1D1C1A"/>
<path d="M344.535 138.544C344.188 138.544 343.667 138.197 343.493 137.849C339.499 124.651 327.69 89.9201 320.57 86.9679C313.798 84.0158 300.426 100.166 295.737 106.591C295.39 107.112 294.869 107.112 294.348 106.765C293.827 106.417 293.827 105.897 294.174 105.376C295.911 102.944 311.887 81.0636 321.439 85.0577C330.469 88.8782 343.84 132.292 345.403 137.328C345.577 137.849 345.23 138.37 344.709 138.544H344.535Z" fill="#1D1C1A"/>
<path d="M270.21 127.256L301.642 93.3932L322.654 134.376C322.654 134.376 302.163 157.473 279.414 159.035C256.839 160.598 270.21 127.256 270.21 127.256Z" fill="#466A84"/>
<path d="M277.851 159.556C273.336 159.556 270.036 157.994 268.126 155.041C262.222 146.359 269.515 127.951 269.863 127.083C269.863 127.083 269.863 126.909 270.036 126.909L301.468 93.0459C301.642 92.8723 301.816 92.8723 301.989 92.8723C302.163 92.8723 302.337 93.0459 302.337 93.2196L323.349 134.203C323.523 134.376 323.349 134.55 323.349 134.724C323.175 134.897 302.337 157.994 279.935 159.556C278.893 159.383 278.372 159.556 277.851 159.556ZM270.731 127.43C270.21 128.819 263.611 146.359 268.994 154.347C271.078 157.299 274.551 158.688 279.414 158.341C300.253 156.778 319.702 136.634 321.96 134.029L301.468 94.0879L270.731 127.43Z" fill="#1D1C1A"/>
<path d="M389.859 163.898C389.686 163.898 389.512 163.898 389.338 163.724C388.817 163.551 343.146 141.322 332.552 141.496C321.786 141.843 301.989 146.359 301.815 146.532C301.294 146.706 300.773 146.359 300.6 145.838C300.426 145.317 300.773 144.796 301.294 144.622C302.163 144.448 321.438 139.933 332.379 139.586H332.552C344.014 139.586 388.123 161.119 390.033 161.988C390.554 162.161 390.727 162.856 390.554 163.377C390.554 163.724 390.206 163.898 389.859 163.898Z" fill="#1D1C1A"/>
<path d="M392.811 168.934H392.638C388.991 168.587 385.518 166.155 385.865 162.161C386.386 156.778 391.596 142.538 396.632 138.718C401.494 135.071 404.273 138.544 404.446 143.233C404.794 149.137 402.015 169.629 392.811 168.934Z" fill="#D81F2C"/>
<path d="M393.332 169.455C393.158 169.455 392.985 169.455 392.811 169.455H392.637C390.554 169.281 388.817 168.413 387.428 167.197C385.865 165.808 385.17 164.071 385.344 161.988C385.865 156.431 391.075 142.017 396.284 138.197C397.674 137.155 399.063 136.634 400.278 136.634C402.883 136.634 404.793 139.239 404.967 143.059C405.141 147.227 403.752 161.467 398.195 167.197C396.805 168.587 395.069 169.455 393.332 169.455ZM400.278 137.502C399.236 137.502 398.195 138.023 396.805 138.891C391.943 142.538 386.733 156.604 386.212 161.988C386.039 164.071 387.08 165.461 387.949 166.329C389.164 167.371 390.727 168.066 392.464 168.239H392.637C394.374 168.413 395.937 167.718 397.326 166.155C402.362 160.946 403.925 147.574 403.752 142.885C403.925 140.281 402.71 137.502 400.278 137.502Z" fill="#1D1C1A"/>
<path d="M396.632 138.544C394.548 140.107 392.291 143.58 390.554 147.4C391.422 150.353 393.506 152.784 396.632 154.173C398.369 154.868 400.626 155.736 402.884 155.91C404.099 150.874 404.62 145.664 404.446 143.059C404.273 138.37 401.494 134.897 396.632 138.544Z" fill="#E5E2CD"/>
<path d="M402.883 156.431C400.105 156.257 397.326 155.215 396.284 154.694C393.159 153.305 390.901 150.874 390.033 147.574C390.033 147.4 390.033 147.4 390.033 147.227C391.422 144.101 393.68 140.107 396.284 138.197C397.674 137.155 399.063 136.634 400.278 136.634C402.883 136.634 404.794 139.239 404.967 143.059C405.141 145.664 404.62 150.874 403.404 156.083C403.404 156.257 403.057 156.431 402.883 156.431ZM391.075 147.4C391.943 150.179 394.027 152.436 396.805 153.652C397.674 153.999 400.105 155.041 402.536 155.215C403.752 150.353 404.099 145.49 404.099 142.885C403.925 140.107 402.883 137.328 400.452 137.328C399.41 137.328 398.368 137.849 396.979 138.718C395.069 140.281 393.159 143.233 391.075 147.4Z" fill="#1D1C1A"/>
<path d="M400.452 153.478C401.494 149.311 403.23 141.843 400.973 137.155C403.057 137.676 404.446 140.107 404.446 143.059C404.62 149.137 402.015 169.455 392.811 168.934C397.152 165.113 399.236 158.515 400.452 153.478Z" fill="#E5E2CD"/>
<path d="M393.332 169.455C393.158 169.455 392.985 169.455 392.985 169.455C392.811 169.455 392.638 169.281 392.464 169.108C392.464 168.934 392.464 168.76 392.638 168.587C396.979 164.766 398.889 158.167 400.105 153.478C401.147 149.484 402.883 142.017 400.626 137.502C400.626 137.328 400.626 137.155 400.626 136.981C400.799 136.807 400.973 136.807 401.147 136.807C403.404 137.328 404.967 139.76 404.967 143.233C405.141 147.4 403.752 161.64 398.195 167.371C396.805 168.587 395.069 169.455 393.332 169.455ZM401.841 138.023C403.404 142.885 401.841 149.832 400.799 153.478C399.757 157.994 397.847 164.245 394.027 168.239C395.242 168.066 396.284 167.371 397.326 166.329C402.362 161.119 403.925 147.748 403.752 143.059C403.925 140.802 403.057 138.891 401.841 138.023Z" fill="#1D1C1A"/>
<path d="M395.242 154.52C395.242 154.868 394.895 155.041 394.721 154.868C390.901 154.347 388.296 157.473 388.296 157.473C388.122 157.646 387.775 157.646 387.601 157.473C387.428 157.299 387.428 156.952 387.601 156.778C387.775 156.604 390.554 153.131 395.069 153.826C395.069 153.999 395.416 154.347 395.242 154.52Z" fill="#1D1C1A"/>
<path d="M392.638 160.772C392.638 160.946 392.638 160.946 392.464 161.119C392.29 161.293 391.943 161.293 391.769 160.946C391.596 160.772 388.47 156.604 389.859 149.832C389.859 149.484 390.206 149.311 390.554 149.484C390.901 149.484 391.075 149.832 390.901 150.179C390.901 150.353 390.901 150.526 390.901 150.526C389.859 156.604 392.638 160.425 392.638 160.425C392.638 160.598 392.811 160.772 392.638 160.772Z" fill="#1D1C1A"/>
<path d="M235.479 134.724C235.479 134.724 237.736 170.15 265 171.886C290.875 173.623 321.96 171.712 321.96 171.712L318.139 134.376L282.019 131.424L253.886 124.999L235.479 134.724Z" fill="#466A84"/>
<path d="M288.965 173.102C280.108 173.102 271.946 172.928 265 172.407C237.562 170.67 235.131 135.071 234.958 134.724C234.958 134.55 235.131 134.376 235.305 134.203L253.712 124.478C253.886 124.478 253.886 124.478 254.06 124.478L282.192 130.903L318.139 133.682C318.313 133.682 318.486 133.855 318.66 134.203L322.481 171.539C322.481 171.712 322.48 171.886 322.307 171.886C322.307 172.06 322.133 172.06 321.96 172.06C321.786 172.233 306.678 173.102 288.965 173.102ZM235.999 134.897C236.347 138.37 239.82 169.629 265 171.365C271.946 171.886 280.108 172.06 288.965 172.06C304.768 172.06 318.486 171.365 321.265 171.191L317.618 134.724L282.018 131.945L253.886 125.52L235.999 134.897Z" fill="#1D1C1A"/>
<path d="M222.801 106.417C222.454 106.417 221.933 106.07 221.933 105.723C221.759 105.202 222.107 104.681 222.628 104.507C222.801 104.507 239.993 98.9503 237.215 88.0099C234.263 76.2012 228.706 65.0872 228.706 64.9135C228.532 64.3926 228.706 63.8716 229.227 63.5243C229.748 63.3506 230.269 63.5243 230.616 64.0453C230.616 64.2189 236.347 75.5066 239.299 87.4889C242.425 100.166 224.191 106.07 223.322 106.244C222.975 106.417 222.975 106.417 222.801 106.417Z" fill="#1D1C1A"/>
<path d="M206.825 37.6494L262.048 98.4293L300.252 81.7582L258.575 34.5236L206.825 37.6494Z" fill="#D2E9D0"/>
<path d="M262.048 98.9502C261.874 98.9502 261.701 98.9502 261.701 98.7766L206.651 37.9967C206.478 37.8231 206.478 37.6494 206.478 37.4757C206.478 37.3021 206.651 37.1284 206.999 37.1284L258.748 34.1763C258.922 34.1763 259.096 34.1763 259.096 34.3499L300.6 81.5845C300.773 81.7582 300.773 81.9319 300.773 82.1055C300.773 82.2792 300.6 82.4528 300.426 82.4528L262.222 99.1239C262.048 98.7766 262.048 98.9502 262.048 98.9502ZM207.867 37.9967L262.048 97.7346L299.384 81.5845L258.401 35.0446L207.867 37.9967Z" fill="#1D1C1A"/>
<path d="M233.395 72.5544C233.395 72.5544 229.227 81.2373 225.233 68.0393C224.191 64.5662 226.101 54.6678 229.748 60.9194C232.7 65.6081 230.79 64.7399 234.263 66.3028C237.91 67.8657 236 73.4227 233.395 72.5544Z" fill="#F7D6B6"/>
<path d="M230.095 75.8539C228.011 75.8539 226.275 73.2491 224.712 68.0394C224.017 65.7818 224.538 61.0931 225.927 59.1829C226.448 58.4882 227.143 58.3146 227.49 58.3146C228.359 58.3146 229.227 59.0092 230.269 60.5721C231.311 62.135 231.658 63.177 232.005 63.6979C232.526 64.7399 232.526 64.7399 234.437 65.6082L234.61 65.7818C236.694 66.6501 237.041 68.734 236.694 70.2969C236.347 72.0335 234.958 73.4227 233.568 73.2491C233.221 73.9437 231.832 75.8539 230.095 75.8539ZM227.49 59.3565C227.317 59.3565 226.969 59.5302 226.796 59.8775C225.58 61.4404 225.233 65.9555 225.754 67.8657C227.664 73.9437 229.227 74.812 230.095 74.812C231.311 74.812 232.526 72.9017 232.874 72.2071C233.047 72.0335 233.221 71.8598 233.395 72.0335C234.263 72.3808 235.305 71.3388 235.652 69.9496C235.826 68.734 235.652 67.3447 234.089 66.6501L233.916 66.4764C231.658 65.4345 231.658 65.4345 230.964 64.0453C230.616 63.3506 230.269 62.4823 229.401 60.9194C228.532 59.7038 227.838 59.3565 227.49 59.3565Z" fill="#1D1C1A"/>
<path d="M62.8637 104.681C62.8637 104.681 18.9286 137.155 8.5092 176.575C8.5092 176.575 0.520996 178.138 0.520996 184.563C0.520996 190.988 11.4614 183 11.4614 183C11.4614 183 85.7864 217.384 157.159 188.904C157.159 188.904 168.1 193.94 168.1 188.904C168.1 183.868 162.543 182.479 162.543 182.479C162.543 182.479 178.519 170.497 178.519 130.035C178.693 89.7464 62.8637 104.681 62.8637 104.681Z" fill="#8C87C0"/>
<path d="M95.8585 200.713C51.2287 200.713 15.1081 185.084 11.635 183.521C10.5931 184.389 5.73067 187.515 2.77851 187.515C1.73657 187.515 0 187.168 0 184.389C0 178.311 6.59896 176.401 8.16187 176.054C18.7549 136.981 62.1691 104.507 62.6901 104.16C62.6901 104.16 62.8637 104.16 62.8637 103.986C63.0374 103.986 84.0499 101.208 108.014 101.208C127.811 101.208 143.961 102.944 155.77 106.591C171.399 111.28 179.214 119.094 179.214 129.861C179.214 165.808 166.884 179.18 163.758 182.132C165.321 182.826 168.794 184.737 168.794 188.731C168.794 189.773 168.447 190.467 167.752 190.815C167.231 191.162 166.363 191.336 165.495 191.336C162.543 191.336 158.375 189.599 157.333 189.078C138.404 196.893 117.739 200.713 95.8585 200.713ZM11.4613 182.479H11.635C11.9823 182.653 49.3185 199.671 95.6848 199.671C117.566 199.671 138.231 195.851 156.812 188.383C156.986 188.383 157.159 188.383 157.159 188.383C157.159 188.383 162.022 190.641 165.148 190.641C165.842 190.641 166.537 190.467 166.884 190.294C167.231 189.946 167.405 189.599 167.405 188.904C167.405 184.389 162.369 182.826 162.369 182.826C162.195 182.826 162.022 182.653 162.022 182.479C162.022 182.305 162.022 182.132 162.195 181.958C162.195 181.958 166.189 178.832 170.01 171.018C173.657 163.724 177.824 150.7 177.824 130.035C177.824 107.112 139.62 102.423 107.667 102.423C84.9181 102.423 64.6003 104.855 62.8637 105.028C60.4325 106.765 18.7549 138.718 8.85649 176.575C8.85649 176.748 8.68284 176.922 8.50918 176.922C8.16187 176.922 0.868284 178.485 0.868284 184.389C0.868284 186.126 1.73657 186.473 2.60485 186.473C5.55701 186.473 10.9404 182.653 11.114 182.479C11.2877 182.479 11.4613 182.479 11.4613 182.479Z" fill="#1D1C1A"/>
<path d="M103.499 184.389C118.086 184.563 131.458 178.659 143.267 170.497C155.249 162.335 167.058 152.61 175.219 140.454C176.435 138.718 177.477 136.981 178.519 135.071C178.519 133.508 178.693 131.771 178.693 130.035C178.693 89.5728 62.8636 104.507 62.8636 104.507C62.8636 104.507 56.9593 108.849 49.1447 116.142C44.8033 148.79 67.3787 183.868 103.499 184.389Z" fill="#8C87C0"/>
<path d="M21.1863 180.916C21.1863 180.916 71.0257 170.323 148.998 186.821C148.824 186.821 92.0382 207.138 21.1863 180.916Z" fill="#FDF7C5"/>
<path d="M95.5114 194.809C70.1575 194.809 44.9773 190.294 20.839 181.264C20.6654 181.264 20.4917 180.916 20.4917 180.743C20.4917 180.569 20.6654 180.395 20.839 180.222C21.0127 180.222 36.9891 176.922 64.2532 176.922C91.3436 176.922 119.823 180.048 148.824 186.3C148.998 186.3 149.171 186.473 149.171 186.821C149.171 186.994 148.998 187.168 148.824 187.342C148.824 187.342 127.638 194.809 95.5114 194.809ZM23.0965 181.09C46.5402 189.599 71.0258 193.94 95.6851 193.94C122.255 193.94 141.357 188.731 147.087 186.994C118.781 181.09 90.9963 178.138 64.6005 178.138C42.3724 177.964 27.7853 180.222 23.0965 181.09Z" fill="#1D1C1A"/>
<path d="M185.466 111.454C185.987 110.759 186.855 110.064 187.55 109.37C193.107 105.549 199.011 102.423 205.263 100.166C211.341 97.9083 217.766 96.3454 224.018 95.3035C224.018 95.3035 230.443 110.759 227.838 121.005C227.838 121.005 205.436 126.735 195.712 125.693C192.759 125.346 189.981 125.172 187.202 123.61C182.514 121.005 182.514 115.274 185.466 111.454Z" fill="#BCE4ED"/>
<path d="M198.663 126.214C197.622 126.214 196.58 126.214 195.885 126.041H195.364C192.585 125.693 189.807 125.346 187.202 123.957C185.118 122.741 183.729 121.005 183.208 118.747C182.687 116.142 183.382 113.19 185.118 110.933C185.813 110.064 186.508 109.37 187.376 108.849C193.28 104.855 199.184 101.729 205.262 99.4712C211.167 97.2137 217.592 95.6508 224.191 94.6088C224.365 94.6088 224.712 94.7825 224.712 94.9562C224.886 95.6508 231.137 110.759 228.532 121.005C228.532 121.178 228.359 121.352 228.185 121.352C228.011 121.352 209.257 126.214 198.663 126.214ZM223.844 95.8244C217.418 96.8664 211.167 98.6029 205.436 100.687C199.358 102.944 193.627 105.897 187.723 109.891C187.028 110.412 186.334 111.106 185.639 111.801C184.076 113.885 183.382 116.49 183.903 118.747C184.25 120.657 185.466 122.22 187.376 123.262C189.807 124.478 192.412 124.825 195.19 125.172H195.711C196.58 125.346 197.448 125.346 198.49 125.346C208.215 125.346 225.059 121.178 227.49 120.657C229.574 111.454 224.712 98.082 223.844 95.8244Z" fill="#1D1C1A"/>
<path opacity="0.5" d="M212.035 108.501C204.047 106.591 197.101 106.418 189.807 107.98C189.112 108.501 188.244 108.849 187.549 109.37C186.681 109.891 185.987 110.585 185.466 111.454C182.513 115.274 182.513 121.178 187.376 123.61C189.981 124.999 192.933 125.346 195.885 125.693C205.61 126.735 228.011 121.005 228.011 121.005C228.532 118.747 228.706 116.316 228.532 113.885C223.149 111.627 217.592 109.891 212.035 108.501Z" fill="#5CC0D5"/>
<path d="M175.22 123.436C176.436 121.005 177.825 118.747 179.735 116.837C184.771 111.801 191.717 109.37 198.316 107.286C217.592 100.86 273.857 107.286 274.031 107.98C274.031 107.98 283.061 145.838 266.737 175.186C259.443 173.97 178.346 160.598 172.615 142.885C171.573 139.76 171.4 134.203 172.441 130.903C173.136 128.472 174.004 125.867 175.22 123.436Z" fill="#BCE4ED"/>
<path d="M266.737 175.707H266.39C245.725 172.233 177.478 159.556 172.094 143.059C171.052 139.586 170.879 134.029 171.747 130.729C172.789 127.604 173.657 125.346 174.525 123.262C175.915 120.484 177.304 118.4 179.214 116.49C184.076 111.627 190.675 109.196 197.969 106.765C203.7 104.855 213.077 103.986 225.928 103.986C238.778 103.986 251.803 105.028 258.402 105.549C274.204 106.938 274.378 107.459 274.378 107.807C274.552 108.154 283.234 146.185 267.084 175.533C267.084 175.533 266.911 175.707 266.737 175.707ZM226.101 104.855C213.424 104.855 204.047 105.723 198.49 107.633C191.196 110.064 184.945 112.322 180.082 117.184C178.346 118.921 176.957 121.005 175.741 123.609C174.699 125.693 173.831 127.951 172.962 131.077C172.094 134.029 172.094 139.586 173.136 142.712C177.304 155.389 224.018 167.545 266.39 174.665C281.498 147.053 274.204 111.627 273.51 108.328C271.079 107.633 247.635 104.855 226.101 104.855Z" fill="#1D1C1A"/>
<path opacity="0.5" d="M274.031 107.807C274.031 107.633 270.21 107.112 264.48 106.417C265.522 109.717 266.39 113.016 266.911 116.49C267.779 122.047 267.779 127.951 266.911 133.682C265.174 144.622 259.096 153.131 246.94 152.089C232.7 150.874 219.676 144.622 205.784 141.843C197.795 140.281 188.244 139.065 180.43 141.67C177.999 142.538 175.915 143.58 173.831 144.796C184.945 161.293 259.791 173.796 266.737 175.012C283.061 145.838 274.031 107.807 274.031 107.807Z" fill="#5CC0D5"/>
<path d="M192.065 125.172C192.933 121.873 191.544 118.747 188.765 118.053L172.094 113.885C169.489 113.19 166.711 115.274 165.842 118.574C164.974 121.873 166.363 124.999 168.968 125.693L185.639 129.861C188.418 130.556 191.196 128.472 192.065 125.172Z" fill="#F7D6B6"/>
<path d="M186.681 130.556C186.334 130.556 185.987 130.556 185.639 130.382L168.968 126.214C166.016 125.52 164.453 122.047 165.321 118.4C166.016 115.274 168.447 113.19 171.052 113.19C171.399 113.19 171.747 113.19 172.094 113.364L188.765 117.532C191.717 118.226 193.28 121.699 192.412 125.346C191.717 128.298 189.286 130.556 186.681 130.556ZM171.052 114.058C168.968 114.058 166.884 115.969 166.19 118.574C165.495 121.526 166.711 124.478 168.968 125.172L185.639 129.34C187.897 129.861 190.502 127.951 191.196 124.999C191.891 122.047 190.675 119.094 188.418 118.4L171.747 114.232C171.747 114.232 171.399 114.058 171.052 114.058Z" fill="#1D1C1A"/>
<path d="M149.866 26.7091C141.356 23.4096 132.326 21.673 122.949 21.673C109.23 21.8467 95.5111 25.4935 84.2234 33.308C66.6841 45.464 54.5281 65.4345 52.0969 86.6207C51.4023 92.1777 51.4023 98.082 52.0969 103.813C52.7915 108.849 53.8335 114.058 55.7437 118.747C64.0792 140.454 82.8341 156.083 105.41 161.467C123.991 165.808 143.788 160.772 159.938 149.137C176.609 136.981 192.064 118.747 195.19 98.082C196.058 92.525 196.058 87.1416 195.364 81.5846C193.974 69.0813 191.196 59.1829 183.034 49.8054C174.178 39.5597 162.716 31.3978 149.866 26.7091Z" fill="#F7D6B6"/>
<path d="M118.955 163.724C114.266 163.724 109.751 163.203 105.236 162.161C82.3131 156.778 63.5582 140.628 55.2227 119.094C53.4861 114.579 52.2705 109.37 51.5759 103.986C50.8813 98.2556 50.8813 92.1776 51.5759 86.7943C54.1808 65.4345 66.3367 45.2903 84.0497 33.1343C94.8164 25.6671 108.709 21.4993 123.122 21.3257H123.817C132.674 21.3257 141.53 23.0623 150.213 26.1881C163.063 31.0505 174.525 39.2123 183.729 49.6317C192.238 59.5302 194.843 69.6022 196.232 81.7582C196.927 87.8362 196.753 93.2196 196.058 98.2556C193.28 116.663 180.256 135.418 160.632 149.658C147.782 158.688 133.195 163.724 118.955 163.724ZM123.643 22.194H122.949C108.709 22.3676 95.1637 26.3617 84.397 33.829C66.8577 45.9849 55.049 65.7818 52.4442 86.7943C51.7496 92.1776 51.7496 98.0819 52.4442 103.813C53.1388 109.022 54.3544 114.232 56.091 118.747C64.2528 139.933 82.8341 155.91 105.409 161.119C109.751 162.161 114.266 162.682 118.781 162.682C132.674 162.682 147.261 157.82 159.417 148.963C178.866 134.897 191.717 116.316 194.495 98.0819C195.19 93.0459 195.364 87.6625 194.669 81.7582C193.453 69.7759 190.849 59.8775 182.513 50.3264C173.483 39.907 162.022 31.9187 149.518 27.23C141.183 23.9305 132.326 22.194 123.643 22.194Z" fill="#1D1C1A"/>
<path d="M149.866 26.7091C141.357 23.4096 132.326 21.673 122.949 21.673C109.23 21.8467 95.5112 25.4935 84.2235 33.308C77.4509 37.9968 71.5465 43.9011 66.5105 50.6737C91.6907 29.3139 130.416 22.194 159.938 37.1285C184.423 49.4581 195.537 74.4647 190.849 101.381C189.459 109.37 187.028 117.879 183.381 125.867C189.286 117.532 193.627 108.154 195.016 98.2556C195.885 92.6986 195.885 87.3153 195.19 81.7583C193.801 69.255 191.022 59.3565 182.86 49.9791C174.178 39.5597 162.716 31.3978 149.866 26.7091Z" fill="#F7D6B6"/>
<path d="M127.638 14.2058C128.506 13.6848 144.482 9.16975 144.135 8.9961C125.554 -7.50129 104.02 5.87028 94.4692 10.038C79.1874 16.637 66.1631 35.9129 57.6539 49.9791C46.1926 69.255 40.1146 98.603 51.2286 119.615C50.3604 119.442 49.4921 119.094 48.7975 119.094C47.2345 118.921 42.0248 117.358 41.3302 119.615C40.4619 122.741 46.019 125.172 47.7555 126.388C49.6657 127.604 53.1389 130.208 56.091 130.903C54.8754 136.981 56.612 145.317 58.3486 149.832C58.5222 150.179 58.8695 150.526 59.2169 150.005C59.9115 148.963 63.9056 142.017 63.9056 142.712C66.8578 160.077 81.0976 170.15 85.7863 173.623C91.1697 177.79 96.553 181.785 101.936 185.779C101.068 183.695 99.8525 181.785 98.8106 179.701C97.7686 177.79 97.074 177.096 99.8525 180.395C102.11 183 104.194 185.779 106.625 188.21C106.625 188.21 106.625 188.21 106.799 188.21C111.661 171.191 129.895 169.629 147.955 157.473C156.291 152.784 162.022 147.574 161.848 147.748C151.429 150.179 142.398 149.484 133.716 138.891C130.59 136.286 126.248 131.598 123.644 128.298C126.248 129.514 131.805 126.388 131.458 126.041C126.248 119.442 111.314 92.004 108.883 82.1056C109.925 83.6685 118.607 94.7825 121.386 99.1239C121.56 99.2976 128.506 86.447 127.117 71.8598C126.422 64.3926 125.901 56.4044 123.123 49.1108C125.727 51.8893 128.332 54.6678 130.763 57.4463C131.284 58.1409 128.506 45.2904 125.206 40.7753C127.811 43.2065 130.069 46.5059 131.632 48.7635C131.979 49.2845 132.153 38.8651 130.59 34.5236C130.069 32.9607 129.201 30.8768 127.811 28.793C134.931 25.4935 141.53 24.7989 150.039 23.7569C151.602 23.5833 136.32 13.3375 127.638 14.2058Z" fill="#8B6C36"/>
<path d="M107.32 188.731C107.146 188.731 107.146 188.731 106.973 188.731C106.973 188.731 106.799 188.731 106.799 188.557C104.715 186.473 102.978 184.563 101.242 182.305C101.763 183.347 102.284 184.389 102.805 185.431C102.805 185.431 102.978 185.605 102.978 185.779C102.978 186.126 102.805 186.3 102.457 186.3C102.284 186.3 102.284 186.3 102.11 186.126C97.7687 183 93.4273 179.701 89.2596 176.575L85.2654 173.623C80.2294 169.802 67.2052 160.077 64.0793 143.927C63.211 145.143 61.8218 147.574 61.1272 148.79C60.7799 149.484 60.2589 150.179 60.2589 150.353C60.0852 150.7 59.7379 150.7 59.5643 150.7C59.0433 150.7 58.696 150.353 58.5223 150.005C56.9594 146.011 55.0492 137.676 56.0911 131.424C53.6599 130.729 51.0551 128.993 49.1449 127.604C48.7975 127.256 48.2766 127.083 47.9293 126.735C47.5819 126.562 47.2346 126.388 46.8873 126.041C44.4561 124.651 40.2884 122.22 41.3303 119.268C41.6776 118.226 42.7196 117.705 44.4561 117.705C45.8454 117.705 47.4083 118.052 48.4502 118.226C48.7975 118.226 49.1449 118.4 49.3185 118.4C49.6658 118.4 50.1868 118.573 50.7078 118.747C39.941 97.2137 46.7137 67.8657 57.654 49.6317C65.6422 35.7392 78.6665 16.2896 94.2956 9.51703C95.3375 8.99606 96.5531 8.47509 97.9424 7.78046C104.194 4.82829 113.571 0.486877 123.47 0.486877C131.284 0.486877 138.404 3.26538 144.482 8.64874C144.656 8.8224 144.656 8.99606 144.656 9.16971C144.656 9.51703 144.482 9.51703 135.973 12.1219C134.237 12.6428 132.153 13.3375 130.59 13.6848C138.752 14.7267 151.081 22.194 151.255 23.5832C151.255 23.9305 151.081 24.1042 150.734 24.1042L148.824 24.2778C141.357 25.1461 135.452 25.8408 129.027 28.7929C130.069 30.5295 130.937 32.4397 131.458 34.1763C132.847 38.1704 133.021 48.0688 132.326 48.9371C132.153 49.1108 131.979 49.1108 131.979 49.1108C131.805 49.1108 131.632 48.9371 131.632 48.9371C131.284 48.5898 131.111 48.0688 130.764 47.5478C129.895 46.3323 128.853 44.943 127.811 43.5537C130.069 48.7634 132.153 56.7517 131.632 57.4463C131.458 57.7936 130.937 57.7936 130.764 57.4463C129.027 55.3624 127.117 53.2785 124.859 50.8473C126.769 56.9253 127.464 63.3506 127.985 69.6022L128.159 71.3388C129.374 85.5787 122.949 98.2556 122.254 98.9502C122.081 99.1239 121.56 99.1239 121.386 98.9502C119.476 96.1717 114.961 90.0937 112.009 86.2733C111.488 85.5787 110.967 84.884 110.619 84.3631C114.613 95.9981 127.811 119.442 132.326 125.346C132.5 125.52 132.5 125.693 132.326 125.867C131.979 126.562 128.159 128.646 125.38 128.646C127.985 131.771 131.805 135.765 134.584 138.023C140.315 144.796 146.219 147.921 153.686 147.921C156.291 147.921 159.07 147.574 162.369 146.879C162.543 146.879 162.89 147.053 162.89 147.227C163.064 148.095 155.423 153.826 148.824 157.646C142.919 161.64 136.841 164.592 131.284 167.197C119.997 172.581 110.967 176.922 107.841 188.036C107.667 188.383 107.494 188.557 107.32 188.731ZM98.4634 177.617C98.8107 177.617 98.8107 177.617 99.8526 178.832L101.589 180.916C103.326 183.174 105.062 185.258 107.146 187.168C110.619 176.227 120.17 171.712 130.937 166.329C136.494 163.551 142.399 160.772 148.303 156.778C154.207 153.478 158.722 150.005 160.806 148.269C158.201 148.79 155.944 148.963 153.686 148.963C146.045 148.963 139.794 145.664 133.889 138.891C130.764 136.286 126.248 131.598 123.817 128.298C123.644 128.125 123.644 127.777 123.817 127.604C123.991 127.43 124.165 127.43 124.512 127.43C124.859 127.604 125.206 127.604 125.727 127.604C127.811 127.604 130.59 126.214 131.458 125.52C126.248 118.573 111.488 91.8303 109.056 81.7582C109.056 81.5846 109.056 81.2373 109.404 81.2373C109.577 81.0636 109.925 81.2373 110.098 81.4109C110.446 81.9319 111.661 83.4948 113.224 85.5787C116.176 89.5728 120.17 94.7825 122.254 97.7346C123.644 95.1298 128.68 84.1894 127.464 71.5125L127.29 69.7759C126.769 62.8296 126.075 55.7097 123.47 49.1108C123.47 48.9371 123.47 48.5898 123.644 48.5898C123.817 48.4161 124.165 48.4161 124.338 48.5898C126.943 51.1946 129.027 53.6258 130.937 55.7097C130.243 52.4102 128.159 44.2484 125.727 40.7752C125.554 40.6016 125.554 40.2543 125.727 40.0806C125.901 39.907 126.248 39.907 126.422 40.0806C128.68 41.9908 130.59 44.7693 131.979 46.8532C131.979 47.0269 132.153 47.0269 132.153 47.2005C132.326 44.422 132.153 37.6494 130.937 34.3499C130.416 32.6134 129.374 30.5295 128.332 28.6193C128.332 28.4456 128.159 28.2719 128.332 28.2719C128.332 28.0983 128.506 28.0983 128.68 27.9246C135.279 24.7988 141.53 24.1042 149.171 23.0623L150.039 22.8886C147.087 20.6311 135.279 13.5111 128.159 14.2058C127.985 14.2058 127.638 14.0321 127.638 13.8584C127.638 13.6848 127.638 13.3375 127.811 13.3375C128.159 12.9902 130.764 12.2955 135.973 10.7326C138.752 9.86434 142.225 8.8224 143.614 8.30143C137.536 3.96001 130.937 1.52882 123.644 1.52882C113.919 1.52882 104.541 5.87024 98.4634 8.8224C97.0741 9.51703 95.8585 10.038 94.8166 10.559C79.3611 17.1579 66.6842 36.4338 58.3487 50.3264C47.2346 68.5603 40.6357 98.0819 51.9234 119.268C52.097 119.442 51.9234 119.615 51.9234 119.789C51.7497 119.963 51.576 119.963 51.4024 119.963C50.7078 119.789 49.8395 119.442 49.1449 119.442C48.9712 119.442 48.6239 119.268 48.2766 119.268C47.2346 119.094 45.6717 118.747 44.4561 118.747C43.2405 118.747 42.3722 119.094 42.1986 119.615C41.504 121.873 45.1507 123.957 47.4083 125.172C47.9293 125.346 48.2766 125.693 48.4502 125.867C48.7975 126.041 49.1449 126.388 49.6658 126.735C51.576 128.125 54.3546 129.861 56.7857 130.382C57.1331 130.382 57.3067 130.729 57.1331 130.903C55.9175 137.155 57.8277 145.49 59.3906 149.484C59.5643 149.137 59.9116 148.616 60.2589 148.095C63.9057 142.017 64.0793 142.017 64.4266 142.017C64.6003 142.017 64.9476 142.191 64.9476 142.538C67.7261 158.862 80.924 168.76 85.9601 172.581L89.9542 175.533C93.601 178.311 97.4214 181.264 101.242 184.042C100.895 183.347 100.374 182.479 100.026 181.784C99.679 181.09 99.3316 180.569 98.9843 179.874C98.8107 179.353 98.4634 179.006 98.2897 178.832C97.9424 178.311 97.9424 178.138 98.116 177.964C98.116 177.617 98.2897 177.617 98.4634 177.617Z" fill="#1D1C1A"/>
<path d="M142.399 145.143C124.686 159.556 101.937 145.838 109.404 135.765C115.308 127.777 125.901 128.819 125.901 128.819C125.901 128.819 138.578 130.556 142.92 137.849C142.92 137.849 144.656 140.628 143.614 142.885C142.399 145.143 142.399 145.143 142.399 145.143Z" fill="#F7D6B6"/>
<path d="M125.38 151.742C125.033 151.742 124.859 151.742 124.512 151.742C119.129 151.568 113.919 149.658 110.619 146.532C106.973 143.059 106.452 138.891 108.883 135.592C114.787 127.604 125.727 128.472 125.901 128.472C126.248 128.472 126.422 128.819 126.422 128.993C126.422 129.34 126.248 129.514 125.901 129.514C125.727 129.514 115.308 128.646 109.751 136.286C107.494 139.239 108.188 142.885 111.314 146.011C120.518 154.868 135.105 150.526 142.051 144.969C142.225 144.796 142.572 144.796 142.746 144.969C142.919 145.143 142.919 145.49 142.746 145.664C136.321 150.7 129.895 151.742 125.38 151.742Z" fill="#1D1C1A"/>
<path d="M132.674 140.628C132.674 140.454 132.674 140.107 132.5 139.933C132.153 139.76 125.554 135.939 119.823 139.239C117.739 140.454 116.697 141.843 116.35 143.406C116.003 145.49 117.392 146.879 117.566 146.879C117.739 147.053 118.087 147.053 118.434 146.879C118.607 146.706 118.607 146.358 118.434 146.011C118.434 146.011 117.392 144.796 117.566 143.406C117.739 142.191 118.781 141.149 120.344 140.107C125.554 137.155 131.805 140.801 131.805 140.801C132.153 141.149 132.5 141.149 132.674 140.628Z" fill="#1D1C1A"/>
<path d="M127.811 143.233C127.985 142.538 128.158 141.843 127.811 140.975C127.464 139.76 126.248 138.718 124.338 138.023C123.991 137.849 123.643 138.023 123.643 138.37C123.47 138.718 123.643 139.065 123.991 139.065C125.554 139.586 126.595 140.281 126.769 141.149C127.116 142.538 126.075 143.927 126.075 144.101C125.901 144.275 125.901 144.622 126.248 144.969C126.422 145.143 126.943 145.143 127.116 144.796C126.943 144.796 127.464 144.101 127.811 143.233Z" fill="#1D1C1A"/>
<path d="M225.233 167.024C218.46 167.024 211.514 162.335 211.34 161.988C210.819 161.64 210.819 161.119 211.167 160.598C211.514 160.077 212.035 160.077 212.556 160.425C212.73 160.425 221.412 166.503 228.011 164.766C230.443 164.072 232.353 162.509 233.568 159.904C239.473 147.574 250.413 112.495 250.413 112.148C250.587 111.627 251.108 111.28 251.629 111.454C252.15 111.627 252.497 112.148 252.323 112.669C252.15 113.016 241.209 148.269 235.305 160.772C233.742 163.898 231.484 165.982 228.359 166.85C227.317 166.85 226.275 167.024 225.233 167.024Z" fill="#1D1C1A"/>
<path d="M215.334 80.5426L271.773 125.693L304.941 86.0996L258.575 34.5236L215.334 80.5426Z" fill="#C8E700"/>
<path d="M271.773 126.214C271.599 126.214 271.599 126.214 271.425 126.041L214.813 80.8899C214.64 80.8899 214.64 80.7162 214.64 80.5426C214.64 80.3689 214.64 80.1953 214.813 80.1953L258.227 34.1763C258.401 34.0026 258.401 34.0026 258.575 34.0026C258.748 34.0026 258.922 34.0026 258.922 34.1763L305.288 85.7523C305.462 85.9259 305.462 86.2733 305.288 86.4469L272.12 126.041C272.12 126.214 271.946 126.214 271.773 126.214ZM216.029 80.5426L271.773 124.999L304.42 86.0996L258.748 35.2182L216.029 80.5426Z" fill="#1D1C1A"/>
<path d="M254.755 98.6029C255.102 97.9083 255.449 97.04 255.623 96.3454C255.97 95.4771 256.317 94.6088 256.665 93.7405C257.012 92.5249 257.533 91.483 257.707 90.2674C257.88 89.5727 258.228 88.1835 257.533 87.6625C256.144 86.4469 254.581 89.0518 253.886 89.9201C252.497 91.6566 251.108 94.7824 250.066 97.2136C250.76 92.8722 251.108 87.3152 248.503 87.8362C246.419 88.3571 245.898 91.1357 245.203 92.6986C244.856 93.7405 244.509 94.9561 244.335 95.998C244.335 96.1717 244.335 96.1717 244.335 96.3454C243.641 98.9502 243.293 101.381 242.946 103.986C242.946 103.639 241.383 102.25 241.036 101.902C240.341 101.381 239.646 100.687 238.952 100.339C237.91 99.8185 236.347 99.1239 235.826 100.687C234.784 103.118 238.083 107.112 239.299 109.022C241.036 111.627 243.293 114.406 246.072 115.795C247.635 116.663 249.718 117.184 251.455 117.011C258.401 116.49 259.964 107.286 263.958 102.944C265.174 101.729 268.821 98.7765 267.952 96.6927C266.737 94.0878 263.264 97.561 262.222 98.4292C261.18 99.2975 260.138 100.339 258.922 101.208C258.749 101.381 258.575 101.381 258.401 101.555C259.791 99.4712 264.306 90.7883 263.09 89.9201C261.18 88.1835 256.838 94.9561 254.755 98.6029Z" fill="#F7D6B6"/>
<path d="M251.281 117.705C249.719 117.705 247.635 117.184 246.072 116.49C242.772 114.927 240.688 111.974 238.952 109.543C238.778 109.196 238.604 109.022 238.257 108.675C236.694 106.417 234.437 103.118 235.305 100.687C235.652 99.8185 236.173 99.4712 237.042 99.4712C237.736 99.4712 238.604 99.8185 239.125 100.166C239.82 100.687 240.515 101.208 241.383 101.902L241.557 102.076C241.904 102.423 242.251 102.771 242.425 102.944C242.772 100.513 243.12 98.4292 243.641 96.3454C243.641 96.3454 243.641 96.1717 243.814 95.998C243.988 94.7824 244.335 93.5669 244.682 92.5249L244.856 92.0039C245.377 90.2674 246.245 87.8362 248.329 87.3152C249.024 87.1416 249.719 87.3152 250.066 87.8362C251.108 89.0518 251.108 91.6566 250.934 93.9142C251.802 92.1776 252.671 90.6147 253.539 89.5727L253.713 89.3991C254.581 88.1835 255.623 86.9679 256.838 86.9679C257.186 86.9679 257.533 87.1416 257.88 87.3152C258.749 88.0098 258.401 89.3991 258.228 90.2674C257.88 91.6566 257.533 92.8722 257.012 93.9142V94.0878C259.096 91.1357 261.006 89.0518 262.569 89.0518C262.916 89.0518 263.264 89.2254 263.611 89.3991C265 90.441 262.222 96.1717 260.485 99.4712C260.659 99.2975 260.659 99.2975 260.833 99.1239C261.354 98.7766 261.701 98.2556 262.222 97.9083C262.395 97.9083 262.395 97.7346 262.569 97.561C263.958 96.3454 265.521 95.1298 266.737 95.1298C267.258 95.1298 267.952 95.3034 268.473 96.3454C269.342 98.4292 266.911 100.687 265.348 102.25C265 102.597 264.653 102.944 264.479 103.118C263.264 104.507 262.222 106.417 261.18 108.501C258.922 112.669 256.665 117.011 251.802 117.358C251.629 117.705 251.455 117.705 251.281 117.705ZM237.215 100.339C236.868 100.339 236.521 100.513 236.347 101.034C235.652 102.944 237.91 106.07 239.125 107.98C239.299 108.328 239.646 108.675 239.82 108.849C241.383 111.106 243.467 113.885 246.419 115.448C247.982 116.316 250.066 116.663 251.629 116.663C255.97 116.316 258.054 112.322 260.312 108.328C261.354 106.244 262.395 104.334 263.785 102.771C263.958 102.597 264.306 102.25 264.653 101.902C266.042 100.687 268.3 98.4292 267.605 97.04C267.431 96.519 267.084 96.3454 266.737 96.3454C265.695 96.3454 263.958 97.7346 263.09 98.4292C262.916 98.6029 262.743 98.7766 262.743 98.7766C262.222 99.1239 261.874 99.4712 261.354 99.9921C260.659 100.513 260.138 101.208 259.443 101.729L258.922 102.076C258.749 102.25 258.401 102.25 258.228 102.076C258.054 101.902 258.054 101.555 258.228 101.381C260.138 98.7766 263.611 91.3093 262.916 90.441C262.743 90.2674 262.569 90.2674 262.395 90.2674C260.312 90.2674 256.317 96.519 254.928 98.9502C254.755 99.1239 254.407 99.2975 254.234 99.1239C254.06 98.9502 253.886 98.6029 254.06 98.4292C254.234 98.0819 254.407 97.561 254.581 97.04C254.755 96.6927 254.755 96.519 254.928 96.1717C255.276 95.3034 255.623 94.4351 255.97 93.7405C256.317 92.6986 256.838 91.483 257.012 90.2674C257.186 89.7464 257.359 88.5308 257.012 88.1835C256.144 87.4889 254.928 89.3991 254.407 90.0937L254.234 90.2674C253.018 92.0039 251.629 94.7824 250.413 97.3873C250.239 97.561 250.066 97.7346 249.892 97.7346C249.719 97.7346 249.545 97.3873 249.545 97.2136C250.239 93.0459 250.239 89.7464 249.371 88.7045C249.198 88.5308 248.85 88.3572 248.503 88.5308C246.94 88.8781 246.245 90.962 245.898 92.5249L245.724 93.0459C245.377 94.0878 245.03 95.1298 244.856 96.3454C244.856 96.519 244.856 96.519 244.682 96.6927C243.988 99.1239 243.641 101.555 243.293 104.334C243.293 104.681 242.946 104.855 242.772 104.855C242.425 104.855 242.251 104.507 242.425 104.334C242.425 104.334 242.078 103.986 241.036 102.944L240.862 102.771C240.167 102.076 239.473 101.555 238.778 101.208C238.257 100.513 237.736 100.339 237.215 100.339Z" fill="#1D1C1A"/>
<path d="M190.304 102.835C190.137 103.35 189.929 103.977 189.684 104.686C188.986 106.712 187.99 109.407 186.8 112.09C185.608 114.776 184.228 117.437 182.763 119.401C182.031 120.383 181.284 121.181 180.538 121.721C179.793 122.26 179.064 122.531 178.359 122.492C175.395 122.327 173.625 119.73 172.587 117.051C172.073 115.723 171.751 114.403 171.558 113.413C171.461 112.919 171.396 112.509 171.356 112.222C171.349 112.167 171.342 112.117 171.336 112.072C177.782 112.496 182.734 109.895 186.079 107.176C187.778 105.795 189.065 104.382 189.928 103.313C190.064 103.145 190.189 102.985 190.304 102.835Z" fill="white" stroke="black" strokeWidth="0.5"/>
<path d="M169.489 78.4588C170.878 80.5427 170.878 82.9738 169.489 83.8421C168.1 84.7104 165.842 83.8421 164.453 81.7582C163.064 79.6744 163.064 77.2432 164.453 76.3749C165.842 75.5066 168.1 76.3749 169.489 78.4588Z" fill="black"/>
<path d="M186.507 57.6199C187.549 59.1829 187.549 61.0931 186.507 61.7877C185.465 62.4823 183.729 61.7877 182.687 60.2248C181.645 58.6619 181.645 56.7517 182.687 56.057C183.729 55.1888 185.465 56.057 186.507 57.6199Z" fill="black"/>
<path d="M183.555 135.418C184.597 135.244 185.465 135.418 186.507 135.592C193.106 136.981 199.358 138.891 205.61 141.843C211.514 144.622 217.071 148.095 222.281 151.916C222.281 151.916 215.682 167.371 206.651 172.581C206.651 172.581 186.855 160.598 180.777 152.957C179.04 150.526 177.13 148.442 176.262 145.49C174.699 140.107 178.693 135.939 183.555 135.418Z" fill="#8CBD3F"/>
<path d="M222.628 152.089C222.28 152.784 215.855 167.718 206.651 172.928C206.478 173.102 206.304 173.102 206.13 172.928C205.262 172.407 186.16 160.772 180.082 153.131L179.735 152.784C177.998 150.526 176.261 148.442 175.567 145.49C175.393 144.969 175.393 144.448 175.219 144.101C174.699 139.065 178.866 135.592 183.381 135.071C184.423 134.897 185.465 135.071 186.507 135.245C193.453 136.634 199.705 138.718 205.609 141.496C211.34 144.101 216.897 147.574 222.28 151.568C222.454 151.568 222.454 151.742 222.454 151.916C222.628 151.916 222.628 151.916 222.628 152.089ZM176.609 145.317C177.477 147.921 179.04 150.005 180.603 152.263L180.95 152.61C186.507 159.73 204.046 170.67 206.304 172.06C214.292 167.197 220.37 154.52 221.412 152.089C216.202 148.269 210.645 144.969 205.088 142.364C199.358 139.586 193.106 137.676 186.16 136.113C185.292 135.939 184.25 135.939 183.381 135.939C179.387 136.46 175.74 139.412 176.261 143.927C176.435 144.448 176.609 144.796 176.609 145.317Z" fill="#1D1C1A"/>
<path d="M183.555 135.418C184.597 135.244 185.465 135.418 186.507 135.592C193.106 136.981 199.358 138.891 205.61 141.843C211.514 144.622 217.071 148.095 222.281 151.916C222.281 151.916 215.682 167.371 206.651 172.581C206.651 172.581 186.855 160.598 180.777 152.957C179.04 150.526 177.13 148.442 176.262 145.49C174.699 140.107 178.693 135.939 183.555 135.418Z" fill="#BCE4ED"/>
<path d="M222.628 152.089C222.28 152.784 215.855 167.718 206.651 172.928C206.478 173.102 206.304 173.102 206.13 172.928C205.262 172.407 186.16 160.772 180.082 153.131L179.735 152.784C177.998 150.526 176.261 148.442 175.567 145.49C175.393 144.969 175.393 144.448 175.219 144.101C174.699 139.065 178.866 135.592 183.381 135.071C184.423 134.897 185.465 135.071 186.507 135.245C193.453 136.634 199.705 138.718 205.609 141.496C211.34 144.101 216.897 147.574 222.28 151.568C222.454 151.568 222.454 151.742 222.454 151.916C222.628 151.916 222.628 151.916 222.628 152.089ZM176.609 145.317C177.477 147.921 179.04 150.005 180.603 152.263L180.95 152.61C186.507 159.73 204.046 170.67 206.304 172.06C214.292 167.197 220.37 154.52 221.412 152.089C216.202 148.269 210.645 144.969 205.088 142.364C199.358 139.586 193.106 137.676 186.16 136.113C185.292 135.939 184.25 135.939 183.381 135.939C179.387 136.46 175.74 139.412 176.261 143.927C176.435 144.448 176.609 144.796 176.609 145.317Z" fill="#1D1C1A"/>
<path opacity="0.5" d="M182.165 135.765C180.255 137.676 179.734 140.454 182.339 144.101C186.16 149.484 192.411 151.916 197.795 155.389C203.178 158.688 208.735 161.988 214.118 165.287C211.861 168.239 209.256 171.018 206.304 172.581C206.304 172.581 186.507 160.598 180.429 152.957C178.692 150.526 176.782 148.442 175.914 145.49C174.698 140.628 177.998 136.807 182.165 135.765Z" fill="#5CC0D5"/>
</svg>
