<svg width="185" height="345" viewBox="0 0 185 345" fill="none" xmlns="http://www.w3.org/2000/svg">
<path d="M29.6521 333.233L62.1282 286.166L61.6575 285.696L47.5375 233.451L45.6548 233.922L59.7749 285.696L27.7694 331.821L29.6521 333.233Z" fill="#0A0A0A"/>
<path d="M63.0696 332.763L64.9523 332.292C60.2456 315.348 83.779 244.277 83.779 243.336L81.8963 242.865C80.955 245.689 58.3629 314.877 63.0696 332.763Z" fill="#0A0A0A"/>
<path d="M151.555 172.265V170.382C106.842 169.441 91.7804 144.025 91.7804 143.554L89.8977 144.495C89.8977 144.495 105.43 171.323 151.555 172.265Z" fill="#0A0A0A"/>
<path d="M78.6017 138.377C78.6017 138.377 78.6017 141.671 70.6003 141.671C63.0696 142.142 51.3029 156.262 41.8895 170.382C32.4762 184.502 19.7681 202.388 20.2388 205.682C20.2388 208.977 23.5335 232.04 54.1269 245.689C84.7204 259.338 108.724 251.808 109.195 247.101C109.195 241.924 103.076 165.675 94.1337 143.554C83.779 121.433 78.6017 138.377 78.6017 138.377Z" fill="#CFDA29"/>
<path d="M87.5444 254.632C80.0137 254.632 67.7763 253.22 53.1856 246.63C20.7095 232.51 19.2975 207.094 18.8268 206.153C18.8268 203.329 26.8281 190.621 38.5949 173.677L40.9482 170.382C53.6562 151.556 63.5403 141.671 70.1297 141.201C77.1897 140.73 77.6603 138.377 77.6603 137.906C77.6603 137.435 80.0137 131.317 83.779 131.317C87.0737 131.317 90.3684 135.553 93.6631 143.083C103.076 166.146 109.195 242.394 108.724 247.101C108.724 250.867 100.252 254.632 87.5444 254.632ZM84.2497 132.729C80.955 132.729 79.0724 138.377 79.0724 138.377C79.0724 138.377 78.6017 142.142 70.6003 142.142C64.4816 142.613 54.5976 152.026 42.3602 170.853L40.0069 174.148C31.0642 187.326 20.2388 203.329 20.7095 206.153C20.7095 207.094 22.5921 231.569 54.1269 245.689C68.7176 252.279 80.4844 253.22 88.0151 253.22C101.194 253.22 108.254 249.454 108.254 247.101C108.254 242.394 102.135 165.675 93.1924 143.554C88.9564 134.611 86.1324 132.729 84.2497 132.729Z" fill="#0A0A0A"/>
<path d="M72.9536 139.318C72.9536 139.788 77.6603 164.734 88.015 163.322C98.3697 161.439 91.3097 144.495 86.603 142.612C81.8963 140.73 72.9536 139.318 72.9536 139.318Z" fill="#F9D8B7"/>
<path d="M87.0737 163.793C78.6017 163.793 74.3657 146.849 72.483 139.789L72.0123 138.847H72.9537C73.4243 138.847 81.8964 140.259 86.6031 142.142C89.8977 143.554 94.1338 151.555 93.6631 157.674C93.1924 161.439 91.3097 163.322 88.0151 163.793C87.5444 163.793 87.5444 163.793 87.0737 163.793ZM73.4243 139.789C74.8363 145.907 79.543 163.793 87.5444 162.381C90.3684 161.91 92.2511 160.027 92.2511 157.203C92.7217 152.026 88.9564 144.025 86.1324 143.083C82.367 141.201 75.7777 140.259 73.4243 139.789Z" fill="#0A0A0A"/>
<path d="M44.2429 74.8363L49.891 80.0136V64.9522L58.8337 78.6017C62.1283 75.307 74.8364 71.071 74.8364 71.071L70.6004 51.7735L85.1911 68.7176C91.7805 62.5989 108.725 60.7162 108.725 60.7162L104.489 44.7135C108.725 48.0082 117.667 60.7162 117.667 60.7162C128.963 56.4802 139.789 59.775 139.789 59.775C152.497 85.6617 148.731 109.195 148.731 109.195C148.731 109.195 143.083 138.377 110.137 146.849C77.1897 154.85 48.9496 128.963 47.5376 126.61C43.3016 122.374 39.5363 112.49 39.5363 112.49C44.7136 107.312 44.2429 74.8363 44.2429 74.8363Z" fill="#F9D8B7"/>
<path d="M97.4285 148.731C70.1297 148.731 48.4789 128.493 47.5376 127.08C42.8309 122.844 39.5362 113.431 39.0656 112.96V112.49C43.7722 107.312 43.3016 75.3069 43.3016 74.8363V73.4243L48.9496 78.6017V63.0695L58.363 77.6603C62.1283 74.8363 71.5417 71.5416 73.895 70.6003L69.659 51.7735L70.6003 51.3028L84.7204 68.2469C90.8391 63.0696 104.488 61.1869 107.783 60.7162L103.076 43.3015L104.488 44.2428C108.725 47.5375 116.255 57.8922 117.667 60.2455C121.433 58.8335 125.669 58.3629 129.905 58.3629C135.553 58.3629 139.789 59.7749 139.789 59.7749C152.497 85.6617 149.202 109.195 149.202 109.195C149.202 109.666 143.083 138.847 110.137 146.849C106.371 148.261 102.135 148.731 97.4285 148.731ZM139.318 60.2455C138.377 59.7748 134.611 58.8336 129.905 58.8336C125.669 58.8336 121.433 59.7749 117.667 61.1869H117.197V60.7162C117.197 60.7162 110.137 50.3616 105.43 45.6549L109.666 61.1869H109.195C109.195 61.1869 92.2511 63.0696 86.1324 68.7176L85.6617 69.1883L72.483 53.1855L76.2484 70.6003H75.7777C75.7777 70.6003 63.0696 74.8363 59.775 78.131L59.3043 78.6017L50.8323 65.8936V80.4843L45.1842 75.307C45.1842 81.4256 45.1842 106.842 40.9482 112.019C41.4189 113.431 44.7136 121.903 48.9496 125.669C49.8909 127.551 71.5417 146.849 98.3698 146.849C102.606 146.849 106.842 146.378 111.078 145.437C143.083 137.435 149.202 108.724 149.202 108.254C148.261 108.724 152.026 86.1323 139.318 60.2455Z" fill="#0A0A0A"/>
<path d="M0.470703 103.076C0.470703 103.076 10.3547 96.0162 10.8254 68.7174C11.2961 42.8306 30.1228 24.9452 30.1228 24.9452H25.8868C25.8868 24.9452 28.7108 20.7092 33.4175 20.2385L36.7122 12.2372L36.2415 18.8265C36.2415 18.8265 46.1256 1.88245 82.367 1.41178C118.609 0.941115 136.494 31.5346 141.671 37.6532C146.378 43.3013 162.381 65.4227 172.735 68.7174C172.735 68.7174 165.675 102.135 148.731 109.195C148.731 109.195 152.497 86.1322 139.789 59.7747C139.789 59.7747 128.963 56.48 117.667 60.716C117.667 60.716 109.195 48.008 104.488 44.7133L108.724 61.1867C108.724 61.1867 91.7804 63.0694 85.1911 69.1881L70.6003 52.244L74.8363 71.5414C74.8363 71.5414 62.1283 75.7773 58.8336 79.072L49.8909 65.4227V80.4841L44.2429 75.3067C44.2429 75.3067 44.7136 107.783 40.0069 112.96C40.0069 112.96 43.7722 122.844 48.0082 127.08C48.0082 126.61 6.11873 113.902 0.470703 103.076Z" fill="#6B4F4A"/>
<path d="M47.5375 127.081C45.6549 126.61 5.17735 114.372 0 103.076V102.606L0.470668 102.135C0.470668 102.135 9.88404 94.6043 10.3547 67.7762C10.8254 45.1842 24.9454 28.7108 28.7108 24.4748H24.4748L24.9454 23.5334C24.9454 23.5334 27.7694 19.2974 32.4761 18.8267L35.7708 10.8254H36.7122V16.0027C40.0068 11.7667 52.2442 0 82.367 0H82.8377C115.314 0 133.199 24.4748 139.789 33.8882C140.73 34.8295 141.201 35.7708 141.671 36.7121C142.142 37.1828 143.083 38.1241 144.025 39.5361C150.614 47.5375 163.793 64.4816 172.735 67.7762H173.206V68.2469C172.735 69.6589 165.675 101.664 149.202 109.195L148.261 109.666V108.724C148.261 108.724 151.555 85.1911 139.318 59.775C138.377 59.3043 134.611 58.3629 129.905 58.3629C125.669 58.3629 121.433 59.3042 117.667 60.7162H117.196V60.2455C117.196 60.2455 110.136 49.8909 105.43 45.1842L109.666 60.7162H109.195C109.195 60.7162 92.251 62.5989 86.1323 68.2469L85.6617 68.7176L72.483 52.7149L76.2483 70.1296H75.7776C75.7776 70.1296 63.0696 74.3656 59.7749 77.6603L59.3042 78.131L50.8322 65.4229V80.0137L45.1842 74.8363C45.1842 80.955 45.1842 106.371 40.9482 111.549C41.4188 112.961 44.7135 121.433 48.9495 125.198L47.5375 127.081ZM43.7722 73.4243L49.4202 78.6017V63.0696L58.8336 77.6603C62.5989 74.8363 72.0123 71.5416 74.3656 70.6003L70.1296 51.7735L71.071 51.3028L85.191 68.2469C91.3097 63.0696 104.959 61.1869 108.254 60.7162L103.547 43.3016L104.959 44.2428C109.195 47.5375 116.726 57.8922 118.138 60.2455C121.903 58.8335 126.139 58.3629 130.375 58.3629C136.023 58.3629 140.259 59.775 140.259 59.775C151.555 82.8377 150.143 103.547 149.673 108.254C164.263 100.723 171.323 72.9537 172.265 68.7176C162.851 65.423 149.673 48.4789 143.554 40.4775C142.613 39.5362 142.142 38.5948 141.201 37.6535C140.73 37.1828 139.789 36.2415 139.318 34.8294C131.787 24.9454 114.843 1.41202 83.3083 1.41202H82.8377C47.5375 1.88269 37.1828 18.356 37.1828 18.356L36.2415 17.8854V14.1201L33.8881 19.7681H33.4175C30.1228 20.2387 27.7694 22.1214 26.8281 23.5334H31.0641L30.1228 24.4748C30.1228 24.4748 11.7667 42.3601 11.296 67.7762C10.8254 92.251 2.82401 100.723 1.412 102.606C6.58936 112.019 38.1242 122.374 46.5962 125.198C42.8308 120.491 40.0068 112.96 39.5362 112.49V112.019C44.2428 106.842 43.7722 74.8362 43.7722 74.3656V73.4243Z" fill="#0A0A0A"/>
<path d="M146.849 63.0695C147.319 63.0695 147.319 63.0695 147.79 62.5988C148.261 62.1281 148.261 61.1869 147.79 61.1869C144.025 49.8908 134.141 42.3601 134.141 42.3601L133.67 43.3015C133.67 43.3015 143.554 50.8322 146.849 61.6575C146.849 62.1282 146.849 62.1282 146.849 62.1282C146.378 62.1282 145.437 61.6575 144.495 61.1869C143.083 60.7162 141.671 59.7749 140.259 59.7749V60.7162C141.671 61.1868 143.083 61.6576 144.495 62.1282C145.437 62.5989 146.378 63.0695 146.849 63.0695Z" fill="#0A0A0A"/>
<path d="M96.9578 104.959C97.4284 107.312 98.3698 109.195 99.7818 109.195C101.194 109.195 101.664 106.842 101.664 104.489C101.194 102.135 100.252 100.252 98.8404 100.252C97.4284 100.723 96.9578 102.606 96.9578 104.959Z" fill="black"/>
<path d="M139.318 99.3108C139.789 101.664 140.73 103.547 142.142 103.547C143.554 103.547 144.025 101.193 144.025 98.8401C143.554 96.4867 142.613 94.6041 141.201 94.6041C140.259 94.6041 139.318 96.9574 139.318 99.3108Z" fill="black"/>
<path d="M82.8378 123.786C82.8378 123.786 95.0751 135.082 112.49 133.199C129.905 130.846 134.141 122.374 134.141 122.374C134.141 122.374 131.787 131.317 126.61 140.259C122.374 143.083 116.726 145.437 110.607 146.849C100.252 149.202 89.8978 148.731 81.4258 145.907C79.5431 141.201 79.5431 134.141 82.8378 123.786Z" fill="#D92231"/>
<path d="M97.4284 148.731C91.7804 148.731 86.1324 147.79 80.4844 146.378H80.0137V145.907C78.6017 139.789 79.0724 132.258 81.8964 123.315L82.367 122.374L82.8377 122.844C82.8377 122.844 93.1924 132.258 107.312 132.258C108.724 132.258 110.136 132.258 111.549 131.787C128.493 129.434 132.729 121.432 132.729 121.432L133.67 121.903C133.67 121.903 131.317 131.317 126.139 139.789C121.433 142.613 115.785 144.966 110.136 146.378C106.371 148.261 102.135 148.731 97.4284 148.731ZM126.139 139.789C129.905 134.141 131.787 128.022 132.729 124.727C130.375 127.551 124.257 131.787 112.49 133.199C111.078 133.199 109.195 133.67 107.783 133.67C95.0751 133.67 85.6617 126.61 82.8377 124.727C80.4844 132.728 79.543 139.788 80.955 145.437C86.6031 146.849 91.7804 147.79 96.9578 147.79C101.194 147.79 105.43 147.319 109.666 146.378C115.785 144.966 121.433 142.613 126.139 139.789Z" fill="#0A0A0A"/>
<path d="M120.021 131.787C120.021 131.787 119.55 137.906 115.785 138.847C112.019 139.788 99.3111 138.376 98.3698 137.435C96.9578 136.964 97.4285 131.787 97.4285 131.787C97.4285 131.787 107.783 136.023 120.021 131.787Z" fill="white"/>
<g opacity="0.5">
<path d="M66.3643 74.8362C66.3643 74.8362 36.2415 117.196 80.4843 140.73L81.4257 145.907C81.4257 145.907 48.4789 136.964 40.0068 112.49C40.0068 112.49 45.6549 107.783 44.2429 74.8362L50.3615 80.9549L50.8322 65.8935L58.8336 78.6016C58.8336 79.0723 64.9523 75.3068 66.3643 74.8362Z" fill="#D76B2A"/>
</g>
<path d="M144.495 168.97C142.613 173.206 144.495 184.031 152.967 181.678C161.91 179.795 160.027 168.97 154.379 165.205C149.202 160.968 145.907 165.675 144.495 168.97Z" fill="#F9D8B7"/>
<path d="M151.085 182.619C148.731 182.619 146.849 181.678 145.437 179.795C143.554 176.501 143.083 171.794 144.025 168.97C144.495 167.087 146.849 163.322 150.614 163.322C152.026 163.322 153.438 163.793 154.85 164.734C158.145 167.087 160.498 171.794 159.557 176.03C159.086 179.325 156.733 181.678 153.438 182.149C152.497 182.149 151.555 182.619 151.085 182.619ZM150.614 163.793C147.319 163.793 145.437 167.558 144.966 168.97C144.025 171.323 144.025 176.03 145.907 178.854C147.319 181.207 149.673 182.149 152.497 181.207C156.262 180.266 157.674 177.913 158.145 175.559C159.086 171.794 157.203 167.558 153.909 165.205C152.967 164.263 151.555 163.793 150.614 163.793Z" fill="#0A0A0A"/>
<path d="M125.668 157.674C125.668 157.674 98.3697 191.562 89.427 216.037C89.427 216.037 129.904 237.217 149.673 236.276C149.673 236.276 174.618 204.741 183.561 182.149C183.561 181.678 137.906 166.617 125.668 157.674Z" fill="#3BA2FC"/>
<path d="M147.79 236.275C127.551 236.275 89.4271 216.507 88.9564 216.037H88.4857V215.566C97.4284 191.091 124.727 157.203 125.198 157.203L125.669 156.732L126.139 157.203C138.377 166.146 183.561 181.207 184.031 181.678H184.502V182.149C175.559 204.27 150.614 235.805 150.143 236.275H149.673C148.731 236.275 148.261 236.275 147.79 236.275ZM149.202 235.334C151.085 232.51 174.147 203.329 182.619 182.149C177.442 180.266 137.906 166.617 125.669 158.144C122.845 161.91 98.3698 192.503 89.8977 215.566C94.1337 217.919 130.846 236.275 149.202 235.334Z" fill="#0A0A0A"/>
<path d="M183.561 181.678C183.561 181.678 176.972 131.787 175.089 128.022L151.555 169.911C151.555 169.911 176.03 179.795 183.561 181.678Z" fill="#0476D9"/>
<path d="M184.031 182.619H183.09C175.559 180.737 151.555 170.852 151.085 170.852H150.614L175.089 127.551L175.559 128.492C176.971 132.258 183.561 180.266 184.031 182.149V182.619ZM175.089 129.434L152.497 169.441C155.791 170.853 175.559 178.854 183.09 180.737C180.737 165.204 176.501 136.023 175.089 129.434Z" fill="#0A0A0A"/>
<path d="M98.3697 204.27C99.311 204.27 100.723 204.27 101.664 204.27V202.387C90.839 203.329 81.8963 200.034 75.7776 193.916C60.2455 178.383 62.5989 147.79 62.5989 147.319H60.7162C60.7162 148.731 58.3628 179.325 74.8362 195.327C80.0136 201.446 88.4856 204.27 98.3697 204.27Z" fill="#0A0A0A"/>
<path d="M96.9577 199.563C95.075 203.8 96.9577 214.625 105.43 212.272C114.372 210.389 112.49 199.564 106.842 195.798C101.664 191.562 98.3697 196.269 96.9577 199.563Z" fill="#F9D8B7"/>
<path d="M103.547 213.213C101.194 213.213 99.311 212.271 97.899 210.389C96.0164 207.094 95.5457 202.387 96.487 199.563C96.9577 197.681 99.311 193.915 103.076 193.915C104.488 193.915 105.9 194.386 107.312 195.327C110.607 197.681 112.96 202.387 112.019 206.623C111.548 209.918 109.195 212.271 105.9 212.742C104.959 212.742 104.018 213.213 103.547 213.213ZM103.076 194.386C99.7817 194.386 97.899 198.151 97.4284 199.563C96.487 201.917 96.487 206.623 98.3697 209.447C99.7817 211.801 102.135 212.271 104.959 211.801C108.724 210.859 110.136 208.506 110.607 206.153C111.078 202.387 109.666 198.151 106.371 195.798C105.43 194.857 104.018 194.386 103.076 194.386Z" fill="#0A0A0A"/>
<path d="M28.2401 191.562C24.9454 199.563 26.3574 203.329 27.2988 205.211C28.2401 207.094 30.5934 207.094 30.5934 207.094H33.8881L32.4761 209.918C30.5934 213.683 30.1228 216.507 31.5348 218.861C33.4175 221.685 38.1241 222.626 40.0068 222.626H41.8895V224.509C42.3602 228.745 43.7722 231.569 46.5962 233.451C51.7735 237.217 60.2456 235.805 60.2456 235.805L61.6576 235.334L62.5989 236.275C65.8936 240.982 69.6589 243.335 73.8949 244.277C80.955 245.218 87.0737 240.511 87.0737 240.041L88.4857 239.099L89.8977 240.041C94.6044 243.806 98.3697 245.218 100.723 244.277C104.959 242.865 106.842 235.805 107.312 233.451C107.312 233.451 108.254 239.099 107.783 242.865C106.371 245.218 104.488 247.101 102.135 248.042C101.194 248.513 99.7817 248.513 98.8404 248.513C95.5457 248.513 92.251 247.101 88.4857 244.277C86.1323 246.159 80.0136 248.984 73.4243 248.042C68.2469 247.101 64.0109 244.277 60.2456 239.57C57.4216 240.041 50.3615 240.041 44.7135 236.275C41.4188 233.922 39.5361 230.627 38.5948 225.921C35.7708 225.45 30.5934 224.509 28.2401 220.273C26.3574 217.449 26.3574 214.154 28.2401 209.918C26.8281 209.447 25.4161 208.506 24.4748 206.623C23.5334 204.741 23.0627 202.858 23.0627 200.505C23.5334 198.151 28.2401 191.562 28.2401 191.562Z" fill="white"/>
<path d="M87.5443 333.233C94.1337 336.057 99.311 338.881 98.3697 340.293C96.487 344.059 55.5389 346.883 57.8922 338.881C58.3629 337.469 58.3629 336.528 58.8335 335.116C83.779 345.941 90.3683 334.175 87.5443 333.233Z" fill="#FBB914"/>
<path d="M74.8362 344.529C69.6589 344.529 60.2455 344.059 57.8922 341.235C57.4215 340.764 57.4215 339.823 57.4215 338.881C57.8922 337.469 57.8922 336.528 58.3628 335.116V334.645L58.8335 335.116C65.4229 337.94 71.5416 339.352 76.7189 339.352C83.7789 339.352 87.0736 336.528 87.5443 334.645C87.5443 334.175 87.5443 333.704 87.0736 333.704L87.5443 332.763C91.3096 334.175 97.899 337.469 98.8403 339.352C98.8403 339.823 98.8403 340.293 98.8403 340.293C97.4283 343.117 83.779 344.529 74.8362 344.529ZM88.9563 334.175V334.645C88.4856 336.999 84.7203 340.293 77.1896 340.293C72.0122 340.293 66.3642 338.881 59.7749 336.057C59.7749 336.999 59.3042 337.94 58.8335 338.881C58.8335 339.352 58.8335 339.823 59.3042 340.293C60.7162 342.176 66.8349 343.117 75.3069 343.117C87.0736 343.117 97.899 341.235 98.8403 339.823C97.899 338.881 95.075 336.528 88.9563 334.175Z" fill="#0A0A0A"/>
<path d="M62.5989 327.115C65.4229 325.703 78.1309 328.997 87.5443 333.233C90.3683 334.645 83.7789 345.941 58.8335 335.587C60.2455 329.939 60.7162 328.056 62.5989 327.115Z" fill="#F9D8B7"/>
<path d="M77.1895 340.293C72.0122 340.293 65.8935 338.881 58.8335 335.587H58.3628L58.8335 334.645C60.2455 329.939 60.7161 327.585 62.5988 326.644C65.8935 325.232 79.0722 328.997 88.0149 332.763C88.9562 333.233 88.9562 333.704 88.9562 334.645C88.4856 336.999 84.7202 340.293 77.1895 340.293ZM64.4815 327.115C63.5401 327.115 63.0695 327.115 62.5988 327.585C61.1868 328.527 60.7161 330.409 59.3041 334.645C65.8935 337.469 71.5415 338.881 76.7189 338.881C83.7789 338.881 87.0736 336.057 87.5442 334.175C87.5442 333.704 87.5442 333.233 87.0736 333.233C80.0135 330.409 69.6588 327.115 64.4815 327.115Z" fill="#0A0A0A"/>
<path d="M24.4747 333.704C26.8281 329.468 30.5934 325.702 33.4174 326.644C35.3001 327.114 42.3601 329.938 48.4788 333.233C59.3042 343.588 26.8281 335.587 24.4747 333.704Z" fill="#F9D8B7"/>
<path d="M46.1255 338.881C39.0655 338.881 25.8868 335.587 24.0041 334.175L23.5334 333.704L24.0041 333.233C25.8868 329.939 29.1815 325.703 32.9468 325.703C33.4175 325.703 33.4175 325.703 33.8882 325.703C35.7708 326.173 42.8309 328.997 49.4202 332.292C51.3029 334.175 51.7736 335.587 51.7736 336.528C50.8322 338.411 48.9496 338.881 46.1255 338.881ZM32.4761 327.115C29.6521 327.115 26.8281 330.409 24.9455 333.704C27.7695 334.645 39.5362 337.94 46.1255 337.94C49.4202 337.94 49.8909 336.999 49.8909 336.999C49.8909 336.528 49.8909 335.587 48.0082 333.704C41.4189 330.409 34.8295 327.585 32.9468 327.585C32.9468 327.115 32.9468 327.115 32.4761 327.115Z" fill="#0A0A0A"/>
<path d="M48.4788 333.233C56.0095 336.999 62.5989 341.235 57.8922 342.647C49.4202 345.471 21.6507 344.529 22.1214 339.352C22.1214 337.94 23.0627 335.587 24.0041 333.704C26.8281 335.587 59.3042 343.588 48.4788 333.233Z" fill="#FBB914"/>
<path d="M43.3015 345C34.3588 345 24.4748 343.588 22.1214 341.235C21.6508 340.764 21.6508 340.293 21.6508 339.352C21.6508 337.469 22.5921 335.587 23.5334 333.704L24.0041 333.233L24.4748 333.704C25.8868 334.645 39.0655 337.94 46.1255 337.94C49.4202 337.94 49.8909 336.999 49.8909 336.999C49.8909 336.528 49.8909 335.587 48.0082 333.704L48.4789 332.763C59.7749 338.411 59.7749 340.764 59.7749 341.235C59.7749 342.176 59.3042 342.647 57.8922 343.117C55.0682 344.059 49.8909 345 43.3015 345ZM50.8322 334.645C51.3029 335.587 51.3029 336.528 51.3029 336.999C50.8322 337.94 49.4202 338.881 46.5962 338.881C40.0068 338.881 27.7695 335.587 24.9454 334.645C24.0041 336.528 23.5334 337.94 23.0628 339.352C23.0628 339.823 23.0628 339.823 23.5334 340.293C25.4161 342.176 33.8881 343.588 43.7722 343.588C49.8909 343.588 55.0682 343.117 57.8922 342.176C58.8336 341.705 58.8336 341.705 58.8336 341.235C58.8336 340.764 58.3629 338.881 50.8322 334.645Z" fill="#0A0A0A"/>
</svg>
