<svg width="255" height="77" viewBox="0 0 255 77" fill="none" xmlns="http://www.w3.org/2000/svg">
<path d="M0 30.8956C0 17.1696 7.75817 6.06946 23.8713 6.06946C35.4489 6.06946 42.1328 12.0373 42.1328 19.4374C42.1328 25.2858 38.9102 28.9859 33.7779 28.9859C31.6295 28.9859 28.6455 28.5085 26.2584 26.8375C28.0488 22.4213 29.123 13.3502 23.0358 13.3502C18.3809 13.3502 15.6357 19.5567 15.6357 27.1955C15.6357 40.3247 21.4842 44.1441 29.3617 44.1441C34.6134 44.1441 39.865 42.5925 43.4457 39.1312C40.1038 51.5443 31.5101 56.0798 22.9164 56.0798C7.63881 55.8411 0 44.7409 0 30.8956Z" fill="black"/>
<path d="M46.4297 53.9313C47.1459 37.8182 46.5491 24.9277 46.0717 20.3922C48.2201 21.347 51.9201 22.1825 54.3072 22.1825C58.7234 22.1825 61.7073 19.4373 67.1977 19.4373C74.2398 19.4373 76.5075 23.6148 76.5075 27.3148C76.5075 31.731 74.0011 35.073 69.2268 35.073C67.7945 35.073 65.8848 34.8343 64.4525 33.8794C65.5268 31.1342 65.8848 26.0019 62.9009 26.0019C61.7073 26.0019 60.1557 26.5987 59.2009 28.2697C59.0815 36.1472 59.4396 43.9054 59.5589 51.7829C59.6783 54.17 55.6202 55.1249 52.0395 55.1249C49.8911 55.1249 47.862 54.7668 46.4297 53.9313Z" fill="black"/>
<path d="M77.9397 39.9667C77.9397 29.2247 84.2656 19.4374 95.6044 19.4374C101.095 19.4374 103.84 21.5859 107.779 21.5859C109.45 21.5859 111.121 21.3471 113.15 20.3923C112.911 24.9278 112.792 28.986 112.792 32.5666C112.792 45.4571 112.911 50.7088 115.895 53.5734C113.03 55.0056 110.047 55.2444 108.018 55.125C103.601 55.0056 100.975 53.3347 100.379 48.9185C97.5141 54.1702 93.2173 55.3637 90.1141 55.3637C87.1301 55.4831 77.9397 54.4089 77.9397 39.9667ZM97.0367 4.04047C103.721 4.04047 109.211 15.1406 109.211 18.1245C106.347 18.1245 101.214 17.0503 97.2754 12.5148C93.098 17.0503 87.7269 18.1245 84.743 18.1245C84.743 15.26 89.9947 4.04047 97.0367 4.04047ZM94.8883 46.5313C97.8722 46.5313 100.379 42.2345 100.379 34.1183V26.1214C93.3367 24.2117 91.1883 31.6118 91.1883 39.2506C91.1883 44.741 92.7399 46.5313 94.8883 46.5313Z" fill="black"/>
<path d="M140.721 45.9346V37.9377C140.721 29.1053 139.289 25.1665 132.366 27.315C132.128 35.6699 132.605 43.4281 132.724 51.9024C132.844 54.2895 128.786 55.2444 125.205 55.2444C123.056 55.2444 121.027 54.8863 119.595 54.0508C119.834 48.9185 119.834 44.0249 119.834 39.728C119.834 30.5376 119.476 23.6149 119.118 20.5116C121.266 21.4665 123.653 21.7052 125.324 21.7052C130.695 21.7052 134.037 19.5568 139.528 19.5568C150.986 19.5568 153.134 27.5537 153.134 38.2957C153.134 45.5765 153.134 50.8282 156.238 52.2604C153.97 55.0056 150.389 55.4831 148.36 55.4831C143.228 55.4831 140.721 52.6185 140.721 45.9346Z" fill="black"/>
<path d="M159.102 45.2184C159.341 29.344 159.699 24.0923 156.715 21.3471C159.58 19.9148 162.563 19.6761 164.592 19.7955C169.844 19.9148 172.589 22.302 172.351 28.9859C172.231 32.0892 172.231 35.1924 172.112 38.2957C171.993 45.5764 171.873 50.8281 174.976 52.2604C172.709 55.0056 169.009 55.483 166.98 55.483C161.609 55.483 158.983 52.6185 159.102 45.2184ZM165.667 4.87592C169.844 4.87592 173.186 7.14369 173.186 11.4405C173.186 15.7373 169.844 18.0051 165.667 18.0051C161.489 18.0051 158.147 15.7373 158.147 11.4405C158.147 7.14369 161.489 4.87592 165.667 4.87592Z" fill="black"/>
<path d="M182.496 20.2731C174.857 31.4926 178.676 47.4864 184.644 56.08C190.612 64.6737 195.267 64.5543 197.654 66.2253C199.922 67.8963 201.593 73.7448 205.532 75.6545C209.828 77.8029 227.851 74.9383 230.477 71.7157C233.103 68.4931 233.58 65.6285 235.848 62.0479C238.116 58.4672 258.526 48.0832 254.468 24.3312C249.335 -5.26916 220.332 -0.733613 210.903 2.01158C201.354 4.75678 189.777 9.76975 182.496 20.2731Z" fill="white"/>
<path d="M186.793 22.0635C180.109 31.7314 183.451 45.5767 188.702 52.9768C193.835 60.3769 197.893 60.3769 199.922 61.8092C201.951 63.2414 203.264 68.2544 206.725 70.0448C210.425 71.8351 226.061 69.3286 228.329 66.7028C230.597 63.9576 230.955 61.4511 232.984 58.3478C235.013 55.3639 252.677 46.2928 249.097 25.6442C244.681 0.101905 219.496 3.92131 211.38 6.30844C203.145 8.57621 193.119 12.9924 186.793 22.0635Z" fill="#FFFEF6"/>
<path d="M187.867 22.7796C181.183 33.1636 184.883 48.3219 193.715 56.3188C195.267 57.6317 196.819 58.4672 198.848 59.3027C200.041 59.6607 201.474 60.4962 202.19 61.5704C204.099 63.9576 205.412 67.6576 208.157 68.3738C211.858 68.9705 215.677 68.2544 219.377 67.5383C221.883 66.9415 224.39 66.464 226.538 65.1511C228.687 62.764 229.284 59.1833 231.313 56.6768C233.103 54.6478 234.893 53.4542 236.803 51.7832C241.339 47.8445 245.158 42.8315 246.59 36.983C249.335 25.7635 244.919 11.202 232.745 7.62134C217.706 3.0858 196.819 10.0085 187.867 22.7796ZM185.838 21.3473C195.267 7.7407 217.706 -0.25618 233.7 4.16001C247.903 7.86006 254.11 24.6893 251.006 38.0572C249.335 44.8605 245.039 50.709 239.906 55.2445C238.355 56.6768 236.206 58.1091 234.893 59.6607C232.864 62.764 232.029 67.0608 228.687 69.2092C226.061 70.7609 223.077 71.2383 220.212 71.8351C216.274 72.4319 212.216 72.9093 208.277 72.4319C204.816 72.0738 202.548 69.0899 201.115 66.3447C200.28 65.0318 199.922 63.9576 198.848 63.1221C196.461 61.9285 193.715 60.8543 191.686 58.8252C182.018 49.5154 178.318 32.8055 185.838 21.3473Z" fill="#1D1D1B"/>
<path d="M206.248 57.1545C210.306 61.0933 218.303 60.2578 221.167 55.3642C221.287 55.0061 221.883 55.2448 221.764 55.6029C219.258 61.6901 209.709 62.6449 205.77 57.6319C205.532 57.1545 206.009 56.7964 206.248 57.1545Z" fill="#1D1D1B"/>
<path d="M208.993 57.7513C209.112 58.4674 208.754 59.3029 208.396 59.8997C208.277 60.1384 208.158 60.2578 207.919 60.1384C207.203 59.3029 207.68 57.99 208.396 57.3932C208.635 57.2739 208.993 57.5126 208.993 57.7513Z" fill="#1D1D1B"/>
<path d="M211.261 58.7063C211.5 59.1838 211.38 61.9289 210.545 61.3322C209.948 60.4967 210.067 59.4225 210.545 58.587C210.903 58.3483 211.261 58.4676 211.261 58.7063Z" fill="#1D1D1B"/>
<path d="M213.767 58.7062C214.125 59.5417 214.245 60.6159 214.245 61.4514C214.125 62.1675 213.29 61.332 213.17 61.0933C212.812 60.3772 212.812 59.5417 213.051 58.8255C213.29 58.3481 213.648 58.3481 213.767 58.7062Z" fill="#1D1D1B"/>
<path d="M216.871 57.9901C217.348 58.8255 217.706 59.5417 218.303 60.3772C218.422 60.4965 218.303 60.7353 218.183 60.8546C217.467 61.0933 216.871 60.3772 216.513 59.7804C216.274 59.1836 216.035 58.5868 216.274 57.9901C216.274 57.8707 216.513 57.7513 216.632 57.7513C216.751 57.7513 216.871 57.8707 216.871 57.9901Z" fill="#1D1D1B"/>
<path d="M219.616 56.0803C220.093 56.9158 220.571 57.6319 221.287 58.348C221.525 58.5867 221.287 58.9448 221.048 58.9448C220.332 58.9448 219.735 58.5867 219.377 57.99C219.019 57.6319 218.541 55.8416 219.377 55.9609C219.496 55.8416 219.616 55.9609 219.616 56.0803Z" fill="#1D1D1B"/>
<path d="M194.312 50.3514C194.193 47.0094 196.938 44.1449 200.28 44.1449C203.622 44.0255 206.487 46.7707 206.487 50.1127C206.606 53.4547 203.861 56.3192 200.519 56.3192C197.177 56.4386 194.432 53.8127 194.312 50.3514Z" fill="#1D1D1B"/>
<path d="M194.312 50.3512C194.431 42.1156 206.367 41.8769 206.845 50.1125C206.606 58.3481 194.67 58.7061 194.312 50.3512ZM194.431 50.3512C194.909 58.2287 206.367 58.1093 206.486 50.1125C206.009 42.2349 194.551 42.4737 194.431 50.3512Z" fill="#1D1D1B"/>
<path d="M203.622 44.9802C203.264 44.9802 203.025 44.9802 202.667 44.9802C199.325 45.0996 196.58 47.8448 196.699 51.1868C196.699 53.3352 197.893 55.2449 199.683 56.3191C196.699 55.961 194.431 53.4545 194.431 50.3513C194.312 47.0093 197.057 44.1447 200.399 44.1447C201.593 44.1447 202.667 44.5028 203.622 44.9802Z" fill="#1B0014"/>
<path d="M203.741 45.0997C197.296 44.3835 194.193 52.8578 199.803 56.3192L200.399 56.6772L199.683 56.5579C195.864 56.1998 193.238 51.903 194.67 48.3223C195.744 44.6222 200.638 42.8319 203.741 45.0997ZM203.622 44.9803C194.909 40.9222 190.373 54.1707 199.683 56.1998L199.564 56.4385C193.954 53.0965 196.938 44.0254 203.622 44.9803Z" fill="#1D1D1B"/>
<path d="M221.406 45.3382C221.287 41.5188 224.39 38.4155 228.209 38.2961C232.029 38.1768 235.132 41.2801 235.252 45.0995C235.371 48.9189 232.268 52.0221 228.448 52.1415C224.629 52.1415 221.406 49.0382 221.406 45.3382Z" fill="#2B0D24"/>
<path d="M221.287 45.3383C221.048 39.2511 228.806 35.7898 233.103 40.0866C235.848 42.5931 235.968 47.3673 233.342 49.9932C229.045 54.5287 221.287 51.4255 221.287 45.3383ZM221.406 45.3383C221.884 54.29 234.893 54.0513 234.893 45.0996C234.535 36.0285 221.525 36.3866 221.406 45.3383Z" fill="#1D1D1B"/>
<path d="M231.79 39.2511C231.432 39.2511 231.074 39.1318 230.716 39.2511C226.897 39.3705 223.913 42.4737 223.913 46.2931C223.913 48.7996 225.226 50.8287 227.255 52.0222C223.913 51.5448 221.406 48.7996 221.287 45.3383C221.168 41.5189 224.271 38.4156 228.09 38.2963C229.403 38.2963 230.716 38.6543 231.79 39.2511Z" fill="#1B0014"/>
<path d="M231.91 39.2511C224.629 38.535 221.168 47.9641 227.494 51.7835L228.09 52.1416L227.374 52.0222C223.077 51.5448 220.213 46.7705 221.764 42.7124C222.958 38.7737 228.448 36.7446 231.91 39.2511ZM231.671 39.2511C228.09 37.3414 223.197 38.893 221.764 42.9511C220.332 46.8899 223.077 51.4254 227.255 51.9029L227.136 52.1416C220.81 48.3222 224.271 38.1769 231.671 39.2511Z" fill="#1D1D1B"/>
<path d="M213.051 51.0672C211.858 50.7092 210.187 54.1705 210.903 54.6479C211.619 55.1254 212.335 54.0512 213.051 54.0512C213.529 54.0512 214.842 54.8866 215.319 54.1705C215.916 53.4544 213.767 51.306 213.051 51.0672Z" fill="#23001B"/>
<path d="M212.932 51.3058C211.858 51.3058 211.141 53.5736 211.261 54.1704C211.738 54.1704 212.096 53.693 212.693 53.5736C213.29 53.3349 214.006 53.8123 214.603 53.9317C214.841 53.9317 214.961 53.9317 214.961 53.9317C214.841 52.8575 213.767 51.7833 212.932 51.3058ZM213.17 50.7091C213.887 50.9478 214.245 51.4252 214.722 51.7833C215.2 52.38 215.916 52.9768 216.035 53.8123C216.035 55.1252 214.483 55.1252 213.648 54.6478C212.812 54.2898 212.454 55.2446 211.38 55.1252C208.754 55.0059 211.499 50.2316 213.17 50.7091Z" fill="#1D1D1B"/>
<path d="M213.648 51.4253C212.693 51.7834 211.738 53.8125 211.858 54.648C211.619 54.7673 211.261 54.8867 210.903 54.648C210.187 54.1705 211.738 50.7092 213.051 51.0673C213.17 51.0673 213.409 51.1866 213.648 51.4253Z" fill="#1B0014"/>
<path d="M214.006 51.4254C213.767 51.7835 213.529 51.9029 213.29 52.2609C212.813 52.9771 212.335 54.0513 212.574 54.8868L212.216 55.1255C211.858 55.3642 211.142 55.4836 210.664 55.0061C210.306 54.7674 210.306 54.29 210.306 53.9319C210.545 52.619 211.022 51.6642 212.096 50.8287C212.454 50.4706 213.409 50.4706 213.887 50.948C213.767 51.0674 214.006 51.3061 214.006 51.4254ZM213.29 51.3061C213.29 51.4254 213.29 51.5448 213.29 51.5448H213.171C212.813 51.3061 212.693 51.4254 212.454 51.6642C211.858 52.2609 211.38 53.3351 211.261 54.0513C211.261 54.29 211.261 54.1706 211.261 54.1706C211.261 54.1706 211.38 54.1706 211.619 54.1706L211.261 54.7674C211.261 53.3351 211.977 52.0222 213.171 51.3061C213.29 51.1867 213.29 51.3061 213.29 51.3061Z" fill="#1D1D1B"/>
<path d="M196.103 18.8406C195.983 18.7213 195.864 18.7213 195.744 18.7213C195.386 18.6019 195.028 18.7213 195.028 19.1987C195.028 19.3181 195.028 19.4374 195.028 19.5568C195.028 20.0342 195.267 20.3923 195.744 20.3923C196.103 20.3923 196.461 20.0342 196.58 19.6761C196.58 19.4374 196.58 19.3181 196.341 19.0793C196.222 18.96 196.103 18.8406 196.103 18.8406Z" fill="#E0DFD7"/>
<path d="M195.983 18.9603C195.864 18.8409 195.506 18.8409 195.386 18.9603C195.148 19.0796 195.267 19.9151 195.506 20.0345C195.625 20.2732 196.341 19.9151 196.341 19.557C196.341 19.199 196.102 19.0796 195.983 18.9603ZM196.222 18.7216C196.461 18.9603 196.699 19.0796 196.699 19.557C196.699 20.2732 195.744 20.87 195.148 20.5119C194.67 20.1538 194.67 19.557 194.79 19.199C194.79 19.0796 194.909 18.7216 195.148 18.6022C195.506 18.3635 195.864 18.4828 196.222 18.7216Z" fill="#1D1D1B"/>
<path d="M193.357 22.6602C193.238 22.6602 192.999 22.7795 192.88 22.8989C192.76 22.8989 192.76 23.0182 192.76 23.0182C192.522 23.2569 192.522 23.615 192.76 23.8537C192.88 23.9731 193.119 23.9731 193.238 23.9731H193.357C193.596 23.9731 193.715 23.8537 193.715 23.615C193.715 23.615 193.715 23.615 193.715 23.4957C193.715 23.3763 193.835 23.3763 193.715 23.4957C193.835 23.3763 193.954 23.1376 193.835 22.8989C193.715 22.7795 193.596 22.6602 193.357 22.6602Z" fill="#E0DFD7"/>
<path d="M193.357 22.7797C193.119 22.8991 192.88 23.0184 192.88 23.1378C192.641 23.3765 192.88 23.7346 193.119 23.6152C193.238 23.6152 193.477 23.6152 193.477 23.4959C193.477 23.3765 193.477 23.3765 193.596 23.2571C193.596 23.2571 193.596 23.2572 193.596 23.3765C193.596 23.6152 193.835 23.7346 193.954 23.6152L193.596 23.2571C193.835 23.1378 193.596 22.7797 193.357 22.7797ZM193.357 22.541C193.954 22.4217 194.312 23.2572 193.835 23.7346L193.477 23.3765C193.715 23.1378 194.073 23.3765 193.835 23.6152C193.835 23.8539 193.715 23.9733 193.477 24.212C193.357 24.3314 193.119 24.3314 192.999 24.3314H193.119C192.283 24.6894 191.806 23.4959 192.402 23.0184C192.641 22.8991 192.999 22.541 193.357 22.541Z" fill="#1D1D1B"/>
<path d="M191.806 20.7504C191.806 20.8698 191.806 20.9891 191.806 21.1085C191.806 21.2278 191.806 21.4666 191.925 21.4666C192.283 21.7053 192.88 21.2278 192.641 20.8698C192.522 20.3923 192.044 20.3923 191.806 20.7504Z" fill="#E0DFD7"/>
<path d="M191.925 20.7506C191.925 20.7506 191.925 20.87 192.044 20.9894C191.925 21.1087 192.044 21.3474 192.164 21.2281C192.283 21.2281 192.402 21.1087 192.402 20.9894C192.522 20.7506 192.044 20.5119 191.925 20.7506ZM191.686 20.6313C191.925 20.1539 192.641 20.1539 192.88 20.6313C193.238 21.1087 192.761 21.8249 192.164 21.8249C191.686 21.8249 191.448 21.3474 191.686 20.9894C191.686 21.3474 191.567 20.7506 191.686 20.6313Z" fill="#1D1D1B"/>
<path d="M190.851 25.6443C190.732 25.6443 190.612 25.6443 190.493 25.6443H190.373C190.373 25.6443 190.373 25.6443 190.493 25.6443C190.254 25.6443 190.135 25.883 190.015 26.1217C190.015 26.2411 190.015 26.3604 190.015 26.3604C190.015 26.4798 190.015 26.4798 190.015 26.5991C190.015 26.8379 190.254 27.0766 190.493 27.1959C190.732 27.3153 190.97 27.1959 191.209 26.9572C191.448 26.7185 191.567 26.2411 191.209 25.883C191.09 25.7636 190.97 25.7636 190.851 25.6443Z" fill="#E0DFD7"/>
<path d="M190.851 25.7637C190.732 25.7637 190.493 25.7637 190.373 25.7637C190.373 25.7637 190.493 25.7637 190.373 25.6443C190.373 25.525 190.254 25.525 190.254 25.525H190.373V25.7637C190.135 25.7637 189.896 26.1217 190.015 26.3605C190.015 26.3605 190.015 26.3605 190.015 26.4798C189.896 26.9572 190.612 27.3153 190.851 27.0766C191.448 26.5992 191.328 25.883 190.851 25.7637ZM190.851 25.525C192.044 25.883 191.328 27.7927 190.254 27.1959C190.015 27.0766 189.777 26.7185 189.896 26.3605V26.4798C189.777 26.1217 190.015 25.6443 190.373 25.6443C190.373 25.883 190.493 25.883 190.254 25.883C190.254 25.883 190.135 25.883 190.135 25.7637C190.254 25.4056 190.732 25.525 190.851 25.525Z" fill="#1D1D1B"/>
<path d="M239.429 44.7412C239.071 45.0993 239.429 45.8154 239.906 45.8154C240.026 45.8154 240.145 45.8154 240.384 45.8154C240.503 45.8154 240.622 45.8154 240.622 45.6961C240.981 45.4573 241.219 44.9799 240.861 44.6219C240.503 44.1444 239.787 44.3831 239.429 44.7412Z" fill="#E0DFD7"/>
<path d="M239.548 44.8606C239.31 45.0993 239.548 45.5767 239.787 45.5767C240.026 45.5767 240.503 45.4574 240.622 45.2187C241.1 44.6219 240.026 44.3832 239.548 44.8606ZM239.309 44.6219C240.026 43.667 241.935 44.2638 241.1 45.5767C240.742 46.0542 240.145 46.0542 239.668 45.9348C239.19 45.8154 238.951 45.0993 239.309 44.6219Z" fill="#1D1D1B"/>
<path d="M243.01 41.28C242.771 41.0413 242.413 41.0413 242.055 41.28C241.816 41.5187 241.816 41.7574 241.697 41.9962C241.697 42.3542 241.935 42.7123 242.293 42.7123C242.652 42.7123 242.89 42.5929 243.01 42.2349C243.368 41.9962 243.368 41.5187 243.01 41.28Z" fill="#E0DFD7"/>
<path d="M242.89 41.5186C242.413 41.1605 241.935 41.5186 242.055 42.1154C242.055 42.5928 242.651 42.7121 242.89 42.2347V42.1154C243.129 41.996 243.129 41.6379 242.89 41.5186ZM243.129 41.1605C243.487 41.3992 243.606 41.996 243.248 42.3541L243.368 42.2347C243.248 42.9509 242.293 43.1896 241.816 42.5928C240.981 41.7573 242.174 40.4444 243.129 41.1605Z" fill="#1D1D1B"/>
<path d="M244.8 36.3864C244.442 36.2671 244.084 36.2671 243.965 36.6252C243.845 36.9832 243.726 37.4607 244.203 37.6994C244.681 37.8187 245.039 37.58 245.158 37.1026C245.158 36.7445 245.039 36.5058 244.8 36.3864Z" fill="#E0DFD7"/>
<path d="M244.681 36.5057C244.561 36.5057 244.323 36.3863 244.203 36.5057C244.084 36.625 243.964 37.3412 244.323 37.3412C244.8 37.5799 245.277 36.7444 244.681 36.5057ZM244.8 36.1476C245.874 36.625 245.158 38.296 244.084 37.8186C243.368 37.5799 243.487 36.2669 244.084 36.0282C244.442 36.0282 244.681 36.1476 244.8 36.1476Z" fill="#1D1D1B"/>
<path d="M241.577 38.4153C241.1 38.7734 241.697 39.6089 242.174 39.2508C242.652 38.8927 242.055 38.0572 241.577 38.4153Z" fill="#E0DFD7"/>
<path d="M241.577 38.654C241.219 38.8927 241.697 39.3701 241.935 39.1314C242.293 38.8927 241.935 38.2959 241.577 38.654ZM241.458 38.2959C242.174 37.6991 243.129 38.8927 242.413 39.4895C241.577 40.0863 240.622 38.8927 241.458 38.2959Z" fill="#1D1D1B"/>
<path d="M239.429 41.1606C239.309 41.1606 239.19 41.1606 239.071 41.2799C238.713 41.3993 238.593 41.8767 238.951 42.1154C239.071 42.2348 239.19 42.2348 239.309 42.3541C239.668 42.3541 239.906 42.1154 239.906 41.8767C240.026 41.5187 239.787 41.2799 239.429 41.1606Z" fill="#E0DFD7"/>
<path d="M239.429 41.2799C239.309 41.2799 239.19 41.2799 239.19 41.3993C239.071 41.3993 238.951 41.5186 238.951 41.638C238.951 41.7573 239.071 41.7573 239.19 41.8767C239.548 42.3541 240.026 41.5186 239.429 41.2799ZM239.429 41.0412C239.906 41.0412 240.264 41.638 240.026 42.1154C239.787 42.5928 238.951 42.7122 238.713 42.2348H238.832C238.355 41.8767 238.474 41.1606 239.071 41.0412C238.832 41.1606 239.309 40.9218 239.429 41.0412Z" fill="#1D1D1B"/>
<path d="M244.442 29.5831C244.442 29.5831 244.442 29.5831 244.322 29.5831C243.964 29.7024 243.845 30.0605 243.964 30.4186C243.964 30.4186 243.964 30.5379 244.084 30.5379C244.322 30.896 245.039 30.7766 245.158 30.2992C245.158 30.1798 245.158 30.1798 245.158 30.0605C245.158 29.8218 244.8 29.3444 244.442 29.5831Z" fill="#E0DFD7"/>
<path d="M244.442 29.7024L244.322 29.583C244.561 29.4637 244.561 29.7024 244.442 29.7024C243.964 29.8217 243.726 30.4185 244.203 30.6572C244.442 30.7766 244.919 30.6572 244.919 30.2992V30.1798C245.039 29.8217 244.681 29.4637 244.442 29.7024ZM244.442 29.583C244.8 29.3443 245.277 29.8217 245.158 30.1798C245.158 30.0604 245.158 30.4185 245.158 30.4185C245.158 31.1347 244.084 31.3734 243.845 30.6572C243.606 30.1798 243.964 29.583 244.442 29.583C244.442 29.583 244.322 29.7024 244.442 29.7024C244.442 29.7024 244.442 29.7024 244.561 29.7024H244.203C244.084 29.7024 244.322 29.583 244.442 29.583Z" fill="#1D1D1B"/>
<path d="M242.174 32.567C241.577 33.0444 242.293 33.8799 242.89 33.5218C243.487 33.1638 242.771 32.0895 242.174 32.567Z" fill="#E0DFD7"/>
<path d="M242.293 32.6863C241.935 32.9251 242.413 33.5218 242.651 33.1638C243.01 33.0444 242.651 32.4476 242.293 32.6863ZM242.055 32.4476C242.89 31.8508 243.845 33.0444 243.01 33.7605C242.293 34.3573 241.339 33.0444 242.055 32.4476Z" fill="#1D1D1B"/>
<path d="M224.987 63.3607C224.629 63.4801 224.271 63.5994 224.151 63.9575C223.793 64.0769 223.674 64.6736 224.151 64.6736C224.271 64.6736 224.39 64.6736 224.509 64.6736C224.629 64.6736 224.748 64.793 224.867 64.793H224.987C225.225 64.793 225.464 64.793 225.583 64.793C226.061 64.6736 226.18 64.1962 225.942 63.8381C225.942 63.7188 225.822 63.7188 225.822 63.5994C225.583 63.2414 225.345 63.2414 224.987 63.3607Z" fill="#E0DFD7"/>
<path d="M225.106 63.4802C224.748 63.5995 224.509 63.7189 224.39 63.9576C224.39 64.0769 224.39 64.0769 224.271 64.0769C224.151 64.0769 224.032 64.3157 224.271 64.3157H224.629C224.748 64.435 224.867 64.3157 224.987 64.3157C225.345 64.3157 225.822 64.435 225.942 63.9576C225.822 63.5995 225.583 63.3608 225.106 63.4802ZM224.987 63.2414C225.942 62.764 226.896 64.5544 225.822 64.9124C225.464 65.0318 225.225 65.0318 224.987 65.0318H225.106C224.867 65.1511 224.629 65.0318 224.39 65.0318H224.509H224.151C223.435 64.9124 223.554 63.9576 224.151 63.8382L224.032 63.9576C224.151 63.4802 224.629 63.2414 224.987 63.2414Z" fill="#1D1D1B"/>
<path d="M226.3 61.4511C226.18 61.4511 226.061 61.4511 226.061 61.4511C225.942 61.4511 225.942 61.4511 225.822 61.5704C225.703 61.5704 225.583 61.8092 225.583 61.9285V62.0479C225.583 62.4059 226.061 62.6446 226.3 62.5253C226.419 62.5253 226.538 62.4059 226.538 62.4059C226.896 62.2866 227.016 61.9285 226.777 61.5704C226.658 61.4511 226.538 61.4511 226.3 61.4511Z" fill="#E0DFD7"/>
<path d="M226.18 61.5706V61.4512L226.3 61.6899C226.18 61.6899 225.942 61.8093 225.822 61.8093C225.703 61.8093 225.703 61.9286 225.703 62.048C225.703 62.1673 225.822 62.2867 225.942 62.4061C226.061 62.4061 226.3 62.4061 226.419 62.2867C226.777 62.1673 226.658 61.6899 226.3 61.6899C226.419 61.5706 226.3 61.5706 226.18 61.5706ZM226.419 61.3318C226.658 61.2125 226.896 61.4512 227.016 61.6899C227.374 63.0028 224.987 63.2416 225.225 61.8093C225.225 61.4512 225.703 61.2125 226.18 61.2125L226.3 61.4512C226.538 61.4512 226.538 61.4512 226.419 61.3318Z" fill="#1D1D1B"/>
<path d="M226.896 59.1833C226.658 59.422 226.658 59.7801 226.896 60.0188C227.016 60.2575 227.255 60.3769 227.374 60.2575C227.493 60.1382 227.613 60.1382 227.613 59.8995C227.732 59.6608 227.732 59.5414 227.613 59.422C227.613 59.064 227.135 59.064 226.896 59.1833Z" fill="#E0DFD7"/>
<path d="M227.016 59.3026C226.896 59.422 226.896 59.7801 227.016 59.7801C227.135 59.8994 227.254 60.0188 227.254 59.8994C227.732 59.7801 227.493 59.0639 227.016 59.3026ZM226.777 59.0639C227.732 58.3478 228.448 60.0188 227.493 60.4962C227.016 60.7349 226.658 60.3768 226.658 60.1381L226.777 60.2575C226.419 59.7801 226.538 59.3026 226.777 59.0639Z" fill="#1D1D1B"/>
<path d="M224.151 60.4961C223.674 60.8542 224.271 61.6897 224.748 61.2123C225.225 60.7348 224.629 60.1381 224.151 60.4961Z" fill="#E0DFD7"/>
<path d="M224.271 60.6155C224.032 60.8542 224.39 61.2123 224.629 60.9736C224.867 60.8542 224.509 60.3768 224.271 60.6155ZM224.032 60.3768C224.748 59.78 225.584 60.9736 224.867 61.5704C224.271 62.0478 223.316 60.8542 224.032 60.3768Z" fill="#1D1D1B"/>
</svg>
