<svg width="57" height="57" viewBox="0 0 57 57" fill="none" xmlns="http://www.w3.org/2000/svg">
<path d="M14.1789 15.7225L12.5877 8.59747H8.00391" stroke="black" strokeWidth="3" strokeLinecap="round" strokeLinejoin="round"/>
<path d="M18.3592 35.2212L14.1792 15.7225H44.2467C45.7667 15.7225 46.8829 17.1237 46.5742 18.5962L43.0117 35.2212C42.7742 36.3137 41.8004 37.0975 40.6842 37.0975H20.6867C19.5704 37.0975 18.5967 36.3137 18.3592 35.2212Z" stroke="black" strokeWidth="3" strokeLinecap="round" strokeLinejoin="round"/>
<path d="M41.4684 45.7188C40.9696 45.7188 40.5896 46.1225 40.5896 46.5975C40.5896 47.0962 40.9934 47.4762 41.4684 47.4762C41.9434 47.4762 42.3471 47.0725 42.3471 46.5975C42.3471 46.1225 41.9434 45.7188 41.4446 45.7188" stroke="black" strokeWidth="3" strokeLinecap="round" strokeLinejoin="round"/>
<path d="M21.0431 45.7188C20.5443 45.7188 20.1643 46.1225 20.1643 46.5975C20.1643 47.0962 20.5681 47.4762 21.0431 47.4762C21.5181 47.4762 21.9218 47.0725 21.9218 46.5975C21.9218 46.1225 21.5181 45.7188 21.0193 45.7188" stroke="black" strokeWidth="3" strokeLinecap="round" strokeLinejoin="round"/>
</svg>
