<svg width="61" height="61" viewBox="0 0 61 61" fill="none" xmlns="http://www.w3.org/2000/svg">
<path d="M30.5001 30.16C34.4351 30.16 37.6251 26.97 37.6251 23.035C37.6251 19.1 34.4351 15.91 30.5001 15.91C26.5651 15.91 23.3752 19.1 23.3752 23.035C23.3752 26.97 26.5651 30.16 30.5001 30.16Z" stroke="black" strokeWidth="3" strokeMiterlimit="10" strokeLinecap="round"/>
<path d="M43.3305 44.4935C42.6737 40.3688 39.1334 37.2126 34.825 37.2126H26.1804C21.872 37.2126 18.3319 40.3743 17.675 44.4935" stroke="black" strokeWidth="3" strokeMiterlimit="10" strokeLinecap="round"/>
<path d="M30.4999 58.66C46.24 58.66 59 45.9001 59 30.16C59 14.4199 46.24 1.66003 30.4999 1.66003C14.7598 1.66003 2 14.4199 2 30.16C2 45.9001 14.7598 58.66 30.4999 58.66Z" stroke="black" strokeWidth="3" strokeMiterlimit="10" strokeLinecap="round"/>
</svg>
